<?xml version="1.0" standalone="no"?>
<!DOCTYPE svg PUBLIC "-//W3C//DTD SVG 1.1//EN" "http://www.w3.org/Graphics/SVG/1.1/DTD/svg11.dtd" >
<svg xmlns="http://www.w3.org/2000/svg" xmlns:xlink="http://www.w3.org/1999/xlink" version="1.1">
<metadata>
Created by FontForge 20200314 at Tue Aug 23 10:37:24 2016
 By Unknown
Copyright (c) 2011-12 by Kris Sowersby. All rights reserved.
</metadata>
<defs>
<font id="FoundersGrotCondLight" horiz-adv-x="250" >
  <font-face 
    font-family="Copyright Klim Type Foundry"
    font-weight="300"
    font-stretch="normal"
    units-per-em="1000"
    panose-1="2 0 5 3 0 0 0 2 0 4"
    ascent="800"
    descent="-200"
    x-height="434"
    cap-height="630"
    bbox="-37 -179 806 866"
    underline-thickness="57"
    underline-position="-28"
    unicode-range="U+000D-FB04"
  />
<missing-glyph horiz-adv-x="608" 
 />
    <glyph glyph-name="ff" unicode="ff" horiz-adv-x="421" 
d="M438 583q-13 6 -25 9.5t-26 3.5q-30 0 -44.5 -19t-14.5 -61v-82h83v-41h-83v-393h-56v393h-152v-393h-56v393h-53v41h53v72q0 60 28 93t84 33q18 0 35 -4.5t30 -11.5l-11 -41q-13 6 -25 9.5t-26 3.5q-30 0 -44.5 -19t-14.5 -61v-74h152v80q0 60 28 93t84 33q18 0 35 -4.5
t30 -11.5z" />
    <glyph glyph-name="fi" unicode="fi" horiz-adv-x="379" 
d="M230 583q-13 6 -25 9.5t-28 3.5q-29 0 -43 -19t-14 -61v-82h83v-41h-83v-393h-56v393h-53v41h53v80q0 60 27.5 93t81.5 33q32 0 57 -13v-44zM328 434v-434h-56v434h56zM270 589h60v-71h-60v71z" />
    <glyph glyph-name="fl" unicode="fl" horiz-adv-x="379" 
d="M230 583q-13 6 -25 9.5t-28 3.5q-29 0 -43 -19t-14 -61v-82h83v-41h-83v-393h-56v393h-53v41h53v80q0 60 27.5 93t81.5 33q32 0 57 -13v-44zM328 630v-630h-56v630h56z" />
    <glyph glyph-name="ffi" unicode="ffi" horiz-adv-x="587" 
d="M272 514q0 60 27.5 93t81.5 33q32 0 57 -13v-44q-13 6 -25 9.5t-28 3.5q-29 0 -43 -19t-14 -61v-82h83v-41h-83v-393h-56v393h-152v-393h-56v393h-53v41h53v72q0 60 28 93t84 33q18 0 35 -4.5t30 -11.5l-11 -41q-13 6 -25 9.5t-26 3.5q-30 0 -44.5 -19t-14.5 -61v-74h152
v80zM536 434v-434h-56v434h56zM478 589h60v-71h-60v71z" />
    <glyph glyph-name="ffl" unicode="ffl" horiz-adv-x="587" 
d="M328 393v-393h-56v393h-152v-393h-56v393h-53v41h53v72q0 60 28 93t84 33q18 0 35 -4.5t30 -11.5l-11 -41q-13 6 -25 9.5t-26 3.5q-30 0 -44.5 -19t-14.5 -61v-74h152v80q0 60 27.5 93t81.5 33q32 0 57 -13v-44q-13 6 -25 9.5t-28 3.5q-29 0 -43 -19t-14 -61v-82h83v-41
h-83zM536 630v-630h-56v630h56z" />
    <glyph glyph-name="f_k" unicode="fk" horiz-adv-x="583" 
d="M230 583q-13 6 -25 9.5t-28 3.5q-29 0 -43 -19t-14 -61v-82h83v-41h-83v-393h-56v393h-53v41h53v80q0 60 27.5 93t81.5 33q32 0 57 -13v-44zM328 0h-56v630h56v-416l181 220h63l-164 -194l170 -240h-64l-144 201l-42 -50v-151z" />
    <glyph glyph-name="f_j" unicode="fj" horiz-adv-x="379" 
d="M230 583q-13 6 -25 9.5t-28 3.5q-29 0 -43 -19t-14 -61v-82h83v-41h-83v-393h-56v393h-53v41h53v80q0 60 27.5 93t81.5 33q32 0 57 -13v-44zM328 -77q0 -48 -19.5 -75t-70.5 -27q-17 0 -31.5 4.5t-22.5 9.5l9 42q8 -4 21 -7t24 -3q23 0 28.5 13t5.5 36v518h56v-511z
M270 589h60v-71h-60v71z" />
    <glyph glyph-name="f_h" unicode="fh" horiz-adv-x="619" 
d="M230 583q-13 6 -25 9.5t-28 3.5q-29 0 -43 -19t-14 -61v-82h83v-41h-83v-393h-56v393h-53v41h53v80q0 60 27.5 93t81.5 33q32 0 57 -13v-44zM328 370q11 30 41 51.5t74 21.5q63 0 96 -37.5t33 -101.5v-304h-56v294q0 103 -88 103q-44 0 -72 -32.5t-28 -90.5v-274h-56v630
h56v-260z" />
    <glyph glyph-name="f_f_k" unicode="ffk" horiz-adv-x="791" 
d="M328 393v-393h-56v393h-152v-393h-56v393h-53v41h53v72q0 60 28 93t84 33q18 0 35 -4.5t30 -11.5l-11 -41q-13 6 -25 9.5t-26 3.5q-30 0 -44.5 -19t-14.5 -61v-74h152v80q0 60 27.5 93t81.5 33q32 0 57 -13v-44q-13 6 -25 9.5t-28 3.5q-29 0 -43 -19t-14 -61v-82h83v-41
h-83zM536 0h-56v630h56v-416l181 220h63l-164 -194l170 -240h-64l-144 201l-42 -50v-151z" />
    <glyph glyph-name="f_f_j" unicode="ffj" horiz-adv-x="587" 
d="M272 514q0 60 27.5 93t81.5 33q32 0 57 -13v-44q-13 6 -25 9.5t-28 3.5q-29 0 -43 -19t-14 -61v-82h83v-41h-83v-393h-56v393h-152v-393h-56v393h-53v41h53v72q0 60 28 93t84 33q18 0 35 -4.5t30 -11.5l-11 -41q-13 6 -25 9.5t-26 3.5q-30 0 -44.5 -19t-14.5 -61v-74h152
v80zM536 -77q0 -48 -19.5 -75t-70.5 -27q-17 0 -31.5 4.5t-22.5 9.5l9 42q8 -4 21 -7t24 -3q23 0 28.5 13t5.5 36v518h56v-511zM478 589h60v-71h-60v71z" />
    <glyph glyph-name="f_f_h" unicode="ffh" horiz-adv-x="827" 
d="M438 583q-13 6 -25 9.5t-26 3.5q-30 0 -44.5 -19t-14.5 -61v-82h83v-41h-83v-393h-56v393h-152v-393h-56v393h-53v41h53v72q0 60 28 93t84 33q18 0 35 -4.5t30 -11.5l-11 -41q-13 6 -25 9.5t-26 3.5q-30 0 -44.5 -19t-14.5 -61v-74h152v80q0 60 28 93t84 33q18 0 35 -4.5
t30 -11.5zM536 370q11 30 41 51.5t74 21.5q63 0 96 -37.5t33 -101.5v-304h-56v294q0 103 -88 103q-44 0 -72 -32.5t-28 -90.5v-274h-56v630h56v-260z" />
    <glyph glyph-name="f_f_b" unicode="ffb" horiz-adv-x="832" 
d="M438 583q-13 6 -25 9.5t-26 3.5q-30 0 -44.5 -19t-14.5 -61v-82h83v-41h-83v-393h-56v393h-152v-393h-56v393h-53v41h53v72q0 60 28 93t84 33q18 0 35 -4.5t30 -11.5l-11 -41q-13 6 -25 9.5t-26 3.5q-30 0 -44.5 -19t-14.5 -61v-74h152v80q0 60 28 93t84 33q18 0 35 -4.5
t30 -11.5zM750 223q0 85 -27.5 130t-80.5 45q-50 0 -78 -38t-28 -101v-84q0 -63 28 -101t78 -38q53 0 80.5 45t27.5 130v12zM529 0h-49v630h56v-266q5 14 14.5 28t24 25.5t33.5 18.5t43 7q33 0 61.5 -13t49 -39.5t32.5 -67.5t12 -97v-18q0 -56 -12 -97t-32.5 -67.5
t-49 -39.5t-61.5 -13q-24 0 -43 7t-33.5 18.5t-24 25.5t-14.5 28z" />
    <glyph glyph-name="f_b" unicode="fb" horiz-adv-x="624" 
d="M230 583q-13 6 -25 9.5t-28 3.5q-29 0 -43 -19t-14 -61v-82h83v-41h-83v-393h-56v393h-53v41h53v80q0 60 27.5 93t81.5 33q32 0 57 -13v-44zM542 223q0 85 -27.5 130t-80.5 45q-50 0 -78 -38t-28 -101v-84q0 -63 28 -101t78 -38q53 0 80.5 45t27.5 130v12zM321 0h-49v630
h56v-266q5 14 14.5 28t24 25.5t33.5 18.5t43 7q33 0 61.5 -13t49 -39.5t32.5 -67.5t12 -97v-18q0 -56 -12 -97t-32.5 -67.5t-49 -39.5t-61.5 -13q-24 0 -43 7t-33.5 18.5t-24 25.5t-14.5 28z" />
    <glyph glyph-name=".notdef" horiz-adv-x="608" 
 />
    <glyph glyph-name=".null" horiz-adv-x="0" 
 />
    <glyph glyph-name="nonmarkingreturn" unicode="&#xd;" horiz-adv-x="148" 
 />
    <glyph glyph-name="NULL" horiz-adv-x="0" 
 />
    <glyph glyph-name="NULL" horiz-adv-x="0" 
 />
    <glyph glyph-name="space" unicode=" " horiz-adv-x="148" 
 />
    <glyph glyph-name="exclam" unicode="!" horiz-adv-x="135" 
d="M30 75h75v-75h-75v75zM98 630v-181l-22 -300h-18l-21 300v181h61z" />
    <glyph glyph-name="quotedbl" unicode="&#x22;" horiz-adv-x="233" 
d="M40 630h51v-213h-51v213zM142 630h51v-213h-51v213z" />
    <glyph glyph-name="numbersign" unicode="#" horiz-adv-x="530" 
d="M474 167h-116l-36 -167h-50l35 167h-149l-35 -167h-51l36 167h-98l7 47h101l44 204h-113l7 47h116l36 166h50l-36 -166h149l36 166h51l-36 -166h98l-7 -47h-101l-44 -204h113zM168 214h149l44 204h-149z" />
    <glyph glyph-name="dollar" unicode="$" horiz-adv-x="400" 
d="M28 478q0 69 40.5 112.5t111.5 47.5v83h43v-84q38 -5 66 -21.5t46 -41t27 -56t9 -66.5v-29h-53v31q0 54 -23.5 91t-71.5 46v-252l26 -11q64 -28 97.5 -67t33.5 -106q0 -68 -41 -113.5t-116 -49.5v-85h-43v86q-78 8 -119 59.5t-41 144.5v21h53v-21q0 -72 28 -111t79 -48
v261l-29 12q-58 24 -90.5 62t-32.5 105zM223 282v-246q48 4 76 34.5t28 84.5q0 49 -25.5 77.5t-76.5 48.5zM81 478q0 -45 21.5 -71t64.5 -44l13 -6v236q-47 -5 -73 -35t-26 -80z" />
    <glyph glyph-name="percent" unicode="%" horiz-adv-x="449" 
d="M60 498q0 -48 15 -72.5t41 -24.5t41 24.5t15 72.5t-15 72.5t-41 24.5t-41 -24.5t-15 -72.5zM357 630h47l-312 -630h-47zM15 498q0 64 27 101t74 37q48 0 75 -37t27 -101t-27 -101t-75 -37q-47 0 -74 37t-27 101zM277 132q0 -48 15 -72.5t41 -24.5t41 24.5t15 72.5
t-15 72.5t-41 24.5t-41 -24.5t-15 -72.5zM231 132q0 64 27 101t75 37q47 0 74 -37t27 -101t-27 -101t-74 -37q-48 0 -75 37t-27 101z" />
    <glyph glyph-name="ampersand" unicode="&#x26;" horiz-adv-x="513" 
d="M469 313q-11 -63 -32 -117t-53 -96q21 -26 40.5 -42.5t45.5 -16.5q11 0 21 1t22 5v-39q-12 -8 -25.5 -11t-24.5 -3q-32 0 -55.5 16t-55.5 53q-34 -35 -75 -54t-89 -19q-35 0 -66.5 12t-55 34t-37 53.5t-13.5 70.5q0 33 9 59.5t25 48t38.5 40t49.5 35.5q-25 35 -42.5 71
t-17.5 83q0 30 9.5 56t27.5 45.5t43 30.5t56 11q60 0 94.5 -38t34.5 -98q0 -29 -9.5 -52.5t-27 -44t-41.5 -38t-54 -34.5l144 -195q0 -1 1 -2q49 74 69 179zM188 38q39 0 73 16t63 45l-14 18l-146 191q-43 -27 -68 -59t-25 -88q0 -27 9 -50t25 -39t37.5 -25t45.5 -9z
M131 497q0 -40 15.5 -69.5t38.5 -58.5q28 16 48.5 30.5t33.5 30.5t19 34t6 41q0 34 -19 61t-59 27q-35 0 -59 -24.5t-24 -71.5z" />
    <glyph glyph-name="quotesingle" unicode="'" horiz-adv-x="133" 
d="M40 630h53v-213h-53v213z" />
    <glyph glyph-name="parenleft" unicode="(" horiz-adv-x="203" 
d="M24 288q0 51 8 102t24 99t38.5 91.5t52.5 79.5h56q-70 -90 -96 -183t-26 -189t26 -189t96 -183h-56q-30 36 -52.5 79.5t-38.5 91.5t-24 99t-8 102z" />
    <glyph glyph-name="parenright" unicode=")" horiz-adv-x="203" 
d="M179 288q0 -51 -8 -102t-24 -99t-38.5 -91.5t-52.5 -79.5h-56q70 90 96 183t26 189t-26 189t-96 183h56q30 -36 52.5 -79.5t38.5 -91.5t24 -99t8 -102z" />
    <glyph glyph-name="asterisk" unicode="*" horiz-adv-x="254" 
d="M27 574l80 -28v87h40v-86l81 28l12 -38l-82 -25l52 -70l-33 -23l-50 69l-49 -70l-32 24l50 68l-82 27z" />
    <glyph glyph-name="plus" unicode="+" horiz-adv-x="419" 
d="M232 478v-150h151v-47h-151v-150h-47v150h-149v47h149v150h47z" />
    <glyph glyph-name="comma" unicode="," horiz-adv-x="138" 
d="M32 74h74v-80q0 -40 -14 -62.5t-60 -22.5v36q24 1 29 11.5t5 43.5h-34v74z" />
    <glyph glyph-name="hyphen" unicode="-" horiz-adv-x="241" 
d="M32 280h177v-51h-177v51z" />
    <glyph glyph-name="period" unicode="." horiz-adv-x="138" 
d="M32 74h74v-74h-74v74z" />
    <glyph glyph-name="slash" unicode="/" horiz-adv-x="233" 
d="M183 659h50l-193 -742h-50z" />
    <glyph glyph-name="zero" unicode="0" horiz-adv-x="460" 
d="M432 307q0 -155 -52.5 -236t-149.5 -81t-149.5 81t-52.5 236v16q0 155 52.5 236t149.5 81t149.5 -81t52.5 -236v-16zM86 306q0 -59 7.5 -108t25 -84.5t45 -55.5t66.5 -20t66.5 20t45 55.5t25 84.5t7.5 108v18q0 58 -7.5 107.5t-25 85t-45 55.5t-66.5 20t-66.5 -20
t-45 -55.5t-25 -85t-7.5 -107.5v-18z" />
    <glyph glyph-name="one" unicode="1" horiz-adv-x="214" 
d="M5 539q28 1 48 5t34 14.5t23.5 28.5t17.5 48h30v-635h-57v503h-96v36z" />
    <glyph glyph-name="two" unicode="2" horiz-adv-x="388" 
d="M93 52h287v-52h-362v38l160 185q30 34 55 65t43 61t28 59.5t10 59.5q0 58 -32.5 91.5t-88.5 33.5q-54 0 -84.5 -35t-30.5 -103v-36h-55v38q0 85 47 134t123 49q40 0 73 -12.5t55.5 -35t35 -54t12.5 -70.5q0 -35 -9.5 -66t-28 -63t-47 -67t-66.5 -78z" />
    <glyph glyph-name="three" unicode="3" horiz-adv-x="409" 
d="M282 317q46 -11 76.5 -46.5t30.5 -101.5q0 -39 -12 -72t-35 -57t-55.5 -37t-74.5 -13q-90 0 -137.5 54t-47.5 146v24h56v-26q0 -71 34.5 -111t94.5 -40q58 0 89.5 35t31.5 97q0 63 -34 94t-92 31q-11 0 -25 -0.5t-26 -2.5v52q12 -2 26 -2.5t25 -0.5q58 0 90 29t32 92
q0 60 -30 96t-90 36t-91 -41.5t-31 -113.5v-18h-56v18q0 44 11 81t33.5 64t55.5 42t78 15q42 0 75 -13t55.5 -37t34 -57t11.5 -72q0 -62 -28.5 -97.5t-74.5 -46.5z" />
    <glyph glyph-name="four" unicode="4" horiz-adv-x="436" 
d="M350 217h76v-47h-76v-170h-56v170h-284v47l290 413h50v-413zM64 217h230v329z" />
    <glyph glyph-name="five" unicode="5" horiz-adv-x="419" 
d="M212 369q-24 0 -44 -8t-36 -20.5t-26.5 -29t-16.5 -34.5l-54 5q6 32 9.5 76t6 91.5t3.5 94.5t2 86h304v-53h-258q0 -18 -1 -49t-2 -65t-3 -64.5t-4 -47.5q17 28 50 46.5t79 18.5q37 0 68.5 -13t55 -39.5t37 -67t13.5 -94.5q0 -102 -49.5 -157t-133.5 -55q-90 0 -137.5 56
t-47.5 153v19h56v-20q0 -76 34.5 -118.5t94.5 -42.5q58 0 92.5 40.5t34.5 124.5q0 85 -34.5 126t-92.5 41z" />
    <glyph glyph-name="six" unicode="6" horiz-adv-x="436" 
d="M230 -10q-100 0 -151 79t-51 227v25q0 155 51 237t150 82q42 0 74.5 -14.5t55 -40t34 -61t11.5 -78.5h-54q0 66 -30.5 106t-90.5 40q-82 0 -115 -79t-33 -225q14 48 54.5 79t97.5 31q40 0 74 -14.5t58 -41t37.5 -64t13.5 -84.5t-14.5 -85t-39.5 -64.5t-59 -40.5t-73 -14z
M96 194q0 -35 9.5 -63.5t27 -49.5t42 -32.5t54.5 -11.5t55 11.5t42 32.5t26.5 49.5t9.5 63.5q0 34 -9.5 63t-26.5 50t-42 32.5t-55 11.5q-62 0 -97.5 -44t-35.5 -113z" />
    <glyph glyph-name="seven" unicode="7" horiz-adv-x="374" 
d="M10 577v53h354v-39q-50 -61 -80.5 -129.5t-48 -143.5t-23.5 -154.5t-6 -163.5h-59q1 86 9.5 167t27 154.5t48 138t71.5 117.5h-293z" />
    <glyph glyph-name="eight" unicode="8" horiz-adv-x="416" 
d="M208 594q-56 0 -88.5 -33t-32.5 -93t32.5 -92.5t88.5 -32.5t88.5 32.5t32.5 92.5t-32.5 93t-88.5 33zM208 -10q-43 0 -78 13t-59.5 36t-37.5 55t-13 70q0 32 9 58t24.5 46t36.5 33t44 19q-44 11 -73.5 50t-29.5 101q0 36 11.5 67t34 53.5t55.5 35.5t76 13t76 -13
t55.5 -35.5t34 -53.5t11.5 -67q0 -62 -29.5 -101t-73.5 -50q23 -6 44 -19t36.5 -33t24.5 -46t9 -58q0 -38 -13 -70t-37.5 -55t-59.5 -36t-78 -13zM208 296q-60 0 -95 -34t-35 -96t35 -96t95 -34t95 34t35 96t-35 96t-95 34z" />
    <glyph glyph-name="nine" unicode="9" horiz-adv-x="436" 
d="M206 640q100 0 151 -79t51 -227v-25q0 -155 -51 -237t-150 -82q-42 0 -74.5 14.5t-55 40t-34 61t-11.5 78.5h54q0 -66 30.5 -106t90.5 -40q82 0 115 79t33 225q-14 -48 -54.5 -79t-97.5 -31q-41 0 -74.5 14.5t-57.5 41t-37.5 64t-13.5 84.5t14.5 85t39.5 64.5t59 40.5
t73 14zM340 436q0 34 -9.5 63t-27 50t-42 32.5t-54.5 11.5t-55 -11.5t-42 -32.5t-26.5 -50t-9.5 -63q0 -35 9.5 -63.5t26.5 -49.5t42 -32.5t55 -11.5q62 0 97.5 44t35.5 113z" />
    <glyph glyph-name="colon" unicode=":" horiz-adv-x="138" 
d="M32 74h74v-74h-74v74zM32 405h74v-74h-74v74z" />
    <glyph glyph-name="semicolon" unicode=";" horiz-adv-x="138" 
d="M32 74h74v-80q0 -40 -14 -62.5t-60 -22.5v36q24 1 29 11.5t5 43.5h-34v74zM32 405h74v-74h-74v74z" />
    <glyph glyph-name="less" unicode="&#x3c;" horiz-adv-x="313" 
d="M27 334l265 140v-54l-222 -116l222 -118v-55l-265 142v61z" />
    <glyph glyph-name="equal" unicode="=" horiz-adv-x="428" 
d="M40 272h348v-46h-348v46zM40 381h348v-46h-348v46z" />
    <glyph glyph-name="greater" unicode="&#x3e;" horiz-adv-x="313" 
d="M286 273l-264 -142v55l220 118l-220 116v54l264 -140v-61z" />
    <glyph glyph-name="question" unicode="?" horiz-adv-x="371" 
d="M228 310q37 44 55 79t18 79q0 58 -32.5 91.5t-88.5 33.5q-54 0 -84.5 -35t-30.5 -103v-36h-55v38q0 85 47 134t123 49q40 0 73 -12.5t55.5 -35t35 -54t12.5 -70.5q0 -27 -6 -50t-17 -45t-26.5 -43.5t-35.5 -45.5q-17 -20 -29 -37t-20 -32.5t-11.5 -30.5t-3.5 -31h-52
q0 23 4.5 42t13.5 37t23 37t32 41zM140 75h75v-75h-75v75z" />
    <glyph glyph-name="at" unicode="@" horiz-adv-x="649" 
d="M469 74q20 0 38 11t31 34.5t20.5 59t7.5 84.5q0 52 -14.5 96.5t-42 77t-67.5 50.5t-92 18q-62 0 -111 -24t-83.5 -67t-53 -101.5t-18.5 -127.5q0 -66 18.5 -118t51.5 -88.5t77.5 -56t96.5 -19.5q48 0 89 10t84 34l18 -32q-42 -29 -89.5 -42.5t-102.5 -13.5
q-61 0 -114 21.5t-92.5 63t-62.5 102t-23 139.5q0 78 22 144.5t63.5 115t99.5 76.5t130 28q62 0 111.5 -21.5t83.5 -59.5t52 -90.5t18 -114.5q0 -60 -12.5 -104t-33.5 -73t-48.5 -43t-56.5 -14q-34 0 -54 18.5t-22 48.5q-15 -32 -43.5 -49.5t-61.5 -17.5q-53 0 -82.5 36.5
t-29.5 98.5q0 35 10.5 73t31 69.5t51 51.5t70.5 20q33 0 57.5 -18t33.5 -47l13 57h48l-52 -236q-7 -34 3 -47t32 -13zM402 217q5 25 3 46.5t-11 37.5t-23 24.5t-33 8.5q-28 0 -49.5 -16t-35.5 -41t-21.5 -55.5t-7.5 -58.5q0 -45 17.5 -65.5t47.5 -20.5q16 0 33 7t31.5 21.5
t26 36t17.5 50.5z" />
    <glyph glyph-name="A" unicode="A" horiz-adv-x="469" 
d="M269 630l190 -630h-58l-61 207h-214l-61 -207h-55l190 630h69zM140 256h186l-91 309h-4z" />
    <glyph glyph-name="B" unicode="B" horiz-adv-x="431" 
d="M406 176q0 -84 -48.5 -130t-152.5 -46h-149v630h147q54 0 90.5 -12t59 -33.5t32 -51.5t9.5 -65q0 -63 -32 -97t-83 -43q55 -6 91 -46t36 -106zM112 303v-254h98q140 0 140 127t-140 127h-98zM112 351h95q71 0 101 31t30 84q0 52 -30 83.5t-101 31.5h-95v-230z" />
    <glyph glyph-name="C" unicode="C" horiz-adv-x="446" 
d="M30 334q0 156 54 231t148 75q48 0 83 -19t58 -53t34 -80.5t11 -101.5v-14h-55v13q0 42 -6.5 80t-22 66t-40.5 44.5t-62 16.5q-38 0 -65.5 -18t-45 -51.5t-25.5 -81t-8 -106.5v-40q0 -59 8 -106.5t25.5 -81t45 -51.5t65.5 -18q37 0 62 16.5t40.5 44.5t22 66t6.5 80v13h55
v-14q0 -55 -11 -101.5t-34 -80.5t-58 -53t-83 -19q-94 0 -148 75t-54 231v38z" />
    <glyph glyph-name="D" unicode="D" horiz-adv-x="456" 
d="M186 48q46 0 80.5 11.5t57 40t33.5 75.5t11 118v44q0 71 -11 118t-33.5 75.5t-57 40t-80.5 11.5h-72v-534h72zM56 630h135q58 0 102 -16.5t73.5 -52t44.5 -91t15 -134.5v-42q0 -79 -15 -134.5t-44.5 -91t-73.5 -52t-102 -16.5h-135v630z" />
    <glyph glyph-name="E" unicode="E" horiz-adv-x="390" 
d="M370 0h-314v630h308v-49h-252v-230h205v-48h-205v-254h258v-49z" />
    <glyph glyph-name="F" unicode="F" horiz-adv-x="369" 
d="M56 0v630h298v-49h-241v-239h195v-49h-195v-293h-57z" />
    <glyph glyph-name="G" unicode="G" horiz-adv-x="473" 
d="M231 -10q-91 0 -146 75.5t-55 230.5v38q0 156 54.5 231t148.5 75q48 0 83 -18.5t58 -52t34 -80t11 -101.5v-9h-55v8q0 42 -6.5 79.5t-22 65.5t-40.5 44t-62 16q-38 0 -65.5 -18t-45 -51.5t-26 -81t-8.5 -106.5v-40q0 -59 8.5 -106.5t26 -81t44.5 -51.5t64 -18
q73 0 107 54.5t34 146.5v19h-121v49h174v-307h-46l-8 87q-15 -45 -50 -71t-90 -26z" />
    <glyph glyph-name="H" unicode="H" horiz-adv-x="500" 
d="M56 0v630h58v-279h272v279h58v-630h-58v303h-272v-303h-58z" />
    <glyph glyph-name="I" unicode="I" horiz-adv-x="170" 
d="M114 630v-630h-58v630h58z" />
    <glyph glyph-name="J" unicode="J" horiz-adv-x="379" 
d="M331 630v-459q0 -84 -42.5 -132.5t-114.5 -48.5q-36 0 -65 13t-50 36.5t-32 57t-11 74.5v60h55v-60q0 -66 27.5 -100t75.5 -34t74 34t26 100v459h57z" />
    <glyph glyph-name="K" unicode="K" horiz-adv-x="429" 
d="M365 0l-188 295l-63 -87v-208h-58v630h58v-348l242 348h62l-203 -288l214 -342h-64z" />
    <glyph glyph-name="L" unicode="L" horiz-adv-x="385" 
d="M114 630v-581h256v-49h-314v630h58z" />
    <glyph glyph-name="M" unicode="M" horiz-adv-x="566" 
d="M266 0l-153 529h-4v-529h-53v630h78l148 -516h4l148 516h76v-630h-53v529h-4l-153 -529h-34z" />
    <glyph glyph-name="N" unicode="N" horiz-adv-x="479" 
d="M365 119h4v511h54v-630h-52l-257 522h-4v-522h-54v630h58z" />
    <glyph glyph-name="O" unicode="O" horiz-adv-x="464" 
d="M434 300q0 -156 -52.5 -233t-149.5 -77t-149.5 77t-52.5 233v30q0 156 52.5 233t149.5 77t149.5 -77t52.5 -233v-30zM376 331q0 59 -7.5 107.5t-25 82.5t-45 52.5t-66.5 18.5t-66.5 -18.5t-45 -52.5t-25 -82.5t-7.5 -107.5v-32q0 -59 7.5 -107.5t25 -82.5t45 -52.5
t66.5 -18.5t66.5 18.5t45 52.5t25 82.5t7.5 107.5v32z" />
    <glyph glyph-name="P" unicode="P" horiz-adv-x="403" 
d="M179 301q36 0 64 6.5t47.5 23t30 43t10.5 67.5q0 40 -10.5 67t-30 43.5t-47.5 23t-64 6.5h-66v-280h66zM113 0h-57v630h124q110 0 159 -50t49 -139t-49 -139t-159 -50h-67v-252z" />
    <glyph glyph-name="Q" unicode="Q" horiz-adv-x="464" 
d="M434 300q0 -140 -42.5 -216t-120.5 -90l39 -72h-62l-36 69q-88 8 -135 84.5t-47 224.5v30q0 156 52.5 233t149.5 77t149.5 -77t52.5 -233v-30zM376 331q0 59 -7.5 107.5t-25 82.5t-45 52.5t-66.5 18.5t-66.5 -18.5t-45 -52.5t-25 -82.5t-7.5 -107.5v-32q0 -59 7.5 -107.5
t25 -82.5t45 -52.5t66.5 -18.5t66.5 18.5t45 52.5t25 82.5t7.5 107.5v32z" />
    <glyph glyph-name="R" unicode="R" horiz-adv-x="441" 
d="M358 0q-5 11 -9 24t-7.5 30.5t-6 41t-4.5 55.5q-2 33 -7.5 56.5t-18 38.5t-33.5 22t-54 7h-105v-275h-57v630h165q48 0 84 -13t59 -36.5t34.5 -55.5t11.5 -70q0 -67 -31 -107t-81 -50q52 -14 70.5 -51.5t20.5 -92.5q3 -56 9 -91t22 -63h-62zM218 323q74 0 103 32.5
t29 97.5q0 59 -29 93.5t-103 34.5h-105v-258h105z" />
    <glyph glyph-name="S" unicode="S" horiz-adv-x="400" 
d="M28 478q0 36 11.5 65.5t33 51t52 33.5t68.5 12q46 0 80 -15t55.5 -40.5t32 -60t10.5 -72.5v-29h-53v30q0 61 -30.5 100.5t-94.5 39.5q-52 0 -80.5 -30.5t-28.5 -84.5q0 -45 22 -70.5t63 -42.5l81 -35q64 -28 97 -67.5t33 -107.5q0 -35 -11.5 -65.5t-33 -52.5t-53.5 -34.5
t-72 -12.5q-93 0 -141.5 53t-48.5 154v21h53v-20q0 -82 36.5 -121.5t100.5 -39.5q54 0 84 30t30 88q0 49 -26 77t-75 48l-73 30q-58 24 -90 62.5t-32 105.5z" />
    <glyph glyph-name="T" unicode="T" horiz-adv-x="432" 
d="M186 0v581h-171v49h402v-49h-173v-581h-58z" />
    <glyph glyph-name="U" unicode="U" horiz-adv-x="468" 
d="M234 -10q-40 0 -74 13t-59 39.5t-39 67t-14 95.5v425h58v-426q0 -87 35 -126t93 -39t93 39t35 126v426h58v-425q0 -55 -14 -95.5t-39 -67t-59 -39.5t-74 -13z" />
    <glyph glyph-name="V" unicode="V" horiz-adv-x="447" 
d="M192 0l-183 630h58l156 -549h4l156 549h55l-183 -630h-63z" />
    <glyph glyph-name="W" unicode="W" horiz-adv-x="590" 
d="M324 630l100 -533h4l96 533h56l-122 -630h-65l-96 528h-4l-96 -528h-65l-122 630h57l96 -533h4l100 533h57z" />
    <glyph glyph-name="X" unicode="X" horiz-adv-x="409" 
d="M234 326l175 -326h-63l-143 273l-146 -273h-57l175 320l-165 310h63l133 -257l136 257h57z" />
    <glyph glyph-name="Y" unicode="Y" horiz-adv-x="416" 
d="M356 630h55l-176 -401v-229h-54v229l-176 401h59l147 -336z" />
    <glyph glyph-name="Z" unicode="Z" horiz-adv-x="394" 
d="M369 49v-49h-344v38l277 543h-272v49h337v-41l-276 -540h278z" />
    <glyph glyph-name="bracketleft" unicode="[" horiz-adv-x="195" 
d="M110 -39h80v-45h-130v744h130v-45h-80v-654z" />
    <glyph glyph-name="backslash" unicode="\" horiz-adv-x="233" 
d="M243 -83h-50l-193 742h50z" />
    <glyph glyph-name="bracketright" unicode="]" horiz-adv-x="195" 
d="M85 615h-80v45h130v-744h-130v45h80v654z" />
    <glyph glyph-name="asciicircum" unicode="^" horiz-adv-x="328" 
d="M190 630l128 -200h-62l-92 149l-92 -149h-62l128 200h52z" />
    <glyph glyph-name="underscore" unicode="_" horiz-adv-x="331" 
d="M20 -62h291v-49h-291v49z" />
    <glyph glyph-name="grave" unicode="`" 
d="M148 491l-76 121h73l33 -121h-30z" />
    <glyph glyph-name="a" unicode="a" horiz-adv-x="368" 
d="M255 241l-104 -50q-36 -17 -55 -36.5t-19 -52.5q0 -32 18 -48t49 -16q49 0 80 37t31 105v61zM308 74q0 -20 8.5 -26.5t17.5 -6.5q8 0 13.5 1t13.5 5v-38q-17 -14 -42 -14q-26 0 -44.5 19t-21.5 51q-14 -29 -44 -50.5t-76 -21.5q-50 0 -80.5 28t-30.5 79q0 27 9 46.5
t24.5 35t36 27.5t44.5 23l119 55v12q0 41 -17 69.5t-63 28.5q-43 0 -64 -24.5t-21 -70.5v-11h-52v13q0 63 36 101t101 38q38 0 63.5 -11.5t41 -31t22 -45t6.5 -53.5v-228z" />
    <glyph glyph-name="b" unicode="b" horiz-adv-x="403" 
d="M321 223q0 85 -27.5 130t-80.5 45q-50 0 -78 -38t-28 -101v-84q0 -63 28 -101t78 -38q53 0 80.5 45t27.5 130v12zM100 0h-49v630h56v-266q5 14 14.5 28t24 25.5t33.5 18.5t43 7q33 0 61.5 -13t49 -39.5t32.5 -67.5t12 -97v-18q0 -56 -12 -97t-32.5 -67.5t-49 -39.5
t-61.5 -13q-24 0 -43 7t-33.5 18.5t-24 25.5t-14.5 28z" />
    <glyph glyph-name="c" unicode="c" horiz-adv-x="358" 
d="M26 229q0 105 44.5 159.5t115.5 54.5q38 0 65.5 -14t45.5 -38.5t26.5 -57t8.5 -69.5v-8h-53v8q0 61 -21.5 97t-71.5 36q-47 0 -75.5 -40.5t-28.5 -132.5v-14q0 -92 28.5 -132.5t75.5 -40.5q50 0 71.5 35.5t21.5 96.5v9h53v-9q0 -37 -8.5 -69.5t-26.5 -56.5t-45.5 -38
t-65.5 -14q-71 0 -115.5 54.5t-44.5 159.5v24z" />
    <glyph glyph-name="d" unicode="d" horiz-adv-x="403" 
d="M82 211q0 -85 27.5 -130t80.5 -45q50 0 78 38t28 101v84q0 63 -28 101t-78 38q-53 0 -80.5 -45t-27.5 -130v-12zM296 70q-5 -14 -14.5 -28t-24 -25.5t-33.5 -18.5t-43 -7q-33 0 -61.5 13t-49 39.5t-32.5 67.5t-12 97v18q0 56 12 97t32.5 67.5t49 39.5t61.5 13q24 0 43 -7
t33.5 -18.5t24 -25.5t14.5 -28v266h56v-630h-56v70z" />
    <glyph glyph-name="e" unicode="e" horiz-adv-x="367" 
d="M187 -9q-72 0 -116.5 54.5t-44.5 159.5v24q0 105 44.5 159.5t116.5 54.5q75 0 114.5 -54.5t39.5 -159.5v-23h-260q0 -90 28.5 -129.5t77.5 -39.5t73 28.5t27 92.5h51q-2 -75 -39 -121t-112 -46zM287 248q-2 79 -27 114t-73 35q-46 0 -74.5 -34.5t-30.5 -114.5h205z" />
    <glyph glyph-name="f" unicode="f" horiz-adv-x="213" 
d="M230 583q-13 6 -25 9.5t-26 3.5q-30 0 -44.5 -19t-14.5 -61v-82h83v-41h-83v-393h-56v393h-53v41h53v80q0 60 28 93t84 33q18 0 35 -4.5t30 -11.5z" />
    <glyph glyph-name="g" unicode="g" horiz-adv-x="361" 
d="M319 287q0 -32 -10.5 -58.5t-29.5 -45.5t-45 -30t-57 -11q-40 0 -69 16q-12 -8 -19.5 -18t-7.5 -24q0 -34 41 -34h106q66 0 102 -29.5t36 -86.5q0 -38 -16 -65t-42 -45t-60 -26.5t-71 -8.5q-78 0 -126.5 32t-48.5 91q0 35 20.5 60t56.5 36q-25 8 -35 25t-10 37
q0 24 13 41t37 31q-23 20 -36 49t-13 64v11q0 31 10.5 58t29.5 46t45 30t57 11q30 0 55 -10.5t44 -28.5q15 26 40 40.5t54 14.5v-56q-20 0 -41 -6t-34 -15q11 -17 17.5 -38.5t6.5 -45.5v-11zM56 -50q0 -41 32 -64t89 -23q28 0 53 6t44 18t30 30t11 43q0 38 -24 55t-66 17
h-67q-51 0 -76.5 -22t-25.5 -60zM89 289q0 -43 21.5 -73.5t66.5 -30.5t66.5 30.5t21.5 73.5v7q0 43 -21.5 73.5t-66.5 30.5t-66.5 -30.5t-21.5 -73.5v-7z" />
    <glyph glyph-name="h" unicode="h" horiz-adv-x="398" 
d="M107 370q11 30 41 51.5t74 21.5q63 0 96 -37.5t33 -101.5v-304h-56v294q0 103 -88 103q-44 0 -72 -32.5t-28 -90.5v-274h-56v630h56v-260z" />
    <glyph glyph-name="i" unicode="i" horiz-adv-x="158" 
d="M107 434v-434h-56v434h56zM49 589h60v-71h-60v71z" />
    <glyph glyph-name="j" unicode="j" horiz-adv-x="158" 
d="M107 -77q0 -48 -19.5 -75t-70.5 -27q-17 0 -31.5 4.5t-22.5 9.5l9 42q8 -4 21 -7t24 -3q23 0 28.5 13t5.5 36v518h56v-511zM49 589h60v-71h-60v71z" />
    <glyph glyph-name="k" unicode="k" horiz-adv-x="362" 
d="M107 0h-56v630h56v-416l181 220h63l-164 -194l170 -240h-64l-144 201l-42 -50v-151z" />
    <glyph glyph-name="l" unicode="l" horiz-adv-x="158" 
d="M107 630v-630h-56v630h56z" />
    <glyph glyph-name="m" unicode="m" horiz-adv-x="606" 
d="M333 0h-56v300q0 97 -79 97q-22 0 -39 -9.5t-28.5 -25t-17.5 -36.5t-6 -44v-282h-56v434h56v-63q11 30 38 51t69 21t70 -21t39 -56q11 30 40 53.5t75 23.5q60 0 90.5 -35.5t30.5 -90.5v-317h-56v300q0 97 -79 97q-22 0 -39 -9.5t-28.5 -25t-17.5 -36.5t-6 -44v-282z" />
    <glyph glyph-name="n" unicode="n" horiz-adv-x="398" 
d="M107 0h-56v434h56v-64q11 30 41 51.5t74 21.5q63 0 96 -37.5t33 -101.5v-304h-56v294q0 103 -88 103q-44 0 -72 -32.5t-28 -90.5v-274z" />
    <glyph glyph-name="o" unicode="o" horiz-adv-x="376" 
d="M188 36q50 0 78 40t28 134v14q0 94 -28 134t-78 40t-78 -40t-28 -134v-14q0 -94 28 -134t78 -40zM188 -9q-73 0 -117.5 54.5t-44.5 159.5v24q0 105 44.5 159.5t117.5 54.5t117.5 -54.5t44.5 -159.5v-24q0 -105 -44.5 -159.5t-117.5 -54.5z" />
    <glyph glyph-name="p" unicode="p" horiz-adv-x="403" 
d="M321 223q0 85 -27.5 130t-80.5 45q-50 0 -78 -38t-28 -101v-84q0 -63 28 -101t78 -38q53 0 80.5 45t27.5 130v12zM107 -170h-56v604h56v-70q5 14 14.5 28t24 25.5t33.5 18.5t43 7q33 0 61.5 -13t49 -39.5t32.5 -67.5t12 -97v-18q0 -56 -12 -97t-32.5 -67.5t-49 -39.5
t-61.5 -13q-24 0 -43 7t-33.5 18.5t-24 25.5t-14.5 28v-240z" />
    <glyph glyph-name="q" unicode="q" horiz-adv-x="403" 
d="M82 211q0 -85 27.5 -130t80.5 -45q50 0 78 38t28 101v84q0 63 -28 101t-78 38q-53 0 -80.5 -45t-27.5 -130v-12zM296 70q-5 -14 -14.5 -28t-24 -25.5t-33.5 -18.5t-43 -7q-33 0 -61.5 13t-49 39.5t-32.5 67.5t-12 97v18q0 56 12 97t32.5 67.5t49 39.5t61.5 13q24 0 43 -7
t33.5 -18.5t24 -25.5t14.5 -28v70h56v-604h-56v240z" />
    <glyph glyph-name="r" unicode="r" 
d="M241 386q-8 2 -17.5 3.5t-21.5 1.5q-45 0 -70 -31t-25 -97v-263h-56v434h56v-71q11 37 37.5 57.5t64.5 20.5q21 0 36 -5z" />
    <glyph glyph-name="s" unicode="s" horiz-adv-x="337" 
d="M71 144q2 -56 30.5 -82.5t73.5 -26.5q41 0 62.5 20t21.5 54q0 31 -17.5 45.5t-57.5 28.5l-50 18q-46 17 -73.5 43t-27.5 78q0 55 36 88t93 33q74 0 109 -42.5t35 -108.5h-49q-1 48 -23.5 77.5t-71.5 29.5q-36 0 -57 -19.5t-21 -54.5q0 -32 19 -47.5t54 -28.5l47 -17
q25 -9 45 -19.5t33.5 -24.5t20.5 -32.5t7 -43.5q0 -54 -35.5 -87.5t-99.5 -33.5q-66 0 -109.5 38.5t-43.5 114.5h49z" />
    <glyph glyph-name="t" unicode="t" horiz-adv-x="245" 
d="M61 393h-61v28l19 4q15 3 24 8t15 13.5t10 20t7 27.5l13 60h28v-120h107v-41h-107v-293q0 -59 47 -59q21 0 37 7t35 20v-46q-23 -16 -41.5 -22t-42.5 -6q-38 0 -64 22.5t-26 81.5v295z" />
    <glyph glyph-name="u" unicode="u" horiz-adv-x="398" 
d="M289 434h56v-434h-56v63q-11 -30 -40.5 -51t-73.5 -21q-63 0 -95.5 37.5t-32.5 101.5v304h56v-294q0 -103 87 -103q44 0 71.5 33.5t27.5 96.5v267z" />
    <glyph glyph-name="v" unicode="v" horiz-adv-x="367" 
d="M165 0l-155 434h56l123 -353h4l110 353h54l-144 -434h-48z" />
    <glyph glyph-name="w" unicode="w" horiz-adv-x="506" 
d="M360 92h4l81 342h51l-109 -434h-51l-81 348h-4l-81 -348h-51l-109 434h54l82 -342h4l80 342h49z" />
    <glyph glyph-name="x" unicode="x" horiz-adv-x="353" 
d="M206 227l142 -227h-63l-110 180l-113 -180h-57l142 222l-131 212h63l100 -166l102 166h57z" />
    <glyph glyph-name="y" unicode="y" horiz-adv-x="364" 
d="M108 -170l54 170l-152 434h55l123 -355h4l109 355h53l-196 -604h-50z" />
    <glyph glyph-name="z" unicode="z" horiz-adv-x="322" 
d="M24 388v46h273v-39l-214 -349h219v-46h-282v39l212 349h-208z" />
    <glyph glyph-name="braceleft" unicode="{" horiz-adv-x="197" 
d="M14 311h17q31 0 39 16t8 57v187q0 43 15.5 66t60.5 23h38v-43h-34q-17 0 -23.5 -9t-6.5 -28v-195q0 -38 -11 -63.5t-49 -33.5q38 -8 49 -33.5t11 -63.5v-195q0 -19 6.5 -28t23.5 -9h34v-43h-38q-45 0 -60.5 23t-15.5 66v187q0 41 -8 57t-39 16h-17v46z" />
    <glyph glyph-name="bar" unicode="|" horiz-adv-x="159" 
d="M55 659h49v-742h-49v742z" />
    <glyph glyph-name="braceright" unicode="}" horiz-adv-x="197" 
d="M183 265h-17q-31 0 -39 -16t-8 -57v-187q0 -43 -15.5 -66t-60.5 -23h-38v43h34q17 0 23.5 9t6.5 28v195q0 38 11 63.5t49 33.5q-38 8 -49 33.5t-11 63.5v195q0 19 -6.5 28t-23.5 9h-34v43h38q45 0 60.5 -23t15.5 -66v-187q0 -41 8 -57t39 -16h17v-46z" />
    <glyph glyph-name="asciitilde" unicode="~" horiz-adv-x="353" 
d="M32 208q0 52 19.5 82.5t61.5 30.5q21 0 38 -10t31.5 -22t28.5 -22t29 -10q23 0 29.5 16t8.5 45h43q0 -52 -19.5 -82.5t-61.5 -30.5q-21 0 -38 10t-31.5 22t-28.5 22t-29 10q-23 0 -29.5 -16t-8.5 -45h-43z" />
    <glyph glyph-name="exclamdown" unicode="&#xa1;" horiz-adv-x="135" 
d="M30 518h75v-75h-75v75zM37 -112v181l21 300h18l22 -300v-181h-61z" />
    <glyph glyph-name="cent" unicode="&#xa2;" horiz-adv-x="358" 
d="M26 229q0 96 37.5 150t99.5 62v79h42v-78q33 -4 56.5 -19t39.5 -39t23.5 -55t7.5 -65v-8h-53v8q0 54 -17.5 89t-56.5 42v-357q39 7 56.5 41.5t17.5 89.5v9h53v-9q0 -70 -31 -120t-96 -57v-81h-42v82q-62 8 -99.5 61.5t-37.5 150.5v24zM82 210q0 -81 21.5 -121.5
t59.5 -49.5v355q-38 -8 -59.5 -48.5t-21.5 -121.5v-14z" />
    <glyph glyph-name="sterling" unicode="&#xa3;" horiz-adv-x="455" 
d="M142 462q0 -33 6.5 -62.5t16.5 -58.5h139v-42h-125q12 -35 22 -72t10 -81q0 -8 -0.5 -16t-1.5 -16q13 -13 25.5 -26.5t26.5 -24t30 -17t36 -6.5q38 0 52.5 28t14.5 83h47q0 -78 -29 -119.5t-88 -41.5q-23 0 -41 6.5t-33.5 17.5t-29 24.5t-25.5 27.5q-13 -32 -37.5 -54
t-62.5 -22q-35 0 -60 22.5t-25 67.5q0 41 27 66.5t66 25.5q17 0 31 -4.5t27 -12.5q-2 43 -12 77t-23 67h-78v42h61q-10 27 -16.5 56.5t-6.5 64.5q0 37 10.5 69.5t30.5 56.5t49.5 38t67.5 14q75 0 119.5 -52.5t44.5 -148.5h-51q0 78 -29 115.5t-84 37.5q-29 0 -48.5 -11
t-31.5 -29t-17 -41.5t-5 -48.5zM97 33q26 0 41 20.5t20 52.5q-12 11 -25.5 17t-28.5 6q-22 0 -35.5 -12.5t-13.5 -36.5q0 -22 11.5 -34.5t30.5 -12.5z" />
    <glyph glyph-name="yen" unicode="&#xa5;" horiz-adv-x="416" 
d="M57 319h104l-156 311h59l147 -298l145 298h55l-156 -311h104v-42h-125v-60h125v-42h-125v-175h-52v175h-125v42h125v60h-125v42z" />
    <glyph glyph-name="section" unicode="&#xa7;" horiz-adv-x="384" 
d="M363 236q0 -36 -19.5 -65t-48.5 -45q19 -17 30.5 -39t11.5 -56q0 -56 -38.5 -91.5t-103.5 -35.5q-32 0 -60 10t-49.5 29.5t-35 48.5t-15.5 68l42 4q8 -59 40.5 -88.5t77.5 -29.5q42 0 67 21.5t25 62.5q0 49 -50 76l-118 62q-23 12 -41 24.5t-30.5 29t-19.5 37.5t-7 49
q0 35 19 64.5t48 45.5q-19 16 -30 38.5t-11 56.5q0 56 38.5 91.5t103.5 35.5q31 0 59.5 -10t50 -29.5t35 -48.5t15.5 -68l-42 -4q-8 59 -40.5 88.5t-77.5 29.5q-42 0 -67 -21.5t-25 -62.5q0 -49 50 -76l118 -62q45 -23 71.5 -54t26.5 -86zM129 391q-27 -11 -43 -31.5
t-16 -51.5q0 -36 20 -57.5t54 -39.5l110 -58l1 -1q27 11 43 31.5t16 52.5q0 36 -20 57.5t-54 39.5l-110 58h-1z" />
    <glyph glyph-name="dieresis" unicode="&#xa8;" 
d="M45 576h58v-71h-58v71zM147 576h57v-71h-57v71z" />
    <glyph glyph-name="copyright" unicode="&#xa9;" horiz-adv-x="638" 
d="M319 641q64 0 118 -24.5t93 -68t61 -103t22 -130.5t-22 -130.5t-61 -103t-93 -68t-118 -24.5t-118 24.5t-93 68t-61 103t-22 130.5t22 130.5t61 103t93 68t118 24.5zM319 598q-56 0 -101 -21.5t-77 -59t-49.5 -89.5t-17.5 -113t17.5 -112.5t49.5 -89t77 -59t101 -21.5
q55 0 100.5 21.5t77.5 59t49.5 89t17.5 112.5t-17.5 113t-49.5 89.5t-77.5 59t-100.5 21.5zM189 326q0 93 35 139.5t96 46.5q62 0 90.5 -44t28.5 -113v-9h-47v8q0 51 -15 85t-57 34q-43 0 -62 -37.5t-19 -105.5v-33q0 -68 19 -105.5t62 -37.5q42 0 57 34t15 85v8h47v-9
q0 -69 -28.5 -113t-90.5 -44q-61 0 -96 46.5t-35 139.5v25z" />
    <glyph glyph-name="ordfeminine" unicode="&#xaa;" horiz-adv-x="246" 
d="M160 504l-59 -28q-19 -9 -29 -19t-10 -29q0 -17 9.5 -24.5t26.5 -7.5q28 0 45 20t17 57v31zM204 411q0 -11 5 -14t10 -3t8.5 0.5t8.5 2.5v-30q-14 -9 -33 -9q-37 0 -43 43q-8 -17 -27.5 -30.5t-47.5 -13.5q-32 0 -51 18t-19 49q0 34 21 51t48 30l76 33v6q0 23 -10.5 38.5
t-35.5 15.5t-35.5 -13t-10.5 -39v-7h-44v7q0 40 23.5 64.5t66.5 24.5q49 0 69.5 -26t20.5 -65v-133z" />
    <glyph glyph-name="guillemotleft" unicode="&#xab;" horiz-adv-x="344" 
d="M30 238l139 130v-66l-93 -86l93 -86v-66l-139 130v44zM175 238l139 130v-66l-93 -86l93 -86v-66l-139 130v44z" />
    <glyph glyph-name="registered" unicode="&#xae;" horiz-adv-x="333" 
d="M206 389q-5 5 -8 36q0 28 -27 28h-34v-64h-32v173h72q29 0 44 -14t15 -39q0 -19 -10 -30t-25 -13q27 -6 30 -37q1 -19 2 -27t6 -13h-33zM170 480q35 0 35 28q0 27 -35 27h-33v-55h33zM166 335q54 0 88 38.5t34 99.5t-34 99.5t-88 38.5t-87.5 -38.5t-33.5 -99.5
t33.5 -99.5t87.5 -38.5zM166 307q-32 0 -59.5 12.5t-48 34.5t-32 52.5t-11.5 66.5t11.5 66.5t32 53t48 35t59.5 12.5t60 -12.5t48.5 -35t32 -53t11.5 -66.5t-11.5 -66.5t-32 -52.5t-48.5 -34.5t-60 -12.5z" />
    <glyph glyph-name="macron" unicode="&#xaf;" 
d="M42 555h165v-48h-165v48z" />
    <glyph glyph-name="degree" unicode="&#xb0;" horiz-adv-x="236" 
d="M66 540q0 -24 13.5 -40t38.5 -16q26 0 40 16t14 40t-14 39.5t-40 15.5q-25 0 -38.5 -15.5t-13.5 -39.5zM216 540q0 -42 -28 -69.5t-70 -27.5t-70 27.5t-28 69.5t28 69.5t70 27.5t70 -27.5t28 -69.5z" />
    <glyph glyph-name="plusminus" unicode="&#xb1;" horiz-adv-x="419" 
d="M232 503v-127h151v-46h-151v-126h-47v126h-149v46h149v127h47zM36 166h347v-47h-347v47z" />
    <glyph glyph-name="twosuperior" unicode="&#xb2;" horiz-adv-x="210" 
d="M78 401h111v-40h-170v33l71 75q23 26 37 44.5t14 40.5q0 19 -10.5 29.5t-27.5 10.5q-39 0 -39 -49v-13h-44v15q0 38 21 62t61 24q41 0 63 -20.5t22 -57.5q0 -26 -14.5 -49t-42.5 -52z" />
    <glyph glyph-name="threesuperior" unicode="&#xb3;" horiz-adv-x="212" 
d="M152 497q19 -6 30.5 -20.5t11.5 -40.5q0 -35 -22 -56.5t-63 -21.5q-42 0 -64.5 23.5t-22.5 64.5v11h45v-11q0 -24 11 -37.5t31 -13.5q40 0 40 44q0 20 -11 30t-31 10h-9.5t-10.5 -1v37q5 -1 10.5 -1h9.5q20 0 30.5 9t10.5 31q0 20 -9.5 31.5t-29.5 11.5q-21 0 -31 -14
t-10 -38v-9h-44v10q0 39 21.5 63.5t63.5 24.5q41 0 62.5 -21.5t21.5 -56.5q0 -25 -11 -39.5t-30 -19.5z" />
    <glyph glyph-name="acute" unicode="&#xb4;" 
d="M72 491l33 121h73l-76 -121h-30z" />
    <glyph glyph-name="paragraph" unicode="&#xb6;" horiz-adv-x="440" 
d="M218 315q-96 0 -147 42t-51 115q0 74 51 116t147 42h166v-630h-53v580h-61v-580h-52v315z" />
    <glyph glyph-name="periodcentered" unicode="&#xb7;" horiz-adv-x="138" 
d="M32 289h74v-74h-74v74z" />
    <glyph glyph-name="cedilla" unicode="&#xb8;" 
d="M209 -105q0 -35 -24.5 -52.5t-54.5 -17.5q-27 0 -47 9.5t-33 23.5l14 36q12 -14 29 -22t37 -8q15 0 25.5 6.5t10.5 22.5q0 23 -24 29.5t-56 4.5l24 84h32l-14 -50q15 0 29.5 -3.5t26 -11t18.5 -20t7 -31.5z" />
    <glyph glyph-name="onesuperior" unicode="&#xb9;" horiz-adv-x="126" 
d="M11 589q23 1 35 9t18 32h33v-269h-47v197h-39v31z" />
    <glyph glyph-name="ordmasculine" unicode="&#xba;" horiz-adv-x="244" 
d="M229 490q0 -64 -29.5 -98.5t-77.5 -34.5t-77.5 34.5t-29.5 98.5v12q0 64 29.5 98.5t77.5 34.5t77.5 -34.5t29.5 -98.5v-12zM181 502q0 51 -15 72.5t-44 21.5t-44 -21.5t-15 -72.5v-12q0 -51 15 -72.5t44 -21.5t44 21.5t15 72.5v12z" />
    <glyph glyph-name="guillemotright" unicode="&#xbb;" horiz-adv-x="344" 
d="M169 194l-139 -130v66l93 86l-93 86v66l139 -130v-44zM314 194l-139 -130v66l93 86l-93 86v66l139 -130v-44z" />
    <glyph glyph-name="onequarter" unicode="&#xbc;" horiz-adv-x="316" 
d="M87 589q23 1 35 9t18 32h33v-269h-47v197h-39v31zM30 330h256v-30h-256v30zM205 100h31v-37h-31v-63h-42v63h-124v37l122 168h44v-168zM81 100h82v114z" />
    <glyph glyph-name="onehalf" unicode="&#xbd;" horiz-adv-x="316" 
d="M87 589q23 1 35 9t18 32h33v-269h-47v197h-39v31zM130 40h109v-40h-170v33l71 75q23 26 37 44.5t14 40.5q0 19 -10.5 29.5t-27.5 10.5q-39 0 -39 -49v-13h-44v15q0 38 21 62t61 24q41 0 63 -20.5t22 -57.5q0 -26 -13.5 -49t-41.5 -52zM30 330h256v-30h-256v30z" />
    <glyph glyph-name="threequarters" unicode="&#xbe;" horiz-adv-x="316" 
d="M30 330h256v-30h-256v30zM205 100h31v-37h-31v-63h-42v63h-124v37l122 168h44v-168zM81 100h82v114zM196 497q19 -6 30.5 -20.5t11.5 -40.5q0 -35 -22 -56.5t-63 -21.5q-42 0 -64.5 23.5t-22.5 64.5v11h45v-11q0 -24 11 -37.5t31 -13.5q40 0 40 44q0 20 -11 30t-31 10
h-9.5t-10.5 -1v37q5 -1 10.5 -1h9.5q20 0 30.5 9t10.5 31q0 20 -9.5 31.5t-29.5 11.5q-21 0 -31 -14t-10 -38v-9h-44v10q0 39 21.5 63.5t63.5 24.5q41 0 62.5 -21.5t21.5 -56.5q0 -25 -11 -39.5t-30 -19.5z" />
    <glyph glyph-name="questiondown" unicode="&#xbf;" horiz-adv-x="371" 
d="M143 208q-37 -44 -55 -79t-18 -79q0 -58 32.5 -91.5t88.5 -33.5q54 0 84.5 35t30.5 103v36h55v-38q0 -85 -47 -134t-123 -49q-41 0 -73.5 12.5t-55 35t-35 54t-12.5 70.5q0 27 6 50t17 45t26.5 43.5t35.5 45.5q34 40 49 69t15 62h52q0 -23 -4.5 -42t-13.5 -37t-23 -37
t-32 -41zM231 443h-75v75h75v-75z" />
    <glyph glyph-name="Agrave" unicode="&#xc0;" horiz-adv-x="469" 
d="M269 630l190 -630h-58l-61 207h-214l-61 -207h-55l190 630h69zM140 256h186l-91 309h-4zM221 666l-76 121h73l33 -121h-30z" />
    <glyph glyph-name="Aacute" unicode="&#xc1;" horiz-adv-x="469" 
d="M269 630l190 -630h-58l-61 207h-214l-61 -207h-55l190 630h69zM140 256h186l-91 309h-4zM219 666l33 121h73l-76 -121h-30z" />
    <glyph glyph-name="Acircumflex" unicode="&#xc2;" horiz-adv-x="469" 
d="M269 630l190 -630h-58l-61 207h-214l-61 -207h-55l190 630h69zM140 256h186l-91 309h-4zM270 784l61 -121h-43l-53 81l-54 -81h-43l62 121h70z" />
    <glyph glyph-name="Atilde" unicode="&#xc3;" horiz-adv-x="469" 
d="M269 630l190 -630h-58l-61 207h-214l-61 -207h-55l190 630h69zM140 256h186l-91 309h-4zM129 671q0 51 14.5 78t45.5 27q16 0 28 -9t22 -19.5t19 -19t19 -8.5q14 0 18.5 13t5.5 42h39q0 -51 -14.5 -78t-45.5 -27q-16 0 -28 8.5t-22 19t-19 19.5t-19 9q-14 0 -18.5 -13
t-5.5 -42h-39z" />
    <glyph glyph-name="Adieresis" unicode="&#xc4;" horiz-adv-x="469" 
d="M269 630l190 -630h-58l-61 207h-214l-61 -207h-55l190 630h69zM140 256h186l-91 309h-4zM155 751h58v-71h-58v71zM257 751h57v-71h-57v71z" />
    <glyph glyph-name="Aring" unicode="&#xc5;" horiz-adv-x="469" 
d="M269 630l190 -630h-58l-61 207h-214l-61 -207h-55l190 630h69zM140 256h186l-91 309h-4zM197 728q0 -17 9.5 -28t28.5 -11q20 0 29.5 11t9.5 28t-9.5 28t-29.5 11q-19 0 -28.5 -11t-9.5 -28zM158 728q0 31 21 52.5t56 21.5t56 -21.5t21 -52.5q0 -32 -21 -53.5t-56 -21.5
t-56 21.5t-21 53.5z" />
    <glyph glyph-name="AE" unicode="&#xc6;" horiz-adv-x="668" 
d="M344 217h-175l-104 -217h-55l305 630h327v-49h-242v-230h195v-48h-195v-254h248v-49h-304v217zM192 266h152v307h-4z" />
    <glyph glyph-name="Ccedilla" unicode="&#xc7;" horiz-adv-x="446" 
d="M320 -105q0 -35 -24.5 -52.5t-54.5 -17.5q-27 0 -47 9.5t-33 23.5l14 36q12 -14 29 -22t37 -8q15 0 25.5 6.5t10.5 22.5q0 23 -24 29.5t-56 4.5l18 64q-87 6 -136 81t-49 224v38q0 156 54 231t148 75q48 0 83 -19t58 -53t34 -80.5t11 -101.5v-14h-55v13q0 42 -6.5 80
t-22 66t-40.5 44.5t-62 16.5q-38 0 -65.5 -18t-45 -51.5t-25.5 -81t-8 -106.5v-40q0 -59 8 -106.5t25.5 -81t45 -51.5t65.5 -18q37 0 62 16.5t40.5 44.5t22 66t6.5 80v13h55v-14q0 -53 -10.5 -98t-31.5 -78.5t-53 -53.5t-76 -23l-8 -30q15 0 29.5 -3.5t26 -11t18.5 -20
t7 -31.5z" />
    <glyph glyph-name="Egrave" unicode="&#xc8;" horiz-adv-x="390" 
d="M370 0h-314v630h308v-49h-252v-230h205v-48h-205v-254h258v-49zM202 666l-76 121h73l33 -121h-30z" />
    <glyph glyph-name="Eacute" unicode="&#xc9;" horiz-adv-x="390" 
d="M370 0h-314v630h308v-49h-252v-230h205v-48h-205v-254h258v-49zM200 666l33 121h73l-76 -121h-30z" />
    <glyph glyph-name="Ecircumflex" unicode="&#xca;" horiz-adv-x="390" 
d="M370 0h-314v630h308v-49h-252v-230h205v-48h-205v-254h258v-49zM251 784l61 -121h-43l-53 81l-54 -81h-43l62 121h70z" />
    <glyph glyph-name="Edieresis" unicode="&#xcb;" horiz-adv-x="390" 
d="M370 0h-314v630h308v-49h-252v-230h205v-48h-205v-254h258v-49zM136 751h58v-71h-58v71zM238 751h57v-71h-57v71z" />
    <glyph glyph-name="Igrave" unicode="&#xcc;" horiz-adv-x="170" 
d="M114 630v-630h-58v630h58zM72 666l-76 121h73l33 -121h-30z" />
    <glyph glyph-name="Iacute" unicode="&#xcd;" horiz-adv-x="170" 
d="M114 630v-630h-58v630h58zM70 666l33 121h73l-76 -121h-30z" />
    <glyph glyph-name="Icircumflex" unicode="&#xce;" horiz-adv-x="170" 
d="M114 630v-630h-58v630h58zM121 784l61 -121h-43l-53 81l-54 -81h-43l62 121h70z" />
    <glyph glyph-name="Idieresis" unicode="&#xcf;" horiz-adv-x="170" 
d="M114 630v-630h-58v630h58zM6 751h58v-71h-58v71zM108 751h57v-71h-57v71z" />
    <glyph glyph-name="Eth" unicode="&#xd0;" horiz-adv-x="453" 
d="M15 351h40v279h135q58 0 102 -16.5t73.5 -52t44.5 -91t15 -134.5v-42q0 -79 -15 -134.5t-44.5 -91t-73.5 -52t-102 -16.5h-135v303h-40v48zM185 48q46 0 80.5 11.5t57 40t33.5 75.5t11 118v44q0 71 -11 118t-33.5 75.5t-57 40t-80.5 11.5h-72v-231h90v-48h-90v-255h72z
" />
    <glyph glyph-name="Ntilde" unicode="&#xd1;" horiz-adv-x="479" 
d="M365 119h4v511h54v-630h-52l-257 522h-4v-522h-54v630h58zM138 671q0 51 14.5 78t45.5 27q16 0 28 -9t22 -19.5t19 -19t19 -8.5q14 0 18.5 13t5.5 42h39q0 -51 -14.5 -78t-45.5 -27q-16 0 -28 8.5t-22 19t-19 19.5t-19 9q-14 0 -18.5 -13t-5.5 -42h-39z" />
    <glyph glyph-name="Ograve" unicode="&#xd2;" horiz-adv-x="464" 
d="M434 300q0 -156 -52.5 -233t-149.5 -77t-149.5 77t-52.5 233v30q0 156 52.5 233t149.5 77t149.5 -77t52.5 -233v-30zM376 331q0 59 -7.5 107.5t-25 82.5t-45 52.5t-66.5 18.5t-66.5 -18.5t-45 -52.5t-25 -82.5t-7.5 -107.5v-32q0 -59 7.5 -107.5t25 -82.5t45 -52.5
t66.5 -18.5t66.5 18.5t45 52.5t25 82.5t7.5 107.5v32zM219 666l-76 121h73l33 -121h-30z" />
    <glyph glyph-name="Oacute" unicode="&#xd3;" horiz-adv-x="464" 
d="M434 300q0 -156 -52.5 -233t-149.5 -77t-149.5 77t-52.5 233v30q0 156 52.5 233t149.5 77t149.5 -77t52.5 -233v-30zM376 331q0 59 -7.5 107.5t-25 82.5t-45 52.5t-66.5 18.5t-66.5 -18.5t-45 -52.5t-25 -82.5t-7.5 -107.5v-32q0 -59 7.5 -107.5t25 -82.5t45 -52.5
t66.5 -18.5t66.5 18.5t45 52.5t25 82.5t7.5 107.5v32zM217 666l33 121h73l-76 -121h-30z" />
    <glyph glyph-name="Ocircumflex" unicode="&#xd4;" horiz-adv-x="464" 
d="M434 300q0 -156 -52.5 -233t-149.5 -77t-149.5 77t-52.5 233v30q0 156 52.5 233t149.5 77t149.5 -77t52.5 -233v-30zM376 331q0 59 -7.5 107.5t-25 82.5t-45 52.5t-66.5 18.5t-66.5 -18.5t-45 -52.5t-25 -82.5t-7.5 -107.5v-32q0 -59 7.5 -107.5t25 -82.5t45 -52.5
t66.5 -18.5t66.5 18.5t45 52.5t25 82.5t7.5 107.5v32zM268 784l61 -121h-43l-53 81l-54 -81h-43l62 121h70z" />
    <glyph glyph-name="Otilde" unicode="&#xd5;" horiz-adv-x="464" 
d="M434 300q0 -156 -52.5 -233t-149.5 -77t-149.5 77t-52.5 233v30q0 156 52.5 233t149.5 77t149.5 -77t52.5 -233v-30zM376 331q0 59 -7.5 107.5t-25 82.5t-45 52.5t-66.5 18.5t-66.5 -18.5t-45 -52.5t-25 -82.5t-7.5 -107.5v-32q0 -59 7.5 -107.5t25 -82.5t45 -52.5
t66.5 -18.5t66.5 18.5t45 52.5t25 82.5t7.5 107.5v32zM127 671q0 51 14.5 78t45.5 27q16 0 28 -9t22 -19.5t19 -19t19 -8.5q14 0 18.5 13t5.5 42h39q0 -51 -14.5 -78t-45.5 -27q-16 0 -28 8.5t-22 19t-19 19.5t-19 9q-14 0 -18.5 -13t-5.5 -42h-39z" />
    <glyph glyph-name="Odieresis" unicode="&#xd6;" horiz-adv-x="464" 
d="M434 300q0 -156 -52.5 -233t-149.5 -77t-149.5 77t-52.5 233v30q0 156 52.5 233t149.5 77t149.5 -77t52.5 -233v-30zM376 331q0 59 -7.5 107.5t-25 82.5t-45 52.5t-66.5 18.5t-66.5 -18.5t-45 -52.5t-25 -82.5t-7.5 -107.5v-32q0 -59 7.5 -107.5t25 -82.5t45 -52.5
t66.5 -18.5t66.5 18.5t45 52.5t25 82.5t7.5 107.5v32zM153 751h58v-71h-58v71zM255 751h57v-71h-57v71z" />
    <glyph glyph-name="multiply" unicode="&#xd7;" horiz-adv-x="358" 
d="M37 411l33 34l108 -111l108 111l34 -34l-109 -109l109 -109l-34 -33l-108 110l-108 -110l-33 33l110 109z" />
    <glyph glyph-name="Oslash" unicode="&#xd8;" horiz-adv-x="464" 
d="M80 72q-50 77 -50 228v30q0 156 52.5 233t149.5 77q78 0 126 -50l28 52l37 -22l-36 -67q23 -39 35 -94.5t12 -128.5v-30q0 -156 -52.5 -233t-149.5 -77q-76 0 -123 46l-31 -59l-37 22zM88 299q0 -51 5.5 -93.5t17.5 -75.5l220 410q-17 25 -41.5 38.5t-57.5 13.5
q-39 0 -66.5 -18.5t-45 -52.5t-25 -82.5t-7.5 -107.5v-32zM376 331q0 97 -21 162l-220 -408q35 -47 97 -47q39 0 66.5 18.5t45 52.5t25 82.5t7.5 107.5v32z" />
    <glyph glyph-name="Ugrave" unicode="&#xd9;" horiz-adv-x="468" 
d="M234 -10q-40 0 -74 13t-59 39.5t-39 67t-14 95.5v425h58v-426q0 -87 35 -126t93 -39t93 39t35 126v426h58v-425q0 -55 -14 -95.5t-39 -67t-59 -39.5t-74 -13zM221 666l-76 121h73l33 -121h-30z" />
    <glyph glyph-name="Uacute" unicode="&#xda;" horiz-adv-x="468" 
d="M234 -10q-40 0 -74 13t-59 39.5t-39 67t-14 95.5v425h58v-426q0 -87 35 -126t93 -39t93 39t35 126v426h58v-425q0 -55 -14 -95.5t-39 -67t-59 -39.5t-74 -13zM219 666l33 121h73l-76 -121h-30z" />
    <glyph glyph-name="Ucircumflex" unicode="&#xdb;" horiz-adv-x="468" 
d="M234 -10q-40 0 -74 13t-59 39.5t-39 67t-14 95.5v425h58v-426q0 -87 35 -126t93 -39t93 39t35 126v426h58v-425q0 -55 -14 -95.5t-39 -67t-59 -39.5t-74 -13zM270 784l61 -121h-43l-53 81l-54 -81h-43l62 121h70z" />
    <glyph glyph-name="Udieresis" unicode="&#xdc;" horiz-adv-x="468" 
d="M234 -10q-40 0 -74 13t-59 39.5t-39 67t-14 95.5v425h58v-426q0 -87 35 -126t93 -39t93 39t35 126v426h58v-425q0 -55 -14 -95.5t-39 -67t-59 -39.5t-74 -13zM155 751h58v-71h-58v71zM257 751h57v-71h-57v71z" />
    <glyph glyph-name="Yacute" unicode="&#xdd;" horiz-adv-x="416" 
d="M356 630h55l-176 -401v-229h-54v229l-176 401h59l147 -336zM193 666l33 121h73l-76 -121h-30z" />
    <glyph glyph-name="Thorn" unicode="&#xde;" horiz-adv-x="406" 
d="M179 181q36 0 64 6.5t47.5 23t30 43t10.5 67.5q0 40 -10.5 67t-30 43.5t-47.5 23t-64 6.5h-66v-280h66zM113 0h-57v630h57v-120h67q110 0 159 -50t49 -139t-49 -139t-159 -50h-67v-132z" />
    <glyph glyph-name="germandbls" unicode="&#xdf;" horiz-adv-x="403" 
d="M345 487q0 -60 -27 -94t-62 -41q28 -4 50.5 -18.5t38.5 -36.5t24.5 -50.5t8.5 -61.5q0 -47 -13.5 -82.5t-36 -59t-51.5 -35.5t-60 -12q-32 0 -54 9v48q13 -5 26 -7t24 -2q46 0 78 34.5t32 106.5q0 64 -34.5 102.5t-91.5 37.5h-17.5t-16.5 -1v51q8 -2 15.5 -2h18.5
q47 0 70.5 29.5t23.5 83.5q0 46 -23 76.5t-68 30.5q-49 0 -71 -37.5t-22 -106.5v-449h-56v454q0 39 9.5 73t28 59t46.5 39.5t65 14.5q66 0 105.5 -40.5t39.5 -112.5z" />
    <glyph glyph-name="agrave" unicode="&#xe0;" horiz-adv-x="368" 
d="M255 241l-104 -50q-36 -17 -55 -36.5t-19 -52.5q0 -32 18 -48t49 -16q49 0 80 37t31 105v61zM308 74q0 -20 8.5 -26.5t17.5 -6.5q8 0 13.5 1t13.5 5v-38q-17 -14 -42 -14q-26 0 -44.5 19t-21.5 51q-14 -29 -44 -50.5t-76 -21.5q-50 0 -80.5 28t-30.5 79q0 27 9 46.5
t24.5 35t36 27.5t44.5 23l119 55v12q0 41 -17 69.5t-63 28.5q-43 0 -64 -24.5t-21 -70.5v-11h-52v13q0 63 36 101t101 38q38 0 63.5 -11.5t41 -31t22 -45t6.5 -53.5v-228zM164 491l-76 121h73l33 -121h-30z" />
    <glyph glyph-name="aacute" unicode="&#xe1;" horiz-adv-x="368" 
d="M255 241l-104 -50q-36 -17 -55 -36.5t-19 -52.5q0 -32 18 -48t49 -16q49 0 80 37t31 105v61zM308 74q0 -20 8.5 -26.5t17.5 -6.5q8 0 13.5 1t13.5 5v-38q-17 -14 -42 -14q-26 0 -44.5 19t-21.5 51q-14 -29 -44 -50.5t-76 -21.5q-50 0 -80.5 28t-30.5 79q0 27 9 46.5
t24.5 35t36 27.5t44.5 23l119 55v12q0 41 -17 69.5t-63 28.5q-43 0 -64 -24.5t-21 -70.5v-11h-52v13q0 63 36 101t101 38q38 0 63.5 -11.5t41 -31t22 -45t6.5 -53.5v-228zM160 491l33 121h73l-76 -121h-30z" />
    <glyph glyph-name="acircumflex" unicode="&#xe2;" horiz-adv-x="368" 
d="M255 241l-104 -50q-36 -17 -55 -36.5t-19 -52.5q0 -32 18 -48t49 -16q49 0 80 37t31 105v61zM308 74q0 -20 8.5 -26.5t17.5 -6.5q8 0 13.5 1t13.5 5v-38q-17 -14 -42 -14q-26 0 -44.5 19t-21.5 51q-14 -29 -44 -50.5t-76 -21.5q-50 0 -80.5 28t-30.5 79q0 27 9 46.5
t24.5 35t36 27.5t44.5 23l119 55v12q0 41 -17 69.5t-63 28.5q-43 0 -64 -24.5t-21 -70.5v-11h-52v13q0 63 36 101t101 38q38 0 63.5 -11.5t41 -31t22 -45t6.5 -53.5v-228zM209 604l61 -121h-41l-53 81l-54 -81h-41l62 121h66z" />
    <glyph glyph-name="atilde" unicode="&#xe3;" horiz-adv-x="368" 
d="M255 241l-104 -50q-36 -17 -55 -36.5t-19 -52.5q0 -32 18 -48t49 -16q49 0 80 37t31 105v61zM308 74q0 -20 8.5 -26.5t17.5 -6.5q8 0 13.5 1t13.5 5v-38q-17 -14 -42 -14q-26 0 -44.5 19t-21.5 51q-14 -29 -44 -50.5t-76 -21.5q-50 0 -80.5 28t-30.5 79q0 27 9 46.5
t24.5 35t36 27.5t44.5 23l119 55v12q0 41 -17 69.5t-63 28.5q-43 0 -64 -24.5t-21 -70.5v-11h-52v13q0 63 36 101t101 38q38 0 63.5 -11.5t41 -31t22 -45t6.5 -53.5v-228zM72 496q0 51 14.5 78t45.5 27q16 0 28 -9t22 -19.5t19 -19t19 -8.5q14 0 18.5 13t5.5 42h39
q0 -51 -14.5 -78t-45.5 -27q-16 0 -28 8.5t-22 19t-19 19.5t-19 9q-14 0 -18.5 -13t-5.5 -42h-39z" />
    <glyph glyph-name="adieresis" unicode="&#xe4;" horiz-adv-x="368" 
d="M255 241l-104 -50q-36 -17 -55 -36.5t-19 -52.5q0 -32 18 -48t49 -16q49 0 80 37t31 105v61zM308 74q0 -20 8.5 -26.5t17.5 -6.5q8 0 13.5 1t13.5 5v-38q-17 -14 -42 -14q-26 0 -44.5 19t-21.5 51q-14 -29 -44 -50.5t-76 -21.5q-50 0 -80.5 28t-30.5 79q0 27 9 46.5
t24.5 35t36 27.5t44.5 23l119 55v12q0 41 -17 69.5t-63 28.5q-43 0 -64 -24.5t-21 -70.5v-11h-52v13q0 63 36 101t101 38q38 0 63.5 -11.5t41 -31t22 -45t6.5 -53.5v-228zM97 576h58v-71h-58v71zM199 576h57v-71h-57v71z" />
    <glyph glyph-name="aring" unicode="&#xe5;" horiz-adv-x="368" 
d="M255 241l-104 -50q-36 -17 -55 -36.5t-19 -52.5q0 -32 18 -48t49 -16q49 0 80 37t31 105v61zM308 74q0 -20 8.5 -26.5t17.5 -6.5q8 0 13.5 1t13.5 5v-38q-17 -14 -42 -14q-26 0 -44.5 19t-21.5 51q-14 -29 -44 -50.5t-76 -21.5q-50 0 -80.5 28t-30.5 79q0 27 9 46.5
t24.5 35t36 27.5t44.5 23l119 55v12q0 41 -17 69.5t-63 28.5q-43 0 -64 -24.5t-21 -70.5v-11h-52v13q0 63 36 101t101 38q38 0 63.5 -11.5t41 -31t22 -45t6.5 -53.5v-228zM137 553q0 -17 9.5 -28t28.5 -11q20 0 29.5 11t9.5 28t-9.5 28t-29.5 11q-19 0 -28.5 -11t-9.5 -28z
M98 553q0 31 21 52.5t56 21.5t56 -21.5t21 -52.5q0 -32 -21 -53.5t-56 -21.5t-56 21.5t-21 53.5z" />
    <glyph glyph-name="ae" unicode="&#xe6;" horiz-adv-x="592" 
d="M306 204q0 -90 28.5 -128.5t77.5 -38.5t73 28.5t27 92.5h51q-1 -37 -10.5 -68t-28 -53t-46.5 -34t-65 -12q-50 0 -83.5 25t-50.5 73q-11 -41 -45 -69t-85 -28q-57 0 -92 34.5t-35 89.5q0 63 46.5 96.5t120.5 33.5h66v53q0 42 -18.5 70t-61.5 28t-64 -24.5t-21 -70.5v-11
h-52v13q0 63 36 101t101 38q44 0 72 -20t42 -52q19 32 51 52t72 20q75 0 114.5 -54.5t39.5 -159.5v-25h-260zM512 246q-2 79 -27 115t-73 36q-46 0 -76 -35t-30 -116h206zM150 37q48 0 76.5 37.5t28.5 105.5v24h-62q-50 0 -83 -20.5t-33 -65.5q0 -38 19 -59.5t54 -21.5z" />
    <glyph glyph-name="ccedilla" unicode="&#xe7;" horiz-adv-x="358" 
d="M277 -105q0 -35 -24.5 -52.5t-54.5 -17.5q-27 0 -47 9.5t-33 23.5l14 36q12 -14 29 -22t37 -8q15 0 25.5 6.5t10.5 22.5q0 23 -24 29.5t-56 4.5l18 65q-66 5 -106 59t-40 154v24q0 105 44.5 159.5t115.5 54.5q38 0 65.5 -14t45.5 -38.5t26.5 -57t8.5 -69.5v-8h-53v8
q0 61 -21.5 97t-71.5 36q-47 0 -75.5 -40.5t-28.5 -132.5v-14q0 -92 28.5 -132.5t75.5 -40.5q50 0 71.5 35.5t21.5 96.5v9h53v-9q0 -70 -31 -120t-97 -57l-8 -31q15 0 29.5 -3.5t26 -11t18.5 -20t7 -31.5z" />
    <glyph glyph-name="egrave" unicode="&#xe8;" horiz-adv-x="367" 
d="M187 -9q-72 0 -116.5 54.5t-44.5 159.5v24q0 105 44.5 159.5t116.5 54.5q75 0 114.5 -54.5t39.5 -159.5v-23h-260q0 -90 28.5 -129.5t77.5 -39.5t73 28.5t27 92.5h51q-2 -75 -39 -121t-112 -46zM287 248q-2 79 -27 114t-73 35q-46 0 -74.5 -34.5t-30.5 -114.5h205z
M176 491l-76 121h73l33 -121h-30z" />
    <glyph glyph-name="eacute" unicode="&#xe9;" horiz-adv-x="367" 
d="M187 -9q-72 0 -116.5 54.5t-44.5 159.5v24q0 105 44.5 159.5t116.5 54.5q75 0 114.5 -54.5t39.5 -159.5v-23h-260q0 -90 28.5 -129.5t77.5 -39.5t73 28.5t27 92.5h51q-2 -75 -39 -121t-112 -46zM287 248q-2 79 -27 114t-73 35q-46 0 -74.5 -34.5t-30.5 -114.5h205z
M172 491l33 121h73l-76 -121h-30z" />
    <glyph glyph-name="ecircumflex" unicode="&#xea;" horiz-adv-x="367" 
d="M187 -9q-72 0 -116.5 54.5t-44.5 159.5v24q0 105 44.5 159.5t116.5 54.5q75 0 114.5 -54.5t39.5 -159.5v-23h-260q0 -90 28.5 -129.5t77.5 -39.5t73 28.5t27 92.5h51q-2 -75 -39 -121t-112 -46zM287 248q-2 79 -27 114t-73 35q-46 0 -74.5 -34.5t-30.5 -114.5h205z
M220 604l61 -121h-41l-53 81l-54 -81h-41l62 121h66z" />
    <glyph glyph-name="edieresis" unicode="&#xeb;" horiz-adv-x="367" 
d="M187 -9q-72 0 -116.5 54.5t-44.5 159.5v24q0 105 44.5 159.5t116.5 54.5q75 0 114.5 -54.5t39.5 -159.5v-23h-260q0 -90 28.5 -129.5t77.5 -39.5t73 28.5t27 92.5h51q-2 -75 -39 -121t-112 -46zM287 248q-2 79 -27 114t-73 35q-46 0 -74.5 -34.5t-30.5 -114.5h205z
M109 576h58v-71h-58v71zM211 576h57v-71h-57v71z" />
    <glyph glyph-name="igrave" unicode="&#xec;" horiz-adv-x="158" 
d="M107 434v-434h-56v434h56zM66 491l-76 121h73l33 -121h-30z" />
    <glyph glyph-name="iacute" unicode="&#xed;" horiz-adv-x="158" 
d="M107 434v-434h-56v434h56zM62 491l33 121h73l-76 -121h-30z" />
    <glyph glyph-name="icircumflex" unicode="&#xee;" horiz-adv-x="158" 
d="M114 609l51 -121h-42l-43 81l-44 -81h-42l52 121h68zM107 434v-434h-56v434h56z" />
    <glyph glyph-name="idieresis" unicode="&#xef;" horiz-adv-x="158" 
d="M5 576h58v-71h-58v71zM97 576h57v-71h-57v71zM107 434v-434h-56v434h56z" />
    <glyph glyph-name="eth" unicode="&#xf0;" horiz-adv-x="375" 
d="M70 508l94 36q-41 34 -87 59l26 40q32 -18 60 -38t51 -41l80 31l16 -35l-67 -26q55 -61 80.5 -136.5t25.5 -170.5v-22q0 -105 -44 -159.5t-117 -54.5t-117.5 54.5t-44.5 159.5v24q0 105 44 159.5t115 54.5q24 0 47.5 -11t40.5 -36q-20 61 -77 119l-111 -43zM188 36
q50 0 78 40t28 134v14q0 94 -28 134t-78 40t-78 -40t-28 -134v-14q0 -94 28 -134t78 -40z" />
    <glyph glyph-name="ntilde" unicode="&#xf1;" horiz-adv-x="398" 
d="M107 0h-56v434h56v-64q11 30 41 51.5t74 21.5q63 0 96 -37.5t33 -101.5v-304h-56v294q0 103 -88 103q-44 0 -72 -32.5t-28 -90.5v-274zM102 496q0 51 14.5 78t45.5 27q16 0 28 -9t22 -19.5t19 -19t19 -8.5q14 0 18.5 13t5.5 42h39q0 -51 -14.5 -78t-45.5 -27
q-16 0 -28 8.5t-22 19t-19 19.5t-19 9q-14 0 -18.5 -13t-5.5 -42h-39z" />
    <glyph glyph-name="ograve" unicode="&#xf2;" horiz-adv-x="376" 
d="M188 36q50 0 78 40t28 134v14q0 94 -28 134t-78 40t-78 -40t-28 -134v-14q0 -94 28 -134t78 -40zM188 -9q-73 0 -117.5 54.5t-44.5 159.5v24q0 105 44.5 159.5t117.5 54.5t117.5 -54.5t44.5 -159.5v-24q0 -105 -44.5 -159.5t-117.5 -54.5zM175 491l-76 121h73l33 -121
h-30z" />
    <glyph glyph-name="oacute" unicode="&#xf3;" horiz-adv-x="376" 
d="M188 36q50 0 78 40t28 134v14q0 94 -28 134t-78 40t-78 -40t-28 -134v-14q0 -94 28 -134t78 -40zM188 -9q-73 0 -117.5 54.5t-44.5 159.5v24q0 105 44.5 159.5t117.5 54.5t117.5 -54.5t44.5 -159.5v-24q0 -105 -44.5 -159.5t-117.5 -54.5zM171 491l33 121h73l-76 -121
h-30z" />
    <glyph glyph-name="ocircumflex" unicode="&#xf4;" horiz-adv-x="376" 
d="M188 36q50 0 78 40t28 134v14q0 94 -28 134t-78 40t-78 -40t-28 -134v-14q0 -94 28 -134t78 -40zM188 -9q-73 0 -117.5 54.5t-44.5 159.5v24q0 105 44.5 159.5t117.5 54.5t117.5 -54.5t44.5 -159.5v-24q0 -105 -44.5 -159.5t-117.5 -54.5zM222 604l61 -121h-41l-53 81
l-54 -81h-41l62 121h66z" />
    <glyph glyph-name="otilde" unicode="&#xf5;" horiz-adv-x="376" 
d="M188 36q50 0 78 40t28 134v14q0 94 -28 134t-78 40t-78 -40t-28 -134v-14q0 -94 28 -134t78 -40zM188 -9q-73 0 -117.5 54.5t-44.5 159.5v24q0 105 44.5 159.5t117.5 54.5t117.5 -54.5t44.5 -159.5v-24q0 -105 -44.5 -159.5t-117.5 -54.5zM83 496q0 51 14.5 78t45.5 27
q16 0 28 -9t22 -19.5t19 -19t19 -8.5q14 0 18.5 13t5.5 42h39q0 -51 -14.5 -78t-45.5 -27q-16 0 -28 8.5t-22 19t-19 19.5t-19 9q-14 0 -18.5 -13t-5.5 -42h-39z" />
    <glyph glyph-name="odieresis" unicode="&#xf6;" horiz-adv-x="376" 
d="M188 36q50 0 78 40t28 134v14q0 94 -28 134t-78 40t-78 -40t-28 -134v-14q0 -94 28 -134t78 -40zM188 -9q-73 0 -117.5 54.5t-44.5 159.5v24q0 105 44.5 159.5t117.5 54.5t117.5 -54.5t44.5 -159.5v-24q0 -105 -44.5 -159.5t-117.5 -54.5zM109 576h58v-71h-58v71z
M211 576h57v-71h-57v71z" />
    <glyph glyph-name="divide" unicode="&#xf7;" horiz-adv-x="419" 
d="M36 328h347v-47h-347v47zM174 480h72v-70h-72v70zM174 198h72v-69h-72v69z" />
    <glyph glyph-name="oslash" unicode="&#xf8;" horiz-adv-x="376" 
d="M64 55q-18 27 -28 64.5t-10 85.5v24q0 105 44.5 159.5t117.5 54.5q56 0 95 -33l29 47l34 -23l-34 -55q18 -27 28 -64.5t10 -85.5v-24q0 -105 -44.5 -159.5t-117.5 -54.5q-56 0 -96 32l-28 -46l-34 23zM188 36q50 0 78.5 40t28.5 134v14q0 65 -15 104l-162 -263
q26 -29 70 -29zM81 210q0 -64 14 -104l163 263q-26 29 -70 29q-50 0 -78.5 -40t-28.5 -134v-14z" />
    <glyph glyph-name="ugrave" unicode="&#xf9;" horiz-adv-x="398" 
d="M289 434h56v-434h-56v63q-11 -30 -40.5 -51t-73.5 -21q-63 0 -95.5 37.5t-32.5 101.5v304h56v-294q0 -103 87 -103q44 0 71.5 33.5t27.5 96.5v267zM183 491l-76 121h73l33 -121h-30z" />
    <glyph glyph-name="uacute" unicode="&#xfa;" horiz-adv-x="398" 
d="M289 434h56v-434h-56v63q-11 -30 -40.5 -51t-73.5 -21q-63 0 -95.5 37.5t-32.5 101.5v304h56v-294q0 -103 87 -103q44 0 71.5 33.5t27.5 96.5v267zM179 491l33 121h73l-76 -121h-30z" />
    <glyph glyph-name="ucircumflex" unicode="&#xfb;" horiz-adv-x="398" 
d="M289 434h56v-434h-56v63q-11 -30 -40.5 -51t-73.5 -21q-63 0 -95.5 37.5t-32.5 101.5v304h56v-294q0 -103 87 -103q44 0 71.5 33.5t27.5 96.5v267zM230 604l61 -121h-41l-53 81l-54 -81h-41l62 121h66z" />
    <glyph glyph-name="udieresis" unicode="&#xfc;" horiz-adv-x="398" 
d="M289 434h56v-434h-56v63q-11 -30 -40.5 -51t-73.5 -21q-63 0 -95.5 37.5t-32.5 101.5v304h56v-294q0 -103 87 -103q44 0 71.5 33.5t27.5 96.5v267zM117 576h58v-71h-58v71zM219 576h57v-71h-57v71z" />
    <glyph glyph-name="yacute" unicode="&#xfd;" horiz-adv-x="364" 
d="M108 -170l54 170l-152 434h55l123 -355h4l109 355h53l-196 -604h-50zM165 491l33 121h73l-76 -121h-30z" />
    <glyph glyph-name="thorn" unicode="&#xfe;" horiz-adv-x="403" 
d="M321 223q0 85 -27.5 130t-80.5 45q-50 0 -78 -38t-28 -101v-84q0 -63 28 -101t78 -38q53 0 80.5 45t27.5 130v12zM107 -170h-56v800h56v-266q5 14 14.5 28t24 25.5t33.5 18.5t43 7q33 0 61.5 -13t49 -39.5t32.5 -67.5t12 -97v-18q0 -56 -12 -97t-32.5 -67.5t-49 -39.5
t-61.5 -13q-24 0 -43 7t-33.5 18.5t-24 25.5t-14.5 28v-240z" />
    <glyph glyph-name="ydieresis" unicode="&#xff;" horiz-adv-x="364" 
d="M108 -170l54 170l-152 434h55l123 -355h4l109 355h53l-196 -604h-50zM103 576h58v-71h-58v71zM205 576h57v-71h-57v71z" />
    <glyph glyph-name="Amacron" unicode="&#x100;" horiz-adv-x="469" 
d="M269 630l190 -630h-58l-61 207h-214l-61 -207h-55l190 630h69zM140 256h186l-91 309h-4zM152 730h165v-48h-165v48z" />
    <glyph glyph-name="amacron" unicode="&#x101;" horiz-adv-x="368" 
d="M255 241l-104 -50q-36 -17 -55 -36.5t-19 -52.5q0 -32 18 -48t49 -16q49 0 80 37t31 105v61zM308 74q0 -20 8.5 -26.5t17.5 -6.5q8 0 13.5 1t13.5 5v-38q-17 -14 -42 -14q-26 0 -44.5 19t-21.5 51q-14 -29 -44 -50.5t-76 -21.5q-50 0 -80.5 28t-30.5 79q0 27 9 46.5
t24.5 35t36 27.5t44.5 23l119 55v12q0 41 -17 69.5t-63 28.5q-43 0 -64 -24.5t-21 -70.5v-11h-52v13q0 63 36 101t101 38q38 0 63.5 -11.5t41 -31t22 -45t6.5 -53.5v-228zM94 555h165v-48h-165v48z" />
    <glyph glyph-name="Abreve" unicode="&#x102;" horiz-adv-x="469" 
d="M269 630l190 -630h-58l-61 207h-214l-61 -207h-55l190 630h69zM140 256h186l-91 309h-4zM235 663q-44 0 -65 28.5t-21 92.5h44q0 -36 7.5 -56.5t34.5 -20.5q26 0 33.5 20.5t7.5 56.5h44q0 -64 -21 -92.5t-64 -28.5z" />
    <glyph glyph-name="abreve" unicode="&#x103;" horiz-adv-x="368" 
d="M255 241l-104 -50q-36 -17 -55 -36.5t-19 -52.5q0 -32 18 -48t49 -16q49 0 80 37t31 105v61zM308 74q0 -20 8.5 -26.5t17.5 -6.5q8 0 13.5 1t13.5 5v-38q-17 -14 -42 -14q-26 0 -44.5 19t-21.5 51q-14 -29 -44 -50.5t-76 -21.5q-50 0 -80.5 28t-30.5 79q0 27 9 46.5
t24.5 35t36 27.5t44.5 23l119 55v12q0 41 -17 69.5t-63 28.5q-43 0 -64 -24.5t-21 -70.5v-11h-52v13q0 63 36 101t101 38q38 0 63.5 -11.5t41 -31t22 -45t6.5 -53.5v-228zM176 488q-44 0 -65 28.5t-21 92.5h44q0 -36 7.5 -56.5t34.5 -20.5q26 0 33.5 20.5t7.5 56.5h44
q0 -64 -21 -92.5t-64 -28.5z" />
    <glyph glyph-name="Aogonek" unicode="&#x104;" horiz-adv-x="469" 
d="M269 630l190 -630h-19q-25 -30 -34.5 -51t-9.5 -42q0 -17 7.5 -27t24.5 -10q13 0 24 4v-37q-18 -9 -38 -9q-28 0 -45.5 18.5t-17.5 50.5q0 29 13.5 54.5t36.5 48.5l-61 207h-214l-61 -207h-55l190 630h69zM140 256h186l-91 309h-4z" />
    <glyph glyph-name="aogonek" unicode="&#x105;" horiz-adv-x="368" 
d="M308 74q0 -20 8.5 -26.5t17.5 -6.5q8 0 13.5 1t13.5 5v-38q-31 -35 -42.5 -57t-11.5 -45q0 -17 7.5 -27t24.5 -10q13 0 24 4v-37q-18 -9 -38 -9q-28 0 -45.5 18.5t-17.5 50.5q0 29 13 52.5t34 46.5q-23 3 -38.5 21.5t-17.5 47.5q-14 -29 -44 -50.5t-76 -21.5
q-50 0 -80.5 28t-30.5 79q0 27 9 46.5t24.5 35t36 27.5t44.5 23l119 55v12q0 41 -17 69.5t-63 28.5q-43 0 -64 -24.5t-21 -70.5v-11h-52v13q0 63 36 101t101 38q38 0 63.5 -11.5t41 -31t22 -45t6.5 -53.5v-228zM255 241l-104 -50q-36 -17 -55 -36.5t-19 -52.5q0 -32 18 -48
t49 -16q49 0 80 37t31 105v61z" />
    <glyph glyph-name="Cacute" unicode="&#x106;" horiz-adv-x="446" 
d="M30 334q0 156 54 231t148 75q48 0 83 -19t58 -53t34 -80.5t11 -101.5v-14h-55v13q0 42 -6.5 80t-22 66t-40.5 44.5t-62 16.5q-38 0 -65.5 -18t-45 -51.5t-25.5 -81t-8 -106.5v-40q0 -59 8 -106.5t25.5 -81t45 -51.5t65.5 -18q37 0 62 16.5t40.5 44.5t22 66t6.5 80v13h55
v-14q0 -55 -11 -101.5t-34 -80.5t-58 -53t-83 -19q-94 0 -148 75t-54 231v38zM221 666l33 121h73l-76 -121h-30z" />
    <glyph glyph-name="cacute" unicode="&#x107;" horiz-adv-x="358" 
d="M26 229q0 105 44.5 159.5t115.5 54.5q38 0 65.5 -14t45.5 -38.5t26.5 -57t8.5 -69.5v-8h-53v8q0 61 -21.5 97t-71.5 36q-47 0 -75.5 -40.5t-28.5 -132.5v-14q0 -92 28.5 -132.5t75.5 -40.5q50 0 71.5 35.5t21.5 96.5v9h53v-9q0 -37 -8.5 -69.5t-26.5 -56.5t-45.5 -38
t-65.5 -14q-71 0 -115.5 54.5t-44.5 159.5v24zM176 491l33 121h73l-76 -121h-30z" />
    <glyph glyph-name="Ccircumflex" unicode="&#x108;" horiz-adv-x="446" 
d="M30 334q0 156 54 231t148 75q48 0 83 -19t58 -53t34 -80.5t11 -101.5v-14h-55v13q0 42 -6.5 80t-22 66t-40.5 44.5t-62 16.5q-38 0 -65.5 -18t-45 -51.5t-25.5 -81t-8 -106.5v-40q0 -59 8 -106.5t25.5 -81t45 -51.5t65.5 -18q37 0 62 16.5t40.5 44.5t22 66t6.5 80v13h55
v-14q0 -55 -11 -101.5t-34 -80.5t-58 -53t-83 -19q-94 0 -148 75t-54 231v38zM272 784l61 -121h-43l-53 81l-54 -81h-43l62 121h70z" />
    <glyph glyph-name="ccircumflex" unicode="&#x109;" horiz-adv-x="358" 
d="M26 229q0 105 44.5 159.5t115.5 54.5q38 0 65.5 -14t45.5 -38.5t26.5 -57t8.5 -69.5v-8h-53v8q0 61 -21.5 97t-71.5 36q-47 0 -75.5 -40.5t-28.5 -132.5v-14q0 -92 28.5 -132.5t75.5 -40.5q50 0 71.5 35.5t21.5 96.5v9h53v-9q0 -37 -8.5 -69.5t-26.5 -56.5t-45.5 -38
t-65.5 -14q-71 0 -115.5 54.5t-44.5 159.5v24zM227 604l61 -121h-41l-53 81l-54 -81h-41l62 121h66z" />
    <glyph glyph-name="Cdotaccent" unicode="&#x10a;" horiz-adv-x="446" 
d="M30 334q0 156 54 231t148 75q48 0 83 -19t58 -53t34 -80.5t11 -101.5v-14h-55v13q0 42 -6.5 80t-22 66t-40.5 44.5t-62 16.5q-38 0 -65.5 -18t-45 -51.5t-25.5 -81t-8 -106.5v-40q0 -59 8 -106.5t25.5 -81t45 -51.5t65.5 -18q37 0 62 16.5t40.5 44.5t22 66t6.5 80v13h55
v-14q0 -55 -11 -101.5t-34 -80.5t-58 -53t-83 -19q-94 0 -148 75t-54 231v38zM206 764h60v-71h-60v71z" />
    <glyph glyph-name="cdotaccent" unicode="&#x10b;" horiz-adv-x="358" 
d="M26 229q0 105 44.5 159.5t115.5 54.5q38 0 65.5 -14t45.5 -38.5t26.5 -57t8.5 -69.5v-8h-53v8q0 61 -21.5 97t-71.5 36q-47 0 -75.5 -40.5t-28.5 -132.5v-14q0 -92 28.5 -132.5t75.5 -40.5q50 0 71.5 35.5t21.5 96.5v9h53v-9q0 -37 -8.5 -69.5t-26.5 -56.5t-45.5 -38
t-65.5 -14q-71 0 -115.5 54.5t-44.5 159.5v24zM158 589h60v-71h-60v71z" />
    <glyph glyph-name="Ccaron" unicode="&#x10c;" horiz-adv-x="446" 
d="M30 334q0 156 54 231t148 75q48 0 83 -19t58 -53t34 -80.5t11 -101.5v-14h-55v13q0 42 -6.5 80t-22 66t-40.5 44.5t-62 16.5q-38 0 -65.5 -18t-45 -51.5t-25.5 -81t-8 -106.5v-40q0 -59 8 -106.5t25.5 -81t45 -51.5t65.5 -18q37 0 62 16.5t40.5 44.5t22 66t6.5 80v13h55
v-14q0 -55 -11 -101.5t-34 -80.5t-58 -53t-83 -19q-94 0 -148 75t-54 231v38zM202 666l-62 121h43l54 -81l53 81h43l-61 -121h-70z" />
    <glyph glyph-name="ccaron" unicode="&#x10d;" horiz-adv-x="358" 
d="M26 229q0 105 44.5 159.5t115.5 54.5q38 0 65.5 -14t45.5 -38.5t26.5 -57t8.5 -69.5v-8h-53v8q0 61 -21.5 97t-71.5 36q-47 0 -75.5 -40.5t-28.5 -132.5v-14q0 -92 28.5 -132.5t75.5 -40.5q50 0 71.5 35.5t21.5 96.5v9h53v-9q0 -37 -8.5 -69.5t-26.5 -56.5t-45.5 -38
t-65.5 -14q-71 0 -115.5 54.5t-44.5 159.5v24zM156 491l-62 121h41l54 -81l53 81h41l-61 -121h-66z" />
    <glyph glyph-name="Dcaron" unicode="&#x10e;" horiz-adv-x="456" 
d="M186 48q46 0 80.5 11.5t57 40t33.5 75.5t11 118v44q0 71 -11 118t-33.5 75.5t-57 40t-80.5 11.5h-72v-534h72zM56 630h135q58 0 102 -16.5t73.5 -52t44.5 -91t15 -134.5v-42q0 -79 -15 -134.5t-44.5 -91t-73.5 -52t-102 -16.5h-135v630zM169 666l-62 121h43l54 -81l53 81
h43l-61 -121h-70z" />
    <glyph glyph-name="dcaron" unicode="&#x10f;" horiz-adv-x="403" 
d="M82 211q0 -85 27.5 -130t80.5 -45q50 0 78 38t28 101v84q0 63 -28 101t-78 38q-53 0 -80.5 -45t-27.5 -130v-12zM296 70q-5 -14 -14.5 -28t-24 -25.5t-33.5 -18.5t-43 -7q-33 0 -61.5 13t-49 39.5t-32.5 67.5t-12 97v18q0 56 12 97t32.5 67.5t49 39.5t61.5 13q24 0 43 -7
t33.5 -18.5t24 -25.5t14.5 -28v266h56v-630h-56v70zM386 504l16 126h71l-59 -126h-28z" />
    <glyph glyph-name="Dcroat" unicode="&#x110;" horiz-adv-x="453" 
d="M15 351h40v279h135q58 0 102 -16.5t73.5 -52t44.5 -91t15 -134.5v-42q0 -79 -15 -134.5t-44.5 -91t-73.5 -52t-102 -16.5h-135v303h-40v48zM185 48q46 0 80.5 11.5t57 40t33.5 75.5t11 118v44q0 71 -11 118t-33.5 75.5t-57 40t-80.5 11.5h-72v-231h90v-48h-90v-255h72z
" />
    <glyph glyph-name="dcroat" unicode="&#x111;" horiz-adv-x="403" 
d="M206 541h90v89h56v-89h41v-38h-41v-503h-56v70q-5 -14 -14.5 -28t-24 -25.5t-33.5 -18.5t-43 -7q-33 0 -61.5 13t-49 39.5t-32.5 67.5t-12 97v18q0 56 12 97t32.5 67.5t49 39.5t61.5 13q24 0 43 -7t33.5 -18.5t24 -25.5t14.5 -28v139h-90v38zM82 211q0 -85 27.5 -130
t80.5 -45q50 0 78 38t28 101v84q0 63 -28 101t-78 38q-53 0 -80.5 -45t-27.5 -130v-12z" />
    <glyph glyph-name="Emacron" unicode="&#x112;" horiz-adv-x="390" 
d="M370 0h-314v630h308v-49h-252v-230h205v-48h-205v-254h258v-49zM133 730h165v-48h-165v48z" />
    <glyph glyph-name="emacron" unicode="&#x113;" horiz-adv-x="367" 
d="M187 -9q-72 0 -116.5 54.5t-44.5 159.5v24q0 105 44.5 159.5t116.5 54.5q75 0 114.5 -54.5t39.5 -159.5v-23h-260q0 -90 28.5 -129.5t77.5 -39.5t73 28.5t27 92.5h51q-2 -75 -39 -121t-112 -46zM287 248q-2 79 -27 114t-73 35q-46 0 -74.5 -34.5t-30.5 -114.5h205z
M106 555h165v-48h-165v48z" />
    <glyph glyph-name="Ebreve" unicode="&#x114;" horiz-adv-x="390" 
d="M370 0h-314v630h308v-49h-252v-230h205v-48h-205v-254h258v-49zM216 663q-44 0 -65 28.5t-21 92.5h44q0 -36 7.5 -56.5t34.5 -20.5q26 0 33.5 20.5t7.5 56.5h44q0 -64 -21 -92.5t-64 -28.5z" />
    <glyph glyph-name="ebreve" unicode="&#x115;" horiz-adv-x="367" 
d="M187 -9q-72 0 -116.5 54.5t-44.5 159.5v24q0 105 44.5 159.5t116.5 54.5q75 0 114.5 -54.5t39.5 -159.5v-23h-260q0 -90 28.5 -129.5t77.5 -39.5t73 28.5t27 92.5h51q-2 -75 -39 -121t-112 -46zM287 248q-2 79 -27 114t-73 35q-46 0 -74.5 -34.5t-30.5 -114.5h205z
M189 488q-44 0 -65 28.5t-21 92.5h44q0 -36 7.5 -56.5t34.5 -20.5q26 0 33.5 20.5t7.5 56.5h44q0 -64 -21 -92.5t-64 -28.5z" />
    <glyph glyph-name="Edotaccent" unicode="&#x116;" horiz-adv-x="390" 
d="M370 0h-314v630h308v-49h-252v-230h205v-48h-205v-254h258v-49zM185 764h60v-71h-60v71z" />
    <glyph glyph-name="edotaccent" unicode="&#x117;" horiz-adv-x="367" 
d="M187 -9q-72 0 -116.5 54.5t-44.5 159.5v24q0 105 44.5 159.5t116.5 54.5q75 0 114.5 -54.5t39.5 -159.5v-23h-260q0 -90 28.5 -129.5t77.5 -39.5t73 28.5t27 92.5h51q-2 -75 -39 -121t-112 -46zM287 248q-2 79 -27 114t-73 35q-46 0 -74.5 -34.5t-30.5 -114.5h205z
M157 589h60v-71h-60v71z" />
    <glyph glyph-name="Eogonek" unicode="&#x118;" horiz-adv-x="390" 
d="M370 0h-36q-25 -30 -34.5 -51t-9.5 -42q0 -17 7.5 -27t24.5 -10q13 0 24 4v-37q-18 -9 -38 -9q-28 0 -45.5 18.5t-17.5 50.5q0 29 13.5 54.5t36.5 48.5h-239v630h308v-49h-252v-230h205v-48h-205v-254h258v-49z" />
    <glyph glyph-name="eogonek" unicode="&#x119;" horiz-adv-x="367" 
d="M229 -4q-22 -5 -42 -5q-72 0 -116.5 54.5t-44.5 159.5v24q0 105 44.5 159.5t116.5 54.5q75 0 114.5 -54.5t39.5 -159.5v-23h-260q0 -90 28.5 -129.5t77.5 -39.5t73 28.5t27 92.5h51q-1 -42 -13 -74.5t-34 -55.5q-32 -34 -47 -62.5t-15 -58.5q0 -17 7.5 -27t24.5 -10
q13 0 24 4v-37q-18 -9 -38 -9q-28 0 -45.5 18.5t-17.5 50.5q0 28 12 52t33 47zM287 248q-2 79 -27 114t-73 35q-46 0 -74.5 -34.5t-30.5 -114.5h205z" />
    <glyph glyph-name="Ecaron" unicode="&#x11a;" horiz-adv-x="390" 
d="M370 0h-314v630h308v-49h-252v-230h205v-48h-205v-254h258v-49zM181 666l-62 121h43l54 -81l53 81h43l-61 -121h-70z" />
    <glyph glyph-name="ecaron" unicode="&#x11b;" horiz-adv-x="367" 
d="M187 -9q-72 0 -116.5 54.5t-44.5 159.5v24q0 105 44.5 159.5t116.5 54.5q75 0 114.5 -54.5t39.5 -159.5v-23h-260q0 -90 28.5 -129.5t77.5 -39.5t73 28.5t27 92.5h51q-2 -75 -39 -121t-112 -46zM287 248q-2 79 -27 114t-73 35q-46 0 -74.5 -34.5t-30.5 -114.5h205z
M154 491l-62 121h41l54 -81l53 81h41l-61 -121h-66z" />
    <glyph glyph-name="Gcircumflex" unicode="&#x11c;" horiz-adv-x="473" 
d="M231 -10q-91 0 -146 75.5t-55 230.5v38q0 156 54.5 231t148.5 75q48 0 83 -18.5t58 -52t34 -80t11 -101.5v-9h-55v8q0 42 -6.5 79.5t-22 65.5t-40.5 44t-62 16q-38 0 -65.5 -18t-45 -51.5t-26 -81t-8.5 -106.5v-40q0 -59 8.5 -106.5t26 -81t44.5 -51.5t64 -18
q73 0 107 54.5t34 146.5v19h-121v49h174v-307h-46l-8 87q-15 -45 -50 -71t-90 -26zM271 784l61 -121h-43l-53 81l-54 -81h-43l62 121h70z" />
    <glyph glyph-name="gcircumflex" unicode="&#x11d;" horiz-adv-x="361" 
d="M319 287q0 -32 -10.5 -58.5t-29.5 -45.5t-45 -30t-57 -11q-40 0 -69 16q-12 -8 -19.5 -18t-7.5 -24q0 -34 41 -34h106q66 0 102 -29.5t36 -86.5q0 -38 -16 -65t-42 -45t-60 -26.5t-71 -8.5q-78 0 -126.5 32t-48.5 91q0 35 20.5 60t56.5 36q-25 8 -35 25t-10 37
q0 24 13 41t37 31q-23 20 -36 49t-13 64v11q0 31 10.5 58t29.5 46t45 30t57 11q30 0 55 -10.5t44 -28.5q15 26 40 40.5t54 14.5v-56q-20 0 -41 -6t-34 -15q11 -17 17.5 -38.5t6.5 -45.5v-11zM56 -50q0 -41 32 -64t89 -23q28 0 53 6t44 18t30 30t11 43q0 38 -24 55t-66 17
h-67q-51 0 -76.5 -22t-25.5 -60zM89 289q0 -43 21.5 -73.5t66.5 -30.5t66.5 30.5t21.5 73.5v7q0 43 -21.5 73.5t-66.5 30.5t-66.5 -30.5t-21.5 -73.5v-7zM220 604l61 -121h-41l-53 81l-54 -81h-41l62 121h66z" />
    <glyph glyph-name="Gbreve" unicode="&#x11e;" horiz-adv-x="473" 
d="M231 -10q-91 0 -146 75.5t-55 230.5v38q0 156 54.5 231t148.5 75q48 0 83 -18.5t58 -52t34 -80t11 -101.5v-9h-55v8q0 42 -6.5 79.5t-22 65.5t-40.5 44t-62 16q-38 0 -65.5 -18t-45 -51.5t-26 -81t-8.5 -106.5v-40q0 -59 8.5 -106.5t26 -81t44.5 -51.5t64 -18
q73 0 107 54.5t34 146.5v19h-121v49h174v-307h-46l-8 87q-15 -45 -50 -71t-90 -26zM236 663q-44 0 -65 28.5t-21 92.5h44q0 -36 7.5 -56.5t34.5 -20.5q26 0 33.5 20.5t7.5 56.5h44q0 -64 -21 -92.5t-64 -28.5z" />
    <glyph glyph-name="gbreve" unicode="&#x11f;" horiz-adv-x="361" 
d="M319 287q0 -32 -10.5 -58.5t-29.5 -45.5t-45 -30t-57 -11q-40 0 -69 16q-12 -8 -19.5 -18t-7.5 -24q0 -34 41 -34h106q66 0 102 -29.5t36 -86.5q0 -38 -16 -65t-42 -45t-60 -26.5t-71 -8.5q-78 0 -126.5 32t-48.5 91q0 35 20.5 60t56.5 36q-25 8 -35 25t-10 37
q0 24 13 41t37 31q-23 20 -36 49t-13 64v11q0 31 10.5 58t29.5 46t45 30t57 11q30 0 55 -10.5t44 -28.5q15 26 40 40.5t54 14.5v-56q-20 0 -41 -6t-34 -15q11 -17 17.5 -38.5t6.5 -45.5v-11zM56 -50q0 -41 32 -64t89 -23q28 0 53 6t44 18t30 30t11 43q0 38 -24 55t-66 17
h-67q-51 0 -76.5 -22t-25.5 -60zM89 289q0 -43 21.5 -73.5t66.5 -30.5t66.5 30.5t21.5 73.5v7q0 43 -21.5 73.5t-66.5 30.5t-66.5 -30.5t-21.5 -73.5v-7zM187 488q-44 0 -65 28.5t-21 92.5h44q0 -36 7.5 -56.5t34.5 -20.5q26 0 33.5 20.5t7.5 56.5h44q0 -64 -21 -92.5
t-64 -28.5z" />
    <glyph glyph-name="Gdotaccent" unicode="&#x120;" horiz-adv-x="473" 
d="M231 -10q-91 0 -146 75.5t-55 230.5v38q0 156 54.5 231t148.5 75q48 0 83 -18.5t58 -52t34 -80t11 -101.5v-9h-55v8q0 42 -6.5 79.5t-22 65.5t-40.5 44t-62 16q-38 0 -65.5 -18t-45 -51.5t-26 -81t-8.5 -106.5v-40q0 -59 8.5 -106.5t26 -81t44.5 -51.5t64 -18
q73 0 107 54.5t34 146.5v19h-121v49h174v-307h-46l-8 87q-15 -45 -50 -71t-90 -26zM205 764h60v-71h-60v71z" />
    <glyph glyph-name="gdotaccent" unicode="&#x121;" horiz-adv-x="361" 
d="M319 287q0 -32 -10.5 -58.5t-29.5 -45.5t-45 -30t-57 -11q-40 0 -69 16q-12 -8 -19.5 -18t-7.5 -24q0 -34 41 -34h106q66 0 102 -29.5t36 -86.5q0 -38 -16 -65t-42 -45t-60 -26.5t-71 -8.5q-78 0 -126.5 32t-48.5 91q0 35 20.5 60t56.5 36q-25 8 -35 25t-10 37
q0 24 13 41t37 31q-23 20 -36 49t-13 64v11q0 31 10.5 58t29.5 46t45 30t57 11q30 0 55 -10.5t44 -28.5q15 26 40 40.5t54 14.5v-56q-20 0 -41 -6t-34 -15q11 -17 17.5 -38.5t6.5 -45.5v-11zM56 -50q0 -41 32 -64t89 -23q28 0 53 6t44 18t30 30t11 43q0 38 -24 55t-66 17
h-67q-51 0 -76.5 -22t-25.5 -60zM89 289q0 -43 21.5 -73.5t66.5 -30.5t66.5 30.5t21.5 73.5v7q0 43 -21.5 73.5t-66.5 30.5t-66.5 -30.5t-21.5 -73.5v-7zM156 589h60v-71h-60v71z" />
    <glyph glyph-name="Gcommaaccent" unicode="&#x122;" horiz-adv-x="473" 
d="M231 -10q-91 0 -146 75.5t-55 230.5v38q0 156 54.5 231t148.5 75q48 0 83 -18.5t58 -52t34 -80t11 -101.5v-9h-55v8q0 42 -6.5 79.5t-22 65.5t-40.5 44t-62 16q-38 0 -65.5 -18t-45 -51.5t-26 -81t-8.5 -106.5v-40q0 -59 8.5 -106.5t26 -81t44.5 -51.5t64 -18
q73 0 107 54.5t34 146.5v19h-121v49h174v-307h-46l-8 87q-15 -45 -50 -71t-90 -26zM206 -43h62v-41q0 -14 -2.5 -27.5t-10 -24t-20.5 -17t-34 -6.5v28q17 0 23.5 9t7.5 28h-26v51z" />
    <glyph glyph-name="gcommaaccent" unicode="&#x123;" horiz-adv-x="361" 
d="M319 287q0 -32 -10.5 -58.5t-29.5 -45.5t-45 -30t-57 -11q-40 0 -69 16q-12 -8 -19.5 -18t-7.5 -24q0 -34 41 -34h106q66 0 102 -29.5t36 -86.5q0 -38 -16 -65t-42 -45t-60 -26.5t-71 -8.5q-78 0 -126.5 32t-48.5 91q0 35 20.5 60t56.5 36q-25 8 -35 25t-10 37
q0 24 13 41t37 31q-23 20 -36 49t-13 64v11q0 31 10.5 58t29.5 46t45 30t57 11q30 0 55 -10.5t44 -28.5q15 26 40 40.5t54 14.5v-56q-20 0 -41 -6t-34 -15q11 -17 17.5 -38.5t6.5 -45.5v-11zM56 -50q0 -41 32 -64t89 -23q28 0 53 6t44 18t30 30t11 43q0 38 -24 55t-66 17
h-67q-51 0 -76.5 -22t-25.5 -60zM89 289q0 -43 21.5 -73.5t66.5 -30.5t66.5 30.5t21.5 73.5v7q0 43 -21.5 73.5t-66.5 30.5t-66.5 -30.5t-21.5 -73.5v-7zM218 503h-62v41q0 14 2.5 27.5t10 24t20.5 17t34 6.5v-28q-17 0 -23.5 -9t-7.5 -28h26v-51z" />
    <glyph glyph-name="Hcircumflex" unicode="&#x124;" horiz-adv-x="500" 
d="M56 0v630h58v-279h272v279h58v-630h-58v303h-272v-303h-58zM286 784l61 -121h-43l-53 81l-54 -81h-43l62 121h70z" />
    <glyph glyph-name="hcircumflex" unicode="&#x125;" horiz-adv-x="398" 
d="M107 370q11 30 41 51.5t74 21.5q63 0 96 -37.5t33 -101.5v-304h-56v294q0 103 -88 103q-44 0 -72 -32.5t-28 -90.5v-274h-56v630h56v-260zM235 784l61 -121h-43l-53 81l-54 -81h-43l62 121h70z" />
    <glyph glyph-name="Hbar" unicode="&#x126;" horiz-adv-x="498" 
d="M15 503h40v127h58v-127h272v127h58v-127h40v-44h-40v-459h-58v303h-272v-303h-58v459h-40v44zM385 351v108h-272v-108h272z" />
    <glyph glyph-name="hbar" unicode="&#x127;" horiz-adv-x="398" 
d="M10 541h41v89h56v-89h90v-38h-90v-133q11 30 41 51.5t74 21.5q63 0 96 -37.5t33 -101.5v-304h-56v294q0 103 -88 103q-44 0 -72 -32.5t-28 -90.5v-274h-56v503h-41v38z" />
    <glyph glyph-name="Itilde" unicode="&#x128;" horiz-adv-x="170" 
d="M114 630v-630h-58v630h58zM-20 671q0 51 14.5 78t45.5 27q16 0 28 -9t22 -19.5t19 -19t19 -8.5q14 0 18.5 13t5.5 42h39q0 -51 -14.5 -78t-45.5 -27q-16 0 -28 8.5t-22 19t-19 19.5t-19 9q-14 0 -18.5 -13t-5.5 -42h-39z" />
    <glyph glyph-name="itilde" unicode="&#x129;" horiz-adv-x="158" 
d="M-16 496q0 103 60 103q16 0 25.5 -9t16.5 -19.5t13 -19t16 -8.5q14 0 18.5 13t5.5 42h36q0 -103 -60 -103q-16 0 -25.5 8.5t-16.5 19l-13 19.5t-16 9q-14 0 -18.5 -13t-5.5 -42h-36zM107 434v-434h-56v434h56z" />
    <glyph glyph-name="Imacron" unicode="&#x12a;" horiz-adv-x="170" 
d="M114 630v-630h-58v630h58zM3 730h165v-48h-165v48z" />
    <glyph glyph-name="imacron" unicode="&#x12b;" horiz-adv-x="158" 
d="M107 434v-434h-56v434h56zM8.6377 555h140.004v-48h-140.004v48z" />
    <glyph glyph-name="Ibreve" unicode="&#x12c;" horiz-adv-x="170" 
d="M114 630v-630h-58v630h58zM86 663q-44 0 -65 28.5t-21 92.5h44q0 -36 7.5 -56.5t34.5 -20.5q26 0 33.5 20.5t7.5 56.5h44q0 -64 -21 -92.5t-64 -28.5z" />
    <glyph glyph-name="ibreve" unicode="&#x12d;" horiz-adv-x="158" 
d="M80 488q-39 0 -58.5 28.5t-19.5 92.5h42q0 -36 6.5 -56.5t29.5 -20.5t28.5 20.5t5.5 56.5h42q0 -64 -18.5 -92.5t-57.5 -28.5zM107 434v-434h-56v434h56z" />
    <glyph glyph-name="Iogonek" unicode="&#x12e;" horiz-adv-x="170" 
d="M114 630v-630q-28 -28 -38.5 -50t-10.5 -43q0 -17 6.5 -27t20.5 -10q4 0 10 1t12 3v-37q-9 -5 -16 -7t-17 -2q-28 0 -44.5 18.5t-16.5 50.5q0 29 13.5 54.5t36.5 48.5h-14v630h58z" />
    <glyph glyph-name="iogonek" unicode="&#x12f;" horiz-adv-x="158" 
d="M49 589h60v-71h-60v71zM51 0v434h56v-434q-28 -28 -38.5 -50t-10.5 -43q0 -17 6.5 -27t20.5 -10q4 0 10 1t12 3v-37q-9 -5 -16 -7t-17 -2q-28 0 -44.5 18.5t-16.5 50.5q0 29 13.5 54.5t36.5 48.5h-12z" />
    <glyph glyph-name="Idotaccent" unicode="&#x130;" horiz-adv-x="170" 
d="M114 630v-630h-58v630h58zM55 764h60v-71h-60v71z" />
    <glyph glyph-name="dotlessi" unicode="&#x131;" horiz-adv-x="158" 
d="M107 434v-434h-56v434h56z" />
    <glyph glyph-name="IJ" unicode="&#x132;" horiz-adv-x="529" 
d="M114 630v-630h-58v630h58zM481 630v-459q0 -84 -42.5 -132.5t-114.5 -48.5q-36 0 -65 13t-50 36.5t-32 57t-11 74.5v60h55v-60q0 -66 27.5 -100t75.5 -34t74 34t26 100v459h57z" />
    <glyph glyph-name="ij" unicode="&#x133;" horiz-adv-x="306" 
d="M107 434v-434h-56v434h56zM49 589h60v-71h-60v71zM255 -77q0 -48 -19.5 -75t-70.5 -27q-17 0 -31.5 4.5t-22.5 9.5l9 42q8 -4 21 -7t24 -3q23 0 28.5 13t5.5 36v518h56v-511zM197 589h60v-71h-60v71z" />
    <glyph glyph-name="Jcircumflex" unicode="&#x134;" horiz-adv-x="379" 
d="M331 630v-459q0 -84 -42.5 -132.5t-114.5 -48.5q-36 0 -65 13t-50 36.5t-32 57t-11 74.5v60h55v-60q0 -66 27.5 -100t75.5 -34t74 34t26 100v459h57zM337 784l61 -121h-43l-53 81l-54 -81h-43l62 121h70z" />
    <glyph glyph-name="jcircumflex" unicode="&#x135;" horiz-adv-x="158" 
d="M114 609l51 -121h-42l-43 81l-44 -81h-42l52 121h68zM107 -77q0 -48 -19.5 -75t-70.5 -27q-17 0 -31.5 4.5t-22.5 9.5l9 42q8 -4 21 -7t24 -3q23 0 28.5 13t5.5 36v518h56v-511z" />
    <glyph glyph-name="Kcommaaccent" unicode="&#x136;" horiz-adv-x="429" 
d="M365 0l-188 295l-63 -87v-208h-58v630h58v-348l242 348h62l-203 -288l214 -342h-64zM193 -43h62v-41q0 -14 -2.5 -27.5t-10 -24t-20.5 -17t-34 -6.5v28q17 0 23.5 9t7.5 28h-26v51z" />
    <glyph glyph-name="kcommaaccent" unicode="&#x137;" horiz-adv-x="362" 
d="M107 0h-56v630h56v-416l181 220h63l-164 -194l170 -240h-64l-144 201l-42 -50v-151zM159 -43h62v-41q0 -14 -2.5 -27.5t-10 -24t-20.5 -17t-34 -6.5v28q17 0 23.5 9t7.5 28h-26v51z" />
    <glyph glyph-name="kgreenlandic" unicode="&#x138;" horiz-adv-x="362" 
d="M107 0h-56v434h56v-220l181 220h63l-164 -194l170 -240h-64l-144 201l-42 -50v-151z" />
    <glyph glyph-name="Lacute" unicode="&#x139;" horiz-adv-x="385" 
d="M114 630v-581h256v-49h-314v630h58zM70 666l33 121h73l-76 -121h-30z" />
    <glyph glyph-name="lacute" unicode="&#x13a;" horiz-adv-x="158" 
d="M107 630v-630h-56v630h56zM64 666l33 121h73l-76 -121h-30z" />
    <glyph glyph-name="Lcommaaccent" unicode="&#x13b;" horiz-adv-x="385" 
d="M114 630v-581h256v-49h-314v630h58zM184 -43h62v-41q0 -14 -2.5 -27.5t-10 -24t-20.5 -17t-34 -6.5v28q17 0 23.5 9t7.5 28h-26v51z" />
    <glyph glyph-name="lcommaaccent" unicode="&#x13c;" horiz-adv-x="158" 
d="M107 630v-630h-56v630h56zM50 -43h62v-41q0 -14 -2.5 -27.5t-10 -24t-20.5 -17t-34 -6.5v28q17 0 23.5 9t7.5 28h-26v51z" />
    <glyph glyph-name="Lcaron" unicode="&#x13d;" horiz-adv-x="385" 
d="M114 630v-581h256v-49h-314v630h58zM226 504l16 126h71l-59 -126h-28z" />
    <glyph glyph-name="lcaron" unicode="&#x13e;" horiz-adv-x="158" 
d="M107 630v-630h-56v630h56zM141 504l16 126h71l-59 -126h-28z" />
    <glyph glyph-name="Ldot" unicode="&#x13f;" horiz-adv-x="385" 
d="M114 630v-581h256v-49h-314v630h58zM268 313h60v-71h-60v71z" />
    <glyph glyph-name="ldot" unicode="&#x140;" horiz-adv-x="218" 
d="M107 630v-630h-56v630h56zM158 313h60v-71h-60v71z" />
    <glyph glyph-name="Lslash" unicode="&#x141;" horiz-adv-x="385" 
d="M15 267l40 19v344h58v-317l120 60v-50l-120 -60v-214h256v-49h-314v236l-40 -19v50z" />
    <glyph glyph-name="lslash" unicode="&#x142;" horiz-adv-x="176" 
d="M6 302l54 31v297h56v-270l54 32v-48l-54 -31v-313h-56v285l-54 -31v48z" />
    <glyph glyph-name="Nacute" unicode="&#x143;" horiz-adv-x="479" 
d="M365 119h4v511h54v-630h-52l-257 522h-4v-522h-54v630h58zM228 666l33 121h73l-76 -121h-30z" />
    <glyph glyph-name="nacute" unicode="&#x144;" horiz-adv-x="398" 
d="M107 0h-56v434h56v-64q11 30 41 51.5t74 21.5q63 0 96 -37.5t33 -101.5v-304h-56v294q0 103 -88 103q-44 0 -72 -32.5t-28 -90.5v-274zM190 491l33 121h73l-76 -121h-30z" />
    <glyph glyph-name="Ncommaaccent" unicode="&#x145;" horiz-adv-x="479" 
d="M365 119h4v511h54v-630h-52l-257 522h-4v-522h-54v630h58zM214 -43h62v-41q0 -14 -2.5 -27.5t-10 -24t-20.5 -17t-34 -6.5v28q17 0 23.5 9t7.5 28h-26v51z" />
    <glyph glyph-name="ncommaaccent" unicode="&#x146;" horiz-adv-x="398" 
d="M107 0h-56v434h56v-64q11 30 41 51.5t74 21.5q63 0 96 -37.5t33 -101.5v-304h-56v294q0 103 -88 103q-44 0 -72 -32.5t-28 -90.5v-274zM178 -43h62v-41q0 -14 -2.5 -27.5t-10 -24t-20.5 -17t-34 -6.5v28q17 0 23.5 9t7.5 28h-26v51z" />
    <glyph glyph-name="Ncaron" unicode="&#x147;" horiz-adv-x="479" 
d="M365 119h4v511h54v-630h-52l-257 522h-4v-522h-54v630h58zM209 666l-62 121h43l54 -81l53 81h43l-61 -121h-70z" />
    <glyph glyph-name="ncaron" unicode="&#x148;" horiz-adv-x="398" 
d="M107 0h-56v434h56v-64q11 30 41 51.5t74 21.5q63 0 96 -37.5t33 -101.5v-304h-56v294q0 103 -88 103q-44 0 -72 -32.5t-28 -90.5v-274zM175 491l-62 121h41l54 -81l53 81h41l-61 -121h-66z" />
    <glyph glyph-name="Eng" unicode="&#x14a;" horiz-adv-x="479" 
d="M114 522h-4v-522h-54v630h58l251 -511h4v511h54v-643q0 -78 -35 -116t-91 -38q-47 0 -78.5 23.5t-48.5 60.5l35 27q14 -28 36 -46.5t56 -18.5q39 0 57.5 26t18.5 95z" />
    <glyph glyph-name="eng" unicode="&#x14b;" horiz-adv-x="398" 
d="M107 0h-56v434h56v-64q11 30 41 51.5t74 21.5q63 0 96 -37.5t33 -101.5v-381q0 -48 -19.5 -75t-70.5 -27q-17 0 -31.5 4.5t-22.5 9.5l9 42q8 -4 21 -7t24 -3q23 0 28.5 13t5.5 36v378q0 103 -88 103q-44 0 -72 -32.5t-28 -90.5v-274z" />
    <glyph glyph-name="Omacron" unicode="&#x14c;" horiz-adv-x="464" 
d="M434 300q0 -156 -52.5 -233t-149.5 -77t-149.5 77t-52.5 233v30q0 156 52.5 233t149.5 77t149.5 -77t52.5 -233v-30zM376 331q0 59 -7.5 107.5t-25 82.5t-45 52.5t-66.5 18.5t-66.5 -18.5t-45 -52.5t-25 -82.5t-7.5 -107.5v-32q0 -59 7.5 -107.5t25 -82.5t45 -52.5
t66.5 -18.5t66.5 18.5t45 52.5t25 82.5t7.5 107.5v32zM150 730h165v-48h-165v48z" />
    <glyph glyph-name="omacron" unicode="&#x14d;" horiz-adv-x="376" 
d="M188 36q50 0 78 40t28 134v14q0 94 -28 134t-78 40t-78 -40t-28 -134v-14q0 -94 28 -134t78 -40zM188 -9q-73 0 -117.5 54.5t-44.5 159.5v24q0 105 44.5 159.5t117.5 54.5t117.5 -54.5t44.5 -159.5v-24q0 -105 -44.5 -159.5t-117.5 -54.5zM106 555h165v-48h-165v48z" />
    <glyph glyph-name="Obreve" unicode="&#x14e;" horiz-adv-x="464" 
d="M434 300q0 -156 -52.5 -233t-149.5 -77t-149.5 77t-52.5 233v30q0 156 52.5 233t149.5 77t149.5 -77t52.5 -233v-30zM376 331q0 59 -7.5 107.5t-25 82.5t-45 52.5t-66.5 18.5t-66.5 -18.5t-45 -52.5t-25 -82.5t-7.5 -107.5v-32q0 -59 7.5 -107.5t25 -82.5t45 -52.5
t66.5 -18.5t66.5 18.5t45 52.5t25 82.5t7.5 107.5v32zM233 663q-44 0 -65 28.5t-21 92.5h44q0 -36 7.5 -56.5t34.5 -20.5q26 0 33.5 20.5t7.5 56.5h44q0 -64 -21 -92.5t-64 -28.5z" />
    <glyph glyph-name="obreve" unicode="&#x14f;" horiz-adv-x="376" 
d="M188 36q50 0 78 40t28 134v14q0 94 -28 134t-78 40t-78 -40t-28 -134v-14q0 -94 28 -134t78 -40zM188 -9q-73 0 -117.5 54.5t-44.5 159.5v24q0 105 44.5 159.5t117.5 54.5t117.5 -54.5t44.5 -159.5v-24q0 -105 -44.5 -159.5t-117.5 -54.5zM189 488q-44 0 -65 28.5
t-21 92.5h44q0 -36 7.5 -56.5t34.5 -20.5q26 0 33.5 20.5t7.5 56.5h44q0 -64 -21 -92.5t-64 -28.5z" />
    <glyph glyph-name="Ohungarumlaut" unicode="&#x150;" horiz-adv-x="464" 
d="M434 300q0 -156 -52.5 -233t-149.5 -77t-149.5 77t-52.5 233v30q0 156 52.5 233t149.5 77t149.5 -77t52.5 -233v-30zM376 331q0 59 -7.5 107.5t-25 82.5t-45 52.5t-66.5 18.5t-66.5 -18.5t-45 -52.5t-25 -82.5t-7.5 -107.5v-32q0 -59 7.5 -107.5t25 -82.5t45 -52.5
t66.5 -18.5t66.5 18.5t45 52.5t25 82.5t7.5 107.5v32zM167 666l35 121h70l-78 -121h-27zM258 666l34 121h70l-78 -121h-26z" />
    <glyph glyph-name="ohungarumlaut" unicode="&#x151;" horiz-adv-x="376" 
d="M188 36q50 0 78 40t28 134v14q0 94 -28 134t-78 40t-78 -40t-28 -134v-14q0 -94 28 -134t78 -40zM188 -9q-73 0 -117.5 54.5t-44.5 159.5v24q0 105 44.5 159.5t117.5 54.5t117.5 -54.5t44.5 -159.5v-24q0 -105 -44.5 -159.5t-117.5 -54.5zM125 491l35 121h70l-78 -121
h-27zM216 491l34 121h70l-78 -121h-26z" />
    <glyph glyph-name="OE" unicode="&#x152;" horiz-adv-x="636" 
d="M285 0q-58 0 -105 16.5t-80.5 52t-51.5 91t-18 134.5v42q0 79 18 134.5t51.5 91t80.5 52t105 16.5h325v-49h-242v-230h195v-48h-195v-254h248v-49h-331zM312 582h-22q-46 0 -83.5 -11.5t-63.5 -40t-40.5 -75.5t-14.5 -118v-44q0 -71 14.5 -118t40.5 -75.5t63.5 -40
t83.5 -11.5h22v534z" />
    <glyph glyph-name="oe" unicode="&#x153;" horiz-adv-x="632" 
d="M188 443q43 0 78 -21.5t55 -60.5q20 39 54.5 60.5t76.5 21.5q75 0 114.5 -54.5t39.5 -159.5v-23h-260q0 -90 28.5 -129.5t77.5 -39.5t73 28.5t27 92.5h51q-2 -75 -39 -121t-112 -46q-43 0 -78 21.5t-55 62.5q-20 -39 -54 -61.5t-77 -22.5q-73 0 -117.5 54.5t-44.5 159.5
v24q0 105 44.5 159.5t117.5 54.5zM188 36q50 0 78 40t28 134v14q0 94 -28 134t-78 40t-78 -40t-28 -134v-14q0 -94 28 -134t78 -40zM552 248q-2 79 -27 114t-73 35q-46 0 -74.5 -34.5t-30.5 -114.5h205z" />
    <glyph glyph-name="Racute" unicode="&#x154;" horiz-adv-x="441" 
d="M358 0q-5 11 -9 24t-7.5 30.5t-6 41t-4.5 55.5q-2 33 -7.5 56.5t-18 38.5t-33.5 22t-54 7h-105v-275h-57v630h165q48 0 84 -13t59 -36.5t34.5 -55.5t11.5 -70q0 -67 -31 -107t-81 -50q52 -14 70.5 -51.5t20.5 -92.5q3 -56 9 -91t22 -63h-62zM218 323q74 0 103 32.5
t29 97.5q0 59 -29 93.5t-103 34.5h-105v-258h105zM201 666l33 121h73l-76 -121h-30z" />
    <glyph glyph-name="racute" unicode="&#x155;" 
d="M241 386q-8 2 -17.5 3.5t-21.5 1.5q-45 0 -70 -31t-25 -97v-263h-56v434h56v-71q11 37 37.5 57.5t64.5 20.5q21 0 36 -5zM131 491l33 121h73l-76 -121h-30z" />
    <glyph glyph-name="Rcommaaccent" unicode="&#x156;" horiz-adv-x="441" 
d="M358 0q-5 11 -9 24t-7.5 30.5t-6 41t-4.5 55.5q-2 33 -7.5 56.5t-18 38.5t-33.5 22t-54 7h-105v-275h-57v630h165q48 0 84 -13t59 -36.5t34.5 -55.5t11.5 -70q0 -67 -31 -107t-81 -50q52 -14 70.5 -51.5t20.5 -92.5q3 -56 9 -91t22 -63h-62zM218 323q74 0 103 32.5
t29 97.5q0 59 -29 93.5t-103 34.5h-105v-258h105zM197 -43h62v-41q0 -14 -2.5 -27.5t-10 -24t-20.5 -17t-34 -6.5v28q17 0 23.5 9t7.5 28h-26v51z" />
    <glyph glyph-name="rcommaaccent" unicode="&#x157;" 
d="M241 386q-8 2 -17.5 3.5t-21.5 1.5q-45 0 -70 -31t-25 -97v-263h-56v434h56v-71q11 37 37.5 57.5t64.5 20.5q21 0 36 -5zM51 -43h62v-41q0 -14 -2.5 -27.5t-10 -24t-20.5 -17t-34 -6.5v28q17 0 23.5 9t7.5 28h-26v51z" />
    <glyph glyph-name="Rcaron" unicode="&#x158;" horiz-adv-x="441" 
d="M358 0q-5 11 -9 24t-7.5 30.5t-6 41t-4.5 55.5q-2 33 -7.5 56.5t-18 38.5t-33.5 22t-54 7h-105v-275h-57v630h165q48 0 84 -13t59 -36.5t34.5 -55.5t11.5 -70q0 -67 -31 -107t-81 -50q52 -14 70.5 -51.5t20.5 -92.5q3 -56 9 -91t22 -63h-62zM218 323q74 0 103 32.5
t29 97.5q0 59 -29 93.5t-103 34.5h-105v-258h105zM182 666l-62 121h43l54 -81l53 81h43l-61 -121h-70z" />
    <glyph glyph-name="rcaron" unicode="&#x159;" 
d="M241 386q-8 2 -17.5 3.5t-21.5 1.5q-45 0 -70 -31t-25 -97v-263h-56v434h56v-71q11 37 37.5 57.5t64.5 20.5q21 0 36 -5zM116 491l-62 121h41l54 -81l53 81h41l-61 -121h-66z" />
    <glyph glyph-name="Sacute" unicode="&#x15a;" horiz-adv-x="400" 
d="M28 478q0 36 11.5 65.5t33 51t52 33.5t68.5 12q46 0 80 -15t55.5 -40.5t32 -60t10.5 -72.5v-29h-53v30q0 61 -30.5 100.5t-94.5 39.5q-52 0 -80.5 -30.5t-28.5 -84.5q0 -45 22 -70.5t63 -42.5l81 -35q64 -28 97 -67.5t33 -107.5q0 -35 -11.5 -65.5t-33 -52.5t-53.5 -34.5
t-72 -12.5q-93 0 -141.5 53t-48.5 154v21h53v-20q0 -82 36.5 -121.5t100.5 -39.5q54 0 84 30t30 88q0 49 -26 77t-75 48l-73 30q-58 24 -90 62.5t-32 105.5zM185 666l33 121h73l-76 -121h-30z" />
    <glyph glyph-name="sacute" unicode="&#x15b;" horiz-adv-x="337" 
d="M71 144q2 -56 30.5 -82.5t73.5 -26.5q41 0 62.5 20t21.5 54q0 31 -17.5 45.5t-57.5 28.5l-50 18q-46 17 -73.5 43t-27.5 78q0 55 36 88t93 33q74 0 109 -42.5t35 -108.5h-49q-1 48 -23.5 77.5t-71.5 29.5q-36 0 -57 -19.5t-21 -54.5q0 -32 19 -47.5t54 -28.5l47 -17
q25 -9 45 -19.5t33.5 -24.5t20.5 -32.5t7 -43.5q0 -54 -35.5 -87.5t-99.5 -33.5q-66 0 -109.5 38.5t-43.5 114.5h49zM149 491l33 121h73l-76 -121h-30z" />
    <glyph glyph-name="Scircumflex" unicode="&#x15c;" horiz-adv-x="400" 
d="M28 478q0 36 11.5 65.5t33 51t52 33.5t68.5 12q46 0 80 -15t55.5 -40.5t32 -60t10.5 -72.5v-29h-53v30q0 61 -30.5 100.5t-94.5 39.5q-52 0 -80.5 -30.5t-28.5 -84.5q0 -45 22 -70.5t63 -42.5l81 -35q64 -28 97 -67.5t33 -107.5q0 -35 -11.5 -65.5t-33 -52.5t-53.5 -34.5
t-72 -12.5q-93 0 -141.5 53t-48.5 154v21h53v-20q0 -82 36.5 -121.5t100.5 -39.5q54 0 84 30t30 88q0 49 -26 77t-75 48l-73 30q-58 24 -90 62.5t-32 105.5zM236 784l61 -121h-43l-53 81l-54 -81h-43l62 121h70z" />
    <glyph glyph-name="scircumflex" unicode="&#x15d;" horiz-adv-x="337" 
d="M71 144q2 -56 30.5 -82.5t73.5 -26.5q41 0 62.5 20t21.5 54q0 31 -17.5 45.5t-57.5 28.5l-50 18q-46 17 -73.5 43t-27.5 78q0 55 36 88t93 33q74 0 109 -42.5t35 -108.5h-49q-1 48 -23.5 77.5t-71.5 29.5q-36 0 -57 -19.5t-21 -54.5q0 -32 19 -47.5t54 -28.5l47 -17
q25 -9 45 -19.5t33.5 -24.5t20.5 -32.5t7 -43.5q0 -54 -35.5 -87.5t-99.5 -33.5q-66 0 -109.5 38.5t-43.5 114.5h49zM200 604l61 -121h-41l-53 81l-54 -81h-41l62 121h66z" />
    <glyph glyph-name="Scedilla" unicode="&#x15e;" horiz-adv-x="400" 
d="M284 -105q0 -35 -24.5 -52.5t-54.5 -17.5q-27 0 -47 9.5t-33 23.5l14 36q12 -14 29 -22t37 -8q15 0 25.5 6.5t10.5 22.5q0 23 -24 29.5t-56 4.5l18 65q-78 8 -118.5 60t-40.5 145v21h53v-20q0 -82 36.5 -121.5t100.5 -39.5q54 0 84 30t30 88q0 49 -26 77t-75 48l-73 30
q-58 24 -90 62.5t-32 105.5q0 36 11.5 65.5t33 51t52 33.5t68.5 12q46 0 80 -15t55.5 -40.5t32 -60t10.5 -72.5v-29h-53v30q0 61 -30.5 100.5t-94.5 39.5q-52 0 -80.5 -30.5t-28.5 -84.5q0 -45 22 -70.5t63 -42.5l81 -35q64 -28 97 -67.5t33 -107.5q0 -71 -44 -117.5
t-125 -47.5l-8 -29q15 0 29.5 -3.5t26 -11t18.5 -20t7 -31.5z" />
    <glyph glyph-name="scedilla" unicode="&#x15f;" horiz-adv-x="337" 
d="M250 -105q0 -35 -24.5 -52.5t-54.5 -17.5q-27 0 -47 9.5t-33 23.5l14 36q12 -14 29 -22t37 -8q15 0 25.5 6.5t10.5 22.5q0 23 -24 29.5t-56 4.5l19 66q-55 8 -89.5 45.5t-34.5 105.5h49q2 -56 30.5 -82.5t73.5 -26.5q41 0 62.5 20t21.5 54q0 31 -17.5 45.5t-57.5 28.5
l-50 18q-46 17 -73.5 43t-27.5 78q0 55 36 88t93 33q74 0 109 -42.5t35 -108.5h-49q-1 48 -23.5 77.5t-71.5 29.5q-36 0 -57 -19.5t-21 -54.5q0 -32 19 -47.5t54 -28.5l47 -17q25 -9 45 -19.5t33.5 -24.5t20.5 -32.5t7 -43.5q0 -54 -35 -87t-98 -34l-8 -30q15 0 29.5 -3.5
t26 -11t18.5 -20t7 -31.5z" />
    <glyph glyph-name="Scaron" unicode="&#x160;" horiz-adv-x="400" 
d="M28 478q0 36 11.5 65.5t33 51t52 33.5t68.5 12q46 0 80 -15t55.5 -40.5t32 -60t10.5 -72.5v-29h-53v30q0 61 -30.5 100.5t-94.5 39.5q-52 0 -80.5 -30.5t-28.5 -84.5q0 -45 22 -70.5t63 -42.5l81 -35q64 -28 97 -67.5t33 -107.5q0 -35 -11.5 -65.5t-33 -52.5t-53.5 -34.5
t-72 -12.5q-93 0 -141.5 53t-48.5 154v21h53v-20q0 -82 36.5 -121.5t100.5 -39.5q54 0 84 30t30 88q0 49 -26 77t-75 48l-73 30q-58 24 -90 62.5t-32 105.5zM166 666l-62 121h43l54 -81l53 81h43l-61 -121h-70z" />
    <glyph glyph-name="scaron" unicode="&#x161;" horiz-adv-x="337" 
d="M71 144q2 -56 30.5 -82.5t73.5 -26.5q41 0 62.5 20t21.5 54q0 31 -17.5 45.5t-57.5 28.5l-50 18q-46 17 -73.5 43t-27.5 78q0 55 36 88t93 33q74 0 109 -42.5t35 -108.5h-49q-1 48 -23.5 77.5t-71.5 29.5q-36 0 -57 -19.5t-21 -54.5q0 -32 19 -47.5t54 -28.5l47 -17
q25 -9 45 -19.5t33.5 -24.5t20.5 -32.5t7 -43.5q0 -54 -35.5 -87.5t-99.5 -33.5q-66 0 -109.5 38.5t-43.5 114.5h49zM134 491l-62 121h41l54 -81l53 81h41l-61 -121h-66z" />
    <glyph glyph-name="Tcommaaccent" unicode="&#x162;" horiz-adv-x="432" 
d="M186 0v581h-171v49h402v-49h-173v-581h-58zM187 -43h62v-41q0 -14 -2.5 -27.5t-10 -24t-20.5 -17t-34 -6.5v28q17 0 23.5 9t7.5 28h-26v51z" />
    <glyph glyph-name="tcommaaccent" unicode="&#x163;" horiz-adv-x="245" 
d="M61 393h-61v28l19 4q15 3 24 8t15 13.5t10 20t7 27.5l13 60h28v-120h107v-41h-107v-293q0 -59 47 -59q21 0 37 7t35 20v-46q-23 -16 -41.5 -22t-42.5 -6q-38 0 -64 22.5t-26 81.5v295zM116 -43h62v-41q0 -14 -2.5 -27.5t-10 -24t-20.5 -17t-34 -6.5v28q17 0 23.5 9
t7.5 28h-26v51z" />
    <glyph glyph-name="Tcaron" unicode="&#x164;" horiz-adv-x="432" 
d="M186 0v581h-171v49h402v-49h-173v-581h-58zM182 666l-62 121h43l54 -81l53 81h43l-61 -121h-70z" />
    <glyph glyph-name="tcaron" unicode="&#x165;" horiz-adv-x="245" 
d="M61 393h-61v28l19 4q15 3 24 8t15 13.5t10 20t7 27.5l13 60h28v-120h107v-41h-107v-293q0 -59 47 -59q21 0 37 7t35 20v-46q-23 -16 -41.5 -22t-42.5 -6q-38 0 -64 22.5t-26 81.5v295zM154 504l16 126h71l-59 -126h-28z" />
    <glyph glyph-name="Tbar" unicode="&#x166;" horiz-adv-x="432" 
d="M86 351h100v230h-171v49h402v-49h-173v-230h100v-48h-100v-303h-58v303h-100v48z" />
    <glyph glyph-name="tbar" unicode="&#x167;" horiz-adv-x="260" 
d="M10 283h61v110h-61v28l19 4q15 3 24 8t15 13.5t10 20t7 27.5l13 60h28v-120h107v-41h-107v-110h107v-41h-107v-142q0 -59 47 -59q21 0 37 7t35 20v-46q-23 -16 -41.5 -22t-42.5 -6q-38 0 -64 22.5t-26 81.5v144h-61v41z" />
    <glyph glyph-name="Utilde" unicode="&#x168;" horiz-adv-x="468" 
d="M234 -10q-40 0 -74 13t-59 39.5t-39 67t-14 95.5v425h58v-426q0 -87 35 -126t93 -39t93 39t35 126v426h58v-425q0 -55 -14 -95.5t-39 -67t-59 -39.5t-74 -13zM129 671q0 51 14.5 78t45.5 27q16 0 28 -9t22 -19.5t19 -19t19 -8.5q14 0 18.5 13t5.5 42h39q0 -51 -14.5 -78
t-45.5 -27q-16 0 -28 8.5t-22 19t-19 19.5t-19 9q-14 0 -18.5 -13t-5.5 -42h-39z" />
    <glyph glyph-name="utilde" unicode="&#x169;" horiz-adv-x="398" 
d="M289 434h56v-434h-56v63q-11 -30 -40.5 -51t-73.5 -21q-63 0 -95.5 37.5t-32.5 101.5v304h56v-294q0 -103 87 -103q44 0 71.5 33.5t27.5 96.5v267zM91 496q0 51 14.5 78t45.5 27q16 0 28 -9t22 -19.5t19 -19t19 -8.5q14 0 18.5 13t5.5 42h39q0 -51 -14.5 -78t-45.5 -27
q-16 0 -28 8.5t-22 19t-19 19.5t-19 9q-14 0 -18.5 -13t-5.5 -42h-39z" />
    <glyph glyph-name="Umacron" unicode="&#x16a;" horiz-adv-x="468" 
d="M234 -10q-40 0 -74 13t-59 39.5t-39 67t-14 95.5v425h58v-426q0 -87 35 -126t93 -39t93 39t35 126v426h58v-425q0 -55 -14 -95.5t-39 -67t-59 -39.5t-74 -13zM152 730h165v-48h-165v48z" />
    <glyph glyph-name="umacron" unicode="&#x16b;" horiz-adv-x="398" 
d="M289 434h56v-434h-56v63q-11 -30 -40.5 -51t-73.5 -21q-63 0 -95.5 37.5t-32.5 101.5v304h56v-294q0 -103 87 -103q44 0 71.5 33.5t27.5 96.5v267zM114 555h165v-48h-165v48z" />
    <glyph glyph-name="Ubreve" unicode="&#x16c;" horiz-adv-x="468" 
d="M234 -10q-40 0 -74 13t-59 39.5t-39 67t-14 95.5v425h58v-426q0 -87 35 -126t93 -39t93 39t35 126v426h58v-425q0 -55 -14 -95.5t-39 -67t-59 -39.5t-74 -13zM235 663q-44 0 -65 28.5t-21 92.5h44q0 -36 7.5 -56.5t34.5 -20.5q26 0 33.5 20.5t7.5 56.5h44
q0 -64 -21 -92.5t-64 -28.5z" />
    <glyph glyph-name="ubreve" unicode="&#x16d;" horiz-adv-x="398" 
d="M289 434h56v-434h-56v63q-11 -30 -40.5 -51t-73.5 -21q-63 0 -95.5 37.5t-32.5 101.5v304h56v-294q0 -103 87 -103q44 0 71.5 33.5t27.5 96.5v267zM197 488q-44 0 -65 28.5t-21 92.5h44q0 -36 7.5 -56.5t34.5 -20.5q26 0 33.5 20.5t7.5 56.5h44q0 -64 -21 -92.5
t-64 -28.5z" />
    <glyph glyph-name="Uring" unicode="&#x16e;" horiz-adv-x="468" 
d="M234 -10q-40 0 -74 13t-59 39.5t-39 67t-14 95.5v425h58v-426q0 -87 35 -126t93 -39t93 39t35 126v426h58v-425q0 -55 -14 -95.5t-39 -67t-59 -39.5t-74 -13zM197 728q0 -17 9.5 -28t28.5 -11q20 0 29.5 11t9.5 28t-9.5 28t-29.5 11q-19 0 -28.5 -11t-9.5 -28zM158 728
q0 31 21 52.5t56 21.5t56 -21.5t21 -52.5q0 -32 -21 -53.5t-56 -21.5t-56 21.5t-21 53.5z" />
    <glyph glyph-name="uring" unicode="&#x16f;" horiz-adv-x="398" 
d="M289 434h56v-434h-56v63q-11 -30 -40.5 -51t-73.5 -21q-63 0 -95.5 37.5t-32.5 101.5v304h56v-294q0 -103 87 -103q44 0 71.5 33.5t27.5 96.5v267zM159 553q0 -17 9.5 -28t28.5 -11q20 0 29.5 11t9.5 28t-9.5 28t-29.5 11q-19 0 -28.5 -11t-9.5 -28zM120 553
q0 31 21 52.5t56 21.5t56 -21.5t21 -52.5q0 -32 -21 -53.5t-56 -21.5t-56 21.5t-21 53.5z" />
    <glyph glyph-name="Uhungarumlaut" unicode="&#x170;" horiz-adv-x="468" 
d="M234 -10q-40 0 -74 13t-59 39.5t-39 67t-14 95.5v425h58v-426q0 -87 35 -126t93 -39t93 39t35 126v426h58v-425q0 -55 -14 -95.5t-39 -67t-59 -39.5t-74 -13zM169 666l35 121h70l-78 -121h-27zM260 666l34 121h70l-78 -121h-26z" />
    <glyph glyph-name="uhungarumlaut" unicode="&#x171;" horiz-adv-x="398" 
d="M289 434h56v-434h-56v63q-11 -30 -40.5 -51t-73.5 -21q-63 0 -95.5 37.5t-32.5 101.5v304h56v-294q0 -103 87 -103q44 0 71.5 33.5t27.5 96.5v267zM133 491l35 121h70l-78 -121h-27zM224 491l34 121h70l-78 -121h-26z" />
    <glyph glyph-name="Uogonek" unicode="&#x172;" horiz-adv-x="468" 
d="M234 -10q-40 0 -74 13t-59 39.5t-39 67t-14 95.5v425h58v-426q0 -87 35 -126t93 -39t93 39t35 126v426h58v-425q0 -38 -5.5 -66.5t-17 -51t-28.5 -41t-40 -36.5q-32 -24 -45 -49.5t-13 -48.5q0 -42 32 -42q13 0 24 4v-37q-18 -9 -38 -9q-28 0 -45.5 18.5t-17.5 50.5
q0 27 11.5 50.5t31.5 45.5q-18 -3 -35 -3z" />
    <glyph glyph-name="uogonek" unicode="&#x173;" horiz-adv-x="398" 
d="M289 0v63q-11 -30 -40.5 -51t-73.5 -21q-63 0 -95.5 37.5t-32.5 101.5v304h56v-294q0 -103 87 -103q44 0 71.5 33.5t27.5 96.5v267h56v-434q-28 -28 -38.5 -50t-10.5 -43q0 -17 6.5 -27t20.5 -10q4 0 10 1t12 3v-37q-9 -5 -16 -7t-17 -2q-28 0 -44.5 18.5t-16.5 50.5
q0 29 13.5 54.5t36.5 48.5h-12z" />
    <glyph glyph-name="Wcircumflex" unicode="&#x174;" horiz-adv-x="590" 
d="M324 630l100 -533h4l96 533h56l-122 -630h-65l-96 528h-4l-96 -528h-65l-122 630h57l96 -533h4l100 533h57zM331 784l61 -121h-43l-53 81l-54 -81h-43l62 121h70z" />
    <glyph glyph-name="wcircumflex" unicode="&#x175;" horiz-adv-x="506" 
d="M360 92h4l81 342h51l-109 -434h-51l-81 348h-4l-81 -348h-51l-109 434h54l82 -342h4l80 342h49zM287 604l61 -121h-41l-53 81l-54 -81h-41l62 121h66z" />
    <glyph glyph-name="Ycircumflex" unicode="&#x176;" horiz-adv-x="416" 
d="M356 630h55l-176 -401v-229h-54v229l-176 401h59l147 -336zM244 784l61 -121h-43l-53 81l-54 -81h-43l62 121h70z" />
    <glyph glyph-name="ycircumflex" unicode="&#x177;" horiz-adv-x="364" 
d="M108 -170l54 170l-152 434h55l123 -355h4l109 355h53l-196 -604h-50zM216 604l61 -121h-41l-53 81l-54 -81h-41l62 121h66z" />
    <glyph glyph-name="Ydieresis" unicode="&#x178;" horiz-adv-x="416" 
d="M356 630h55l-176 -401v-229h-54v229l-176 401h59l147 -336zM129 751h58v-71h-58v71zM231 751h57v-71h-57v71z" />
    <glyph glyph-name="Zacute" unicode="&#x179;" horiz-adv-x="394" 
d="M369 49v-49h-344v38l277 543h-272v49h337v-41l-276 -540h278zM182 666l33 121h73l-76 -121h-30z" />
    <glyph glyph-name="zacute" unicode="&#x17a;" horiz-adv-x="322" 
d="M24 388v46h273v-39l-214 -349h219v-46h-282v39l212 349h-208zM144 491l33 121h73l-76 -121h-30z" />
    <glyph glyph-name="Zdotaccent" unicode="&#x17b;" horiz-adv-x="394" 
d="M369 49v-49h-344v38l277 543h-272v49h337v-41l-276 -540h278zM167 764h60v-71h-60v71z" />
    <glyph glyph-name="zdotaccent" unicode="&#x17c;" horiz-adv-x="322" 
d="M24 388v46h273v-39l-214 -349h219v-46h-282v39l212 349h-208zM131 589h60v-71h-60v71z" />
    <glyph glyph-name="Zcaron" unicode="&#x17d;" horiz-adv-x="394" 
d="M369 49v-49h-344v38l277 543h-272v49h337v-41l-276 -540h278zM163 666l-62 121h43l54 -81l53 81h43l-61 -121h-70z" />
    <glyph glyph-name="zcaron" unicode="&#x17e;" horiz-adv-x="322" 
d="M24 388v46h273v-39l-214 -349h219v-46h-282v39l212 349h-208zM129 491l-62 121h41l54 -81l53 81h41l-61 -121h-66z" />
    <glyph glyph-name="florin" unicode="&#x192;" horiz-adv-x="378" 
d="M221 377h104v-44h-113l-60 -293q-6 -29 -14.5 -53.5t-23 -42.5t-35.5 -28.5t-52 -10.5q-8 0 -17 1t-19 3v45q15 -3 26 -3q36 0 55.5 23.5t27.5 68.5l60 290h-82v44h91l27 131q6 27 16 51t25.5 42t37 28.5t49.5 10.5q20 0 44 -6v-43q-10 2 -18.5 3.5t-16.5 1.5
q-36 0 -56 -24t-29 -67z" />
    <glyph glyph-name="Aringacute" unicode="&#x1fa;" horiz-adv-x="469" 
d="M223 787l19 79h62l-53 -79h-28zM202 711q0 -31 32 -31t32 31t-32 31t-32 -31zM165 711q0 26 18.5 44t50.5 18t50.5 -18t18.5 -44t-18.5 -44t-50.5 -18t-50.5 18t-18.5 44zM269 630l190 -630h-58l-61 207h-214l-61 -207h-55l190 630h69zM140 256h186l-91 309h-4z" />
    <glyph glyph-name="aringacute" unicode="&#x1fb;" horiz-adv-x="368" 
d="M145 520q0 -31 32 -31t32 31t-32 31t-32 -31zM108 520q0 26 18.5 44t50.5 18t50.5 -18t18.5 -44t-18.5 -44t-50.5 -18t-50.5 18t-18.5 44zM166 596l19 79h62l-53 -79h-28zM255 241l-104 -50q-36 -17 -55 -36.5t-19 -52.5q0 -32 18 -48t49 -16q49 0 80 37t31 105v61z
M308 74q0 -20 8.5 -26.5t17.5 -6.5q8 0 13.5 1t13.5 5v-38q-17 -14 -42 -14q-26 0 -44.5 19t-21.5 51q-14 -29 -44 -50.5t-76 -21.5q-50 0 -80.5 28t-30.5 79q0 27 9 46.5t24.5 35t36 27.5t44.5 23l119 55v12q0 41 -17 69.5t-63 28.5q-43 0 -64 -24.5t-21 -70.5v-11h-52v13
q0 63 36 101t101 38q38 0 63.5 -11.5t41 -31t22 -45t6.5 -53.5v-228z" />
    <glyph glyph-name="AEacute" unicode="&#x1fc;" horiz-adv-x="668" 
d="M344 217h-175l-104 -217h-55l305 630h327v-49h-242v-230h195v-48h-195v-254h248v-49h-304v217zM192 266h152v307h-4zM418 666l33 121h73l-76 -121h-30z" />
    <glyph glyph-name="aeacute" unicode="&#x1fd;" horiz-adv-x="592" 
d="M306 204q0 -90 28.5 -128.5t77.5 -38.5t73 28.5t27 92.5h51q-1 -37 -10.5 -68t-28 -53t-46.5 -34t-65 -12q-50 0 -83.5 25t-50.5 73q-11 -41 -45 -69t-85 -28q-57 0 -92 34.5t-35 89.5q0 63 46.5 96.5t120.5 33.5h66v53q0 42 -18.5 70t-61.5 28t-64 -24.5t-21 -70.5v-11
h-52v13q0 63 36 101t101 38q44 0 72 -20t42 -52q19 32 51 52t72 20q75 0 114.5 -54.5t39.5 -159.5v-25h-260zM512 246q-2 79 -27 115t-73 36q-46 0 -76 -35t-30 -116h206zM150 37q48 0 76.5 37.5t28.5 105.5v24h-62q-50 0 -83 -20.5t-33 -65.5q0 -38 19 -59.5t54 -21.5z
M277 491l33 121h73l-76 -121h-30z" />
    <glyph glyph-name="Oslashacute" unicode="&#x1fe;" horiz-adv-x="464" 
d="M80 72q-50 77 -50 228v30q0 156 52.5 233t149.5 77q78 0 126 -50l28 52l37 -22l-36 -67q23 -39 35 -94.5t12 -128.5v-30q0 -156 -52.5 -233t-149.5 -77q-76 0 -123 46l-31 -59l-37 22zM88 299q0 -51 5.5 -93.5t17.5 -75.5l220 410q-17 25 -41.5 38.5t-57.5 13.5
q-39 0 -66.5 -18.5t-45 -52.5t-25 -82.5t-7.5 -107.5v-32zM376 331q0 97 -21 162l-220 -408q35 -47 97 -47q39 0 66.5 18.5t45 52.5t25 82.5t7.5 107.5v32zM217 666l33 121h73l-76 -121h-30z" />
    <glyph glyph-name="oslashacute" unicode="&#x1ff;" horiz-adv-x="376" 
d="M64 55q-18 27 -28 64.5t-10 85.5v24q0 105 44.5 159.5t117.5 54.5q56 0 95 -33l29 47l34 -23l-34 -55q18 -27 28 -64.5t10 -85.5v-24q0 -105 -44.5 -159.5t-117.5 -54.5q-56 0 -96 32l-28 -46l-34 23zM188 36q50 0 78.5 40t28.5 134v14q0 65 -15 104l-162 -263
q26 -29 70 -29zM81 210q0 -64 14 -104l163 263q-26 29 -70 29q-50 0 -78.5 -40t-28.5 -134v-14zM171 491l33 121h73l-76 -121h-30z" />
    <glyph glyph-name="Scommaaccent" unicode="&#x218;" horiz-adv-x="400" 
d="M28 478q0 36 11.5 65.5t33 51t52 33.5t68.5 12q46 0 80 -15t55.5 -40.5t32 -60t10.5 -72.5v-29h-53v30q0 61 -30.5 100.5t-94.5 39.5q-52 0 -80.5 -30.5t-28.5 -84.5q0 -45 22 -70.5t63 -42.5l81 -35q64 -28 97 -67.5t33 -107.5q0 -35 -11.5 -65.5t-33 -52.5t-53.5 -34.5
t-72 -12.5q-93 0 -141.5 53t-48.5 154v21h53v-20q0 -82 36.5 -121.5t100.5 -39.5q54 0 84 30t30 88q0 49 -26 77t-75 48l-73 30q-58 24 -90 62.5t-32 105.5zM171 -43h62v-41q0 -14 -2.5 -27.5t-10 -24t-20.5 -17t-34 -6.5v28q17 0 23.5 9t7.5 28h-26v51z" />
    <glyph glyph-name="scommaaccent" unicode="&#x219;" horiz-adv-x="337" 
d="M71 144q2 -56 30.5 -82.5t73.5 -26.5q41 0 62.5 20t21.5 54q0 31 -17.5 45.5t-57.5 28.5l-50 18q-46 17 -73.5 43t-27.5 78q0 55 36 88t93 33q74 0 109 -42.5t35 -108.5h-49q-1 48 -23.5 77.5t-71.5 29.5q-36 0 -57 -19.5t-21 -54.5q0 -32 19 -47.5t54 -28.5l47 -17
q25 -9 45 -19.5t33.5 -24.5t20.5 -32.5t7 -43.5q0 -54 -35.5 -87.5t-99.5 -33.5q-66 0 -109.5 38.5t-43.5 114.5h49zM137 -43h62v-41q0 -14 -2.5 -27.5t-10 -24t-20.5 -17t-34 -6.5v28q17 0 23.5 9t7.5 28h-26v51z" />
    <glyph glyph-name="dotlessj" unicode="&#x237;" horiz-adv-x="158" 
d="M107 -77q0 -48 -19.5 -75t-70.5 -27q-17 0 -31.5 4.5t-22.5 9.5l9 42q8 -4 21 -7t24 -3q23 0 28.5 13t5.5 36v518h56v-511z" />
    <glyph glyph-name="circumflex" unicode="&#x2c6;" 
d="M158 604l61 -121h-41l-53 81l-54 -81h-41l62 121h66z" />
    <glyph glyph-name="caron" unicode="&#x2c7;" 
d="M92 491l-62 121h41l54 -81l53 81h41l-61 -121h-66z" />
    <glyph glyph-name="breve" unicode="&#x2d8;" 
d="M125 488q-44 0 -65 28.5t-21 92.5h44q0 -36 7.5 -56.5t34.5 -20.5q26 0 33.5 20.5t7.5 56.5h44q0 -64 -21 -92.5t-64 -28.5z" />
    <glyph glyph-name="dotaccent" unicode="&#x2d9;" 
d="M95 589h60v-71h-60v71z" />
    <glyph glyph-name="ring" unicode="&#x2da;" 
d="M87 553q0 -17 9.5 -28t28.5 -11q20 0 29.5 11t9.5 28t-9.5 28t-29.5 11q-19 0 -28.5 -11t-9.5 -28zM48 553q0 31 21 52.5t56 21.5t56 -21.5t21 -52.5q0 -32 -21 -53.5t-56 -21.5t-56 21.5t-21 53.5z" />
    <glyph glyph-name="ogonek" unicode="&#x2db;" 
d="M168 12q-31 -35 -43 -58.5t-12 -46.5q0 -17 7.5 -27t24.5 -10q13 0 24 4v-37q-18 -9 -38 -9q-28 0 -45.5 18.5t-17.5 50.5q0 33 17.5 61t44.5 54h38z" />
    <glyph glyph-name="tilde" unicode="&#x2dc;" 
d="M19 496q0 51 14.5 78t45.5 27q16 0 28 -9t22 -19.5t19 -19t19 -8.5q14 0 18.5 13t5.5 42h39q0 -51 -14.5 -78t-45.5 -27q-16 0 -28 8.5t-22 19t-19 19.5t-19 9q-14 0 -18.5 -13t-5.5 -42h-39z" />
    <glyph glyph-name="hungarumlaut" unicode="&#x2dd;" 
d="M27 491l35 121h70l-78 -121h-27zM118 491l34 121h70l-78 -121h-26z" />
    <glyph glyph-name="Wgrave" unicode="&#x1e80;" horiz-adv-x="590" 
d="M324 630l100 -533h4l96 533h56l-122 -630h-65l-96 528h-4l-96 -528h-65l-122 630h57l96 -533h4l100 533h57zM282 666l-76 121h73l33 -121h-30z" />
    <glyph glyph-name="wgrave" unicode="&#x1e81;" horiz-adv-x="506" 
d="M360 92h4l81 342h51l-109 -434h-51l-81 348h-4l-81 -348h-51l-109 434h54l82 -342h4l80 342h49zM240 491l-76 121h73l33 -121h-30z" />
    <glyph glyph-name="Wacute" unicode="&#x1e82;" horiz-adv-x="590" 
d="M324 630l100 -533h4l96 533h56l-122 -630h-65l-96 528h-4l-96 -528h-65l-122 630h57l96 -533h4l100 533h57zM280 666l33 121h73l-76 -121h-30z" />
    <glyph glyph-name="wacute" unicode="&#x1e83;" horiz-adv-x="506" 
d="M360 92h4l81 342h51l-109 -434h-51l-81 348h-4l-81 -348h-51l-109 434h54l82 -342h4l80 342h49zM236 491l33 121h73l-76 -121h-30z" />
    <glyph glyph-name="Wdieresis" unicode="&#x1e84;" horiz-adv-x="590" 
d="M324 630l100 -533h4l96 533h56l-122 -630h-65l-96 528h-4l-96 -528h-65l-122 630h57l96 -533h4l100 533h57zM216 751h58v-71h-58v71zM318 751h57v-71h-57v71z" />
    <glyph glyph-name="wdieresis" unicode="&#x1e85;" horiz-adv-x="506" 
d="M360 92h4l81 342h51l-109 -434h-51l-81 348h-4l-81 -348h-51l-109 434h54l82 -342h4l80 342h49zM174 576h58v-71h-58v71zM276 576h57v-71h-57v71z" />
    <glyph glyph-name="Ygrave" unicode="&#x1ef2;" horiz-adv-x="416" 
d="M356 630h55l-176 -401v-229h-54v229l-176 401h59l147 -336zM195 666l-76 121h73l33 -121h-30z" />
    <glyph glyph-name="ygrave" unicode="&#x1ef3;" horiz-adv-x="364" 
d="M108 -170l54 170l-152 434h55l123 -355h4l109 355h53l-196 -604h-50zM169 491l-76 121h73l33 -121h-30z" />
    <glyph glyph-name="endash" unicode="&#x2013;" horiz-adv-x="377" 
d="M32 278h313v-45h-313v45z" />
    <glyph glyph-name="emdash" unicode="&#x2014;" horiz-adv-x="518" 
d="M32 278h454v-45h-454v45z" />
    <glyph glyph-name="quoteleft" unicode="&#x2018;" horiz-adv-x="112" 
d="M92 473h-72v78q0 40 14 62.5t58 22.5v-36q-24 -1 -29 -10.5t-5 -42.5h34v-74z" />
    <glyph glyph-name="quoteright" unicode="&#x2019;" horiz-adv-x="112" 
d="M23 630h72v-78q0 -40 -14 -62.5t-58 -22.5v36q24 1 29 10.5t5 42.5h-34v74z" />
    <glyph glyph-name="quotesinglbase" unicode="&#x201a;" horiz-adv-x="112" 
d="M23 74h72v-78q0 -40 -14 -62.5t-58 -22.5v36q24 1 29 10.5t5 42.5h-34v74z" />
    <glyph glyph-name="quotedblleft" unicode="&#x201c;" horiz-adv-x="212" 
d="M92 473h-72v78q0 40 14 62.5t58 22.5v-36q-24 -1 -29 -10.5t-5 -42.5h34v-74zM192 473h-72v78q0 40 14 62.5t58 22.5v-36q-24 -1 -29 -10.5t-5 -42.5h34v-74z" />
    <glyph glyph-name="quotedblright" unicode="&#x201d;" horiz-adv-x="212" 
d="M123 631h72v-78q0 -40 -14 -62.5t-58 -22.5v36q24 1 29 10.5t5 42.5h-34v74zM23 631h72v-78q0 -40 -14 -62.5t-58 -22.5v36q24 1 29 10.5t5 42.5h-34v74z" />
    <glyph glyph-name="quotedblbase" unicode="&#x201e;" horiz-adv-x="212" 
d="M123 74h72v-78q0 -40 -14 -62.5t-58 -22.5v36q24 1 29 10.5t5 42.5h-34v74zM23 74h72v-78q0 -40 -14 -62.5t-58 -22.5v36q24 1 29 10.5t5 42.5h-34v74z" />
    <glyph glyph-name="dagger" unicode="&#x2020;" horiz-adv-x="222" 
d="M10 564h81v76h40v-76h81v-39h-81v-176h-40v176h-81v39z" />
    <glyph glyph-name="daggerdbl" unicode="&#x2021;" horiz-adv-x="229" 
d="M15 464h81v61h-81v37h81v78h38v-78h80v-37h-80v-61h80v-37h-80v-78h-38v78h-81v37z" />
    <glyph glyph-name="bullet" unicode="&#x2022;" horiz-adv-x="279" 
d="M247 255q0 -23 -8.5 -43t-23 -34t-34.5 -22t-42 -8q-23 0 -42.5 8t-33.5 22t-22.5 34t-8.5 43t8.5 43t22.5 34.5t33.5 22.5t42.5 8q22 0 42 -8t34.5 -22.5t23 -34.5t8.5 -43z" />
    <glyph glyph-name="ellipsis" unicode="&#x2026;" horiz-adv-x="374" 
d="M32 74h74v-74h-74v74zM150 74h74v-74h-74v74zM268 74h74v-74h-74v74z" />
    <glyph glyph-name="perthousand" unicode="&#x2030;" horiz-adv-x="674" 
d="M60 498q0 -48 15 -72.5t41 -24.5t41 24.5t15 72.5t-15 72.5t-41 24.5t-41 -24.5t-15 -72.5zM357 630h47l-312 -630h-47zM15 498q0 64 27 101t74 37q48 0 75 -37t27 -101t-27 -101t-75 -37q-47 0 -74 37t-27 101zM277 132q0 -48 15 -72.5t41 -24.5t41 24.5t15 72.5
t-15 72.5t-41 24.5t-41 -24.5t-15 -72.5zM231 132q0 64 27 101t75 37q47 0 74 -37t27 -101t-27 -101t-74 -37q-48 0 -75 37t-27 101zM502 132q0 -48 15 -72.5t41 -24.5t41 24.5t15 72.5t-15 72.5t-41 24.5t-41 -24.5t-15 -72.5zM456 132q0 64 27 101t75 37q47 0 74 -37
t27 -101t-27 -101t-74 -37q-48 0 -75 37t-27 101z" />
    <glyph glyph-name="guilsinglleft" unicode="&#x2039;" horiz-adv-x="199" 
d="M30 238l139 130v-66l-93 -86l93 -86v-66l-139 130v44z" />
    <glyph glyph-name="guilsinglright" unicode="&#x203a;" horiz-adv-x="199" 
d="M169 194l-139 -130v66l93 86l-93 86v66l139 -130v-44z" />
    <glyph glyph-name="fraction" unicode="&#x2044;" horiz-adv-x="359" 
d="M312 630h47l-312 -630h-47z" />
    <glyph glyph-name="Euro" unicode="&#x20ac;" horiz-adv-x="489" 
d="M20 282h53v14v38v10h-53v42h55q9 129 61.5 191.5t138.5 62.5q48 0 83 -19t58 -53t34 -80.5t11 -101.5v-14h-55v13q0 42 -6.5 80t-22 66t-40.5 44.5t-62 16.5q-68 0 -102 -55t-41 -151h128l-10 -42h-119v-9v-40v-13h108l-10 -42h-96q7 -95 40.5 -148.5t101.5 -53.5
q37 0 62 16.5t40.5 44.5t22 66t6.5 80v13h55v-14q0 -55 -11 -101.5t-34 -80.5t-58 -53t-83 -19q-85 0 -137.5 61t-62.5 189h-55v42z" />
    <glyph glyph-name="trademark" unicode="&#x2122;" horiz-adv-x="428" 
d="M67 411v185h-61v34h164v-34h-62v-185h-41zM287 411l-50 179h-2v-179h-37v219h61l43 -162h1l44 162h59v-219h-38v179h-2l-50 -179h-29z" />
    <glyph glyph-name="uni2153" unicode="&#x2153;" horiz-adv-x="316" 
d="M87 589q23 1 35 9t18 32h33v-269h-47v197h-39v31zM30 330h256v-30h-256v30zM196 135q19 -6 30.5 -20.5t11.5 -40.5q0 -35 -22 -56.5t-63 -21.5q-42 0 -64.5 23.5t-22.5 64.5v11h45v-11q0 -24 11 -37.5t31 -13.5q40 0 40 44q0 20 -11 30t-31 10h-9.5t-10.5 -1v37
q5 -1 10.5 -1h9.5q20 0 30.5 9t10.5 31q0 20 -9.5 31.5t-29.5 11.5q-21 0 -31 -14t-10 -38v-9h-44v10q0 39 21.5 63.5t63.5 24.5q41 0 62.5 -21.5t21.5 -56.5q0 -25 -11 -39.5t-30 -19.5z" />
    <glyph glyph-name="uni2154" unicode="&#x2154;" horiz-adv-x="316" 
d="M30 330h256v-30h-256v30zM196 135q19 -6 30.5 -20.5t11.5 -40.5q0 -35 -22 -56.5t-63 -21.5q-42 0 -64.5 23.5t-22.5 64.5v11h45v-11q0 -24 11 -37.5t31 -13.5q40 0 40 44q0 20 -11 30t-31 10h-9.5t-10.5 -1v37q5 -1 10.5 -1h9.5q20 0 30.5 9t10.5 31q0 20 -9.5 31.5
t-29.5 11.5q-21 0 -31 -14t-10 -38v-9h-44v10q0 39 21.5 63.5t63.5 24.5q41 0 62.5 -21.5t21.5 -56.5q0 -25 -11 -39.5t-30 -19.5zM130 401h111v-40h-170v33l71 75q23 26 37 44.5t14 40.5q0 19 -10.5 29.5t-27.5 10.5q-39 0 -39 -49v-13h-44v15q0 38 21 62t61 24
q41 0 63 -20.5t22 -57.5q0 -26 -14.5 -49t-42.5 -52z" />
    <glyph glyph-name="uni215B" unicode="&#x215b;" horiz-adv-x="316" 
d="M158 235q-40 0 -40 -42q0 -41 40 -41t40 41q0 42 -40 42zM158 -4q-41 0 -65.5 20.5t-24.5 55.5q0 26 12.5 42t31.5 21q-17 5 -28.5 21.5t-11.5 39.5q0 35 22.5 55.5t63.5 20.5t63.5 -20.5t22.5 -55.5q0 -23 -11.5 -39.5t-29.5 -21.5q19 -5 31.5 -21t12.5 -42
q0 -35 -24.5 -55.5t-64.5 -20.5zM158 118q-44 0 -44 -43q0 -42 44 -42q20 0 32 11t12 31t-12 31.5t-32 11.5zM91 589q23 1 35 9t18 32h33v-269h-47v197h-39v31zM30 330h256v-30h-256v30z" />
    <glyph glyph-name="uni215C" unicode="&#x215c;" horiz-adv-x="316" 
d="M158 235q-40 0 -40 -42q0 -41 40 -41t40 41q0 42 -40 42zM158 -4q-41 0 -65.5 20.5t-24.5 55.5q0 26 12.5 42t31.5 21q-17 5 -28.5 21.5t-11.5 39.5q0 35 22.5 55.5t63.5 20.5t63.5 -20.5t22.5 -55.5q0 -23 -11.5 -39.5t-29.5 -21.5q19 -5 31.5 -21t12.5 -42
q0 -35 -24.5 -55.5t-64.5 -20.5zM158 118q-44 0 -44 -43q0 -42 44 -42q20 0 32 11t12 31t-12 31.5t-32 11.5zM30 330h256v-30h-256v30zM200 497q19 -6 30.5 -20.5t11.5 -40.5q0 -35 -22 -56.5t-63 -21.5q-42 0 -64.5 23.5t-22.5 64.5v11h45v-11q0 -24 11 -37.5t31 -13.5
q40 0 40 44q0 20 -11 30t-31 10h-9.5t-10.5 -1v37q5 -1 10.5 -1h9.5q20 0 30.5 9t10.5 31q0 20 -9.5 31.5t-29.5 11.5q-21 0 -31 -14t-10 -38v-9h-44v10q0 39 21.5 63.5t63.5 24.5q41 0 62.5 -21.5t21.5 -56.5q0 -25 -11 -39.5t-30 -19.5z" />
    <glyph glyph-name="uni215D" unicode="&#x215d;" horiz-adv-x="316" 
d="M158 235q-40 0 -40 -42q0 -41 40 -41t40 41q0 42 -40 42zM158 -4q-41 0 -65.5 20.5t-24.5 55.5q0 26 12.5 42t31.5 21q-17 5 -28.5 21.5t-11.5 39.5q0 35 22.5 55.5t63.5 20.5t63.5 -20.5t22.5 -55.5q0 -23 -11.5 -39.5t-29.5 -21.5q19 -5 31.5 -21t12.5 -42
q0 -35 -24.5 -55.5t-64.5 -20.5zM158 118q-44 0 -44 -43q0 -42 44 -42q20 0 32 11t12 31t-12 31.5t-32 11.5zM30 330h256v-30h-256v30zM155 505q-16 0 -26 -9t-14 -20l-44 4q2 14 4 33t3.5 39.5t3 40.5t1.5 37h144v-42h-109q0 -6 -0.5 -15.5t-1 -19.5t-1 -19.5t-1.5 -14.5
q7 9 20 15.5t31 6.5q34 0 56 -22t22 -68q0 -45 -23.5 -69t-64.5 -24q-42 0 -64.5 24t-22.5 66v8h45v-8q0 -25 11 -39t31 -14q43 0 43 55t-43 55z" />
    <glyph glyph-name="uni215E" unicode="&#x215e;" horiz-adv-x="316" 
d="M158 235q-40 0 -40 -42q0 -41 40 -41t40 41q0 42 -40 42zM158 -4q-41 0 -65.5 20.5t-24.5 55.5q0 26 12.5 42t31.5 21q-17 5 -28.5 21.5t-11.5 39.5q0 35 22.5 55.5t63.5 20.5t63.5 -20.5t22.5 -55.5q0 -23 -11.5 -39.5t-29.5 -21.5q19 -5 31.5 -21t12.5 -42
q0 -35 -24.5 -55.5t-64.5 -20.5zM158 118q-44 0 -44 -43q0 -42 44 -42q20 0 32 11t12 31t-12 31.5t-32 11.5zM30 330h256v-30h-256v30zM74 587v43h176v-36q-75 -97 -75 -232h-47q1 70 20.5 125t53.5 100h-128z" />
    <glyph glyph-name="minus" unicode="&#x2212;" horiz-adv-x="419" 
d="M36 328h347v-47h-347v47z" />
    <glyph glyph-name="approxequal" unicode="&#x2248;" horiz-adv-x="428" 
d="M40 362q26 17 49.5 24.5t43.5 7.5q23 0 42 -4.5t37.5 -10.5t37.5 -10.5t42 -4.5q21 0 45 7t51 24v-46q-27 -17 -51 -24.5t-45 -7.5q-23 0 -42 4.5t-37.5 10.5t-37.5 10.5t-42 4.5q-20 0 -43.5 -7t-49.5 -24v46zM40 260q26 17 49.5 24.5t43.5 7.5q23 0 42 -5t37.5 -10.5
t37.5 -10.5t42 -5q44 0 96 32v-46q-27 -17 -51 -24.5t-45 -7.5q-23 0 -42 5t-37.5 10.5t-37.5 10.5t-42 5q-20 0 -43.5 -7.5t-49.5 -24.5v46z" />
    <glyph glyph-name="notequal" unicode="&#x2260;" horiz-adv-x="428" 
d="M40 380h206l64 85h49l-64 -85h93v-45h-127l-48 -63h175v-45h-209l-62 -83h-48l62 83h-91v45h125l47 63h-172v45z" />
    <glyph glyph-name="lessequal" unicode="&#x2264;" horiz-adv-x="317" 
d="M26 166h266v-47h-266v47zM26 376l266 120v-50l-215 -96l215 -97v-52l-266 121v54z" />
    <glyph glyph-name="greaterequal" unicode="&#x2265;" horiz-adv-x="317" 
d="M292 119h-266v47h266v-47zM292 322l-266 -121v52l215 97l-215 96v50l266 -120v-54z" />
    <glyph glyph-name="commaturn" 
d="M156 503h-62v41q0 14 2.5 27.5t10 24t20.5 17t34 6.5v-28q-17 0 -23.5 -9t-7.5 -28h26v-51z" />
    <glyph glyph-name="parenright.cap" horiz-adv-x="203" 
d="M179 303q0 -51 -8 -102t-24 -99t-38.5 -91.5t-52.5 -79.5h-56q70 90 96 183t26 189t-26 189t-96 183h56q30 -36 52.5 -79.5t38.5 -91.5t24 -99t8 -102z" />
    <glyph glyph-name="breve.cap" 
d="M125 663q-44 0 -65 28.5t-21 92.5h44q0 -36 7.5 -56.5t34.5 -20.5q26 0 33.5 20.5t7.5 56.5h44q0 -64 -21 -92.5t-64 -28.5z" />
    <glyph glyph-name="circumflex.cap" 
d="M160 784l61 -121h-43l-53 81l-54 -81h-43l62 121h70z" />
    <glyph glyph-name="dieresis.cap" 
d="M45 751h58v-71h-58v71zM147 751h57v-71h-57v71z" />
    <glyph glyph-name="grave.cap" 
d="M148 666l-76 121h73l33 -121h-30z" />
    <glyph glyph-name="macron.cap" 
d="M42 730h165v-48h-165v48z" />
    <glyph glyph-name="ring.cap" 
d="M87 728q0 -17 9.5 -28t28.5 -11q20 0 29.5 11t9.5 28t-9.5 28t-29.5 11q-19 0 -28.5 -11t-9.5 -28zM48 728q0 31 21 52.5t56 21.5t56 -21.5t21 -52.5q0 -32 -21 -53.5t-56 -21.5t-56 21.5t-21 53.5z" />
    <glyph glyph-name="exclamdown.cap" horiz-adv-x="135" 
d="M30 630h75v-75h-75v75zM37 0v181l21 300h18l22 -300v-181h-61z" />
    <glyph glyph-name="tilde.cap" 
d="M19 671q0 51 14.5 78t45.5 27q16 0 28 -9t22 -19.5t19 -19t19 -8.5q14 0 18.5 13t5.5 42h39q0 -51 -14.5 -78t-45.5 -27q-16 0 -28 8.5t-22 19t-19 19.5t-19 9q-14 0 -18.5 -13t-5.5 -42h-39z" />
    <glyph glyph-name="caron.cap" 
d="M90 666l-62 121h43l54 -81l53 81h43l-61 -121h-70z" />
    <glyph glyph-name="dotaccent.cap" 
d="M95 764h60v-71h-60v71z" />
    <glyph glyph-name="at.cap" horiz-adv-x="649" 
d="M470 186q20 0 38 11t31 34.5t20.5 59t7.5 84.5q0 52 -14.5 96.5t-42 77t-67.5 50.5t-92 18q-62 0 -111 -24t-83.5 -67t-53 -101.5t-18.5 -127.5q0 -66 18.5 -118t51.5 -88.5t77.5 -56t96.5 -19.5q48 0 89 10t84 34l18 -32q-42 -29 -89.5 -42.5t-102.5 -13.5
q-61 0 -114 21.5t-92.5 63t-62.5 102t-23 139.5q0 78 22 144.5t63.5 115t99.5 76.5t130 28q62 0 111.5 -21.5t83.5 -59.5t52 -90.5t18 -114.5q0 -60 -12.5 -104t-33.5 -73t-48.5 -43t-56.5 -14q-34 0 -54 18.5t-22 48.5q-15 -32 -43.5 -49.5t-61.5 -17.5q-53 0 -82.5 36.5
t-29.5 98.5q0 35 10.5 73t31 69.5t51 51.5t70.5 20q33 0 57.5 -18t33.5 -47l13 57h48l-52 -236q-7 -34 3 -47t32 -13zM403 329q5 25 3 46.5t-11 37.5t-23 24.5t-33 8.5q-28 0 -49.5 -16t-35.5 -41t-21.5 -55.5t-7.5 -58.5q0 -45 17.5 -65.5t47.5 -20.5q16 0 33 7t31.5 21.5
t26 36t17.5 50.5z" />
    <glyph glyph-name="idotaccent" horiz-adv-x="158" 
d="M107 434v-434h-56v434h56zM49 589h60v-71h-60v71z" />
    <glyph glyph-name="cedilla.alt" 
d="M209 -105q0 -35 -24.5 -52.5t-54.5 -17.5q-27 0 -47 9.5t-33 23.5l14 36q12 -14 29 -22t37 -8q15 0 25.5 6.5t10.5 22.5q0 23 -24 29.5t-56 4.5l24 84h32l-14 -50q15 0 29.5 -3.5t26 -11t18.5 -20t7 -31.5z" />
    <glyph glyph-name="dotbelow" 
d="M95 -53h60v-71h-60v71z" />
    <glyph glyph-name="questiondown.cap" horiz-adv-x="371" 
d="M143 320q-37 -44 -55 -79t-18 -79q0 -58 32.5 -91.5t88.5 -33.5q54 0 84.5 35t30.5 103v36h55v-38q0 -85 -47 -134t-123 -49q-41 0 -73.5 12.5t-55 35t-35 54t-12.5 70.5q0 27 6 50t17 45t26.5 43.5t35.5 45.5q34 40 49 69t15 62h52q0 -23 -4.5 -42t-13.5 -37t-23 -37
t-32 -41zM231 555h-75v75h75v-75z" />
    <glyph glyph-name="commaaccent" 
d="M95 -43h62v-41q0 -14 -2.5 -27.5t-10 -24t-20.5 -17t-34 -6.5v28q17 0 23.5 9t7.5 28h-26v51z" />
    <glyph glyph-name="hungarumlaut.cap" 
d="M27 666l35 121h70l-78 -121h-27zM118 666l34 121h70l-78 -121h-26z" />
    <glyph glyph-name="caron.Slovak" 
d="M81 504l16 126h71l-59 -126h-28z" />
    <glyph glyph-name="guilsinglleft.cap" horiz-adv-x="199" 
d="M30 343l139 130v-66l-93 -86l93 -86v-66l-139 130v44z" />
    <glyph glyph-name="guilsinglright.cap" horiz-adv-x="199" 
d="M169 299l-139 -130v66l93 86l-93 86v66l139 -130v-44z" />
    <glyph glyph-name="guillemotleft.cap" horiz-adv-x="344" 
d="M30 343l139 130v-66l-93 -86l93 -86v-66l-139 130v44zM175 343l139 130v-66l-93 -86l93 -86v-66l-139 130v44z" />
    <glyph glyph-name="guillemotright.cap" horiz-adv-x="344" 
d="M169 299l-139 -130v66l93 86l-93 86v66l139 -130v-44zM314 299l-139 -130v66l93 86l-93 86v66l139 -130v-44z" />
    <glyph glyph-name="slash.cap" horiz-adv-x="243" 
d="M190 630h53l-190 -630h-53z" />
    <glyph glyph-name="published" horiz-adv-x="638" 
d="M319 641q64 0 118 -24.5t93 -68t61 -103t22 -130.5t-22 -130.5t-61 -103t-93 -68t-118 -24.5t-118 24.5t-93 68t-61 103t-22 130.5t22 130.5t61 103t93 68t118 24.5zM319 598q-56 0 -101 -21.5t-77 -59t-49.5 -89.5t-17.5 -113t17.5 -112.5t49.5 -89t77 -59t101 -21.5
q55 0 100.5 21.5t77.5 59t49.5 89t17.5 112.5t-17.5 113t-49.5 89.5t-77.5 59t-100.5 21.5zM320 310q39 0 60.5 15.5t21.5 59.5q0 45 -21.5 60.5t-60.5 15.5h-35v-151h35zM285 129h-48v371h89q66 0 95.5 -30t29.5 -84q0 -55 -29.5 -85t-95.5 -30h-41v-142z" />
    <glyph glyph-name="backslash.cap" horiz-adv-x="243" 
d="M243 0h-53l-190 630h53z" />
    <glyph glyph-name="bar.cap" horiz-adv-x="159" 
d="M55 630h49v-630h-49v630z" />
    <glyph glyph-name="periodcentered.cap" horiz-adv-x="138" 
d="M32 349h74v-74h-74v74z" />
    <glyph glyph-name="bullet.cap" horiz-adv-x="279" 
d="M247 315q0 -23 -8.5 -43t-23 -34t-34.5 -22t-42 -8q-23 0 -42.5 8t-33.5 22t-22.5 34t-8.5 43t8.5 43t22.5 34.5t33.5 22.5t42.5 8q22 0 42 -8t34.5 -22.5t23 -34.5t8.5 -43z" />
    <glyph glyph-name="hyphen.cap" horiz-adv-x="241" 
d="M32 340h177v-51h-177v51z" />
    <glyph glyph-name="endash.cap" horiz-adv-x="377" 
d="M32 338h313v-45h-313v45z" />
    <glyph glyph-name="emdash.cap" horiz-adv-x="518" 
d="M32 338h454v-45h-454v45z" />
    <glyph glyph-name="parenleft.cap" horiz-adv-x="203" 
d="M24 303q0 51 8 102t24 99t38.5 91.5t52.5 79.5h56q-70 -90 -96 -183t-26 -189t26 -189t96 -183h-56q-30 36 -52.5 79.5t-38.5 91.5t-24 99t-8 102z" />
    <glyph glyph-name="acute.cap" 
d="M72 666l33 121h73l-76 -121h-30z" />
    <glyph glyph-name="braceright.cap" horiz-adv-x="197" 
d="M183 280h-17q-31 0 -39 -16t-8 -57v-187q0 -43 -15.5 -66t-60.5 -23h-38v43h34q17 0 23.5 9t6.5 28v195q0 38 11 63.5t49 33.5q-38 8 -49 33.5t-11 63.5v195q0 19 -6.5 28t-23.5 9h-34v43h38q45 0 60.5 -23t15.5 -66v-187q0 -41 8 -57t39 -16h17v-46z" />
    <glyph glyph-name="braceleft.cap" horiz-adv-x="197" 
d="M14 326h17q31 0 39 16t8 57v187q0 43 15.5 66t60.5 23h38v-43h-34q-17 0 -23.5 -9t-6.5 -28v-195q0 -38 -11 -63.5t-49 -33.5q38 -8 49 -33.5t11 -63.5v-195q0 -19 6.5 -28t23.5 -9h34v-43h-38q-45 0 -60.5 23t-15.5 66v187q0 41 -8 57t-39 16h-17v46z" />
    <glyph glyph-name="bracketright.cap" horiz-adv-x="195" 
d="M85 630h-80v45h130v-744h-130v45h80v654z" />
    <glyph glyph-name="zero.lt" horiz-adv-x="500" 
d="M465 307q0 -77 -15.5 -136t-44 -99.5t-68 -61t-87.5 -20.5t-87.5 20.5t-68 61t-44 99.5t-15.5 136v16q0 77 15.5 136t44 99.5t68 61t87.5 20.5t87.5 -20.5t68 -61t44 -99.5t15.5 -136v-16zM93 306q0 -59 10 -108t29.5 -84.5t49 -55.5t68.5 -20t68.5 20t49 55.5t29.5 84.5
t10 108v18q0 58 -10 107.5t-29.5 85t-49 55.5t-68.5 20t-68.5 -20t-49 -55.5t-29.5 -85t-10 -107.5v-18z" />
    <glyph glyph-name="one.lt" horiz-adv-x="500" 
d="M66 48h175v455h-145v40h49q28 0 48 3.5t34 13t23.5 27.5t17.5 48h30v-587h152v-48h-384v48z" />
    <glyph glyph-name="two.lt" horiz-adv-x="500" 
d="M125 52h323v-52h-401v38l177 181q33 34 60.5 65t48 61t31.5 59.5t11 59.5q0 58 -35.5 93t-92.5 35q-64 0 -99 -38.5t-35 -106.5v-36h-53v38q0 42 12.5 77.5t36.5 60.5t59 39t79 14q45 0 79 -13t57.5 -36.5t35 -55.5t11.5 -71q0 -35 -10 -66t-31 -63t-52.5 -67t-73.5 -78z
" />
    <glyph glyph-name="three.lt" horiz-adv-x="500" 
d="M326 317q50 -11 82.5 -46.5t32.5 -101.5q0 -39 -13 -72t-37.5 -57t-59.5 -37t-80 -13q-96 0 -144.5 54t-48.5 146v24h55v-26q0 -71 37 -111t101 -40q63 0 98.5 35t35.5 97q0 63 -36.5 94t-98.5 31q-13 0 -29 -0.5t-30 -2.5v52q14 -2 30 -2.5t29 -0.5q62 0 96 29t34 92
q0 60 -34 96t-98 36t-97 -41.5t-33 -113.5v-18h-56v18q0 44 11 81t34 64t58 42t83 15q45 0 80.5 -13t59.5 -37t36.5 -57t12.5 -72q0 -62 -30.5 -97.5t-80.5 -46.5z" />
    <glyph glyph-name="four.lt" horiz-adv-x="500" 
d="M377 217h92v-47h-92v-170h-56v170h-294v47l300 413h50v-413zM81 217h240v329z" />
    <glyph glyph-name="five.lt" horiz-adv-x="500" 
d="M247 369q-26 0 -48 -8t-39 -20.5t-29 -29t-18 -34.5l-52 5q6 32 10 76t6.5 91.5t3.5 94.5t2 86h324v-53h-280q0 -18 -1 -49t-2.5 -65t-3 -64.5t-4.5 -47.5q19 28 54.5 46.5t85.5 18.5q40 0 74.5 -13t60 -39.5t40 -67t14.5 -94.5q0 -102 -53.5 -157t-144.5 -55
q-98 0 -146.5 56t-48.5 153v19h54v-20q0 -76 37.5 -118.5t103.5 -42.5q31 0 57.5 10t45.5 30.5t30 51.5t11 73q0 85 -41 126t-103 41z" />
    <glyph glyph-name="six.lt" horiz-adv-x="500" 
d="M261 -10q-108 0 -161 79t-53 227v25q0 72 13.5 131t40 101t66.5 64.5t93 22.5q45 0 79 -14.5t57.5 -40t35 -61t11.5 -78.5h-54q0 66 -33 106t-96 40q-44 0 -75 -22t-50 -62.5t-27.5 -97t-8.5 -126.5q8 24 23 44.5t36.5 36t48 24.5t57.5 9q43 0 79.5 -14.5t62 -41t40 -64
t14.5 -84.5t-15.5 -85t-42.5 -64.5t-63 -40.5t-78 -14zM117 194q0 -35 10 -63.5t29 -49.5t45.5 -32.5t58.5 -11.5t58.5 11.5t46 32.5t30.5 49.5t11 63.5q0 34 -11 63t-30.5 50t-46 32.5t-58.5 11.5q-67 0 -105 -44t-38 -113z" />
    <glyph glyph-name="seven.lt" horiz-adv-x="500" 
d="M43 577v53h404v-39q-99 -122 -143.5 -273t-44.5 -318h-59q1 86 14.5 167t37.5 154.5t58 138t76 117.5h-343z" />
    <glyph glyph-name="eight.lt" horiz-adv-x="500" 
d="M250 343q60 0 96 32.5t36 92.5t-36 93t-96 33t-96 -33t-36 -93t36 -92.5t96 -32.5zM250 36q66 0 104 34t38 96t-38 96t-104 34t-104 -34t-38 -96t38 -96t104 -34zM250 -10q-47 0 -84 13t-62.5 36t-39.5 55t-14 70q0 32 9.5 58t26 46t38.5 33t47 19q-48 11 -78.5 50
t-30.5 101q0 36 12 67t36 53.5t59 35.5t81 13t81 -13t59 -35.5t36 -53.5t12 -67q0 -62 -30.5 -101t-78.5 -50q25 -6 47 -19t38.5 -33t26 -46t9.5 -58q0 -38 -14 -70t-39.5 -55t-63 -36t-83.5 -13z" />
    <glyph glyph-name="nine.lt" horiz-adv-x="500" 
d="M239 640q108 0 161 -79t53 -227v-25q0 -72 -13.5 -131t-40 -101t-66.5 -64.5t-93 -22.5q-45 0 -79 14.5t-57.5 40t-35 61t-11.5 78.5h54q0 -66 33 -106t96 -40q44 0 75 22t50 62.5t27.5 97t8.5 126.5q-8 -24 -23 -44.5t-36.5 -36t-48 -24.5t-57.5 -9q-44 0 -80 14.5
t-61.5 41t-40 64t-14.5 84.5t15.5 85t42.5 64.5t63 40.5t78 14zM383 436q0 34 -10.5 63t-29 50t-45 32.5t-58.5 11.5t-58.5 -11.5t-46 -32.5t-30.5 -50t-11 -63q0 -35 11 -63.5t30.5 -49.5t46 -32.5t58.5 -11.5q67 0 105 44t38 113z" />
    <glyph glyph-name="dollar.lt" horiz-adv-x="500" 
d="M65 479q0 69 44 113.5t125 47.5v81h43v-83q42 -5 72.5 -21.5t49.5 -41.5t28 -56.5t9 -67.5v-29h-53v31q0 55 -26 92.5t-80 46.5v-254l29 -11q72 -27 106.5 -66t34.5 -106q0 -70 -43.5 -115.5t-126.5 -49.5v-83h-43v85q-89 8 -133 61.5t-44 143.5v21h53v-21
q0 -75 32 -114.5t92 -47.5v263l-36 13q-59 21 -96 60.5t-37 107.5zM277 282v-248q53 4 85 34t32 87q0 49 -28.5 77.5t-84.5 48.5zM120 479q0 -46 23.5 -72t71.5 -45l19 -8v240q-54 -3 -84 -33.5t-30 -81.5z" />
    <glyph glyph-name="Euro.lt" horiz-adv-x="500" 
d="M19 282h53v14v38v10h-53v42h55q9 129 61.5 191.5t138.5 62.5q48 0 83 -19t58 -53t34 -80.5t11 -101.5v-14h-55v13q0 42 -6.5 80t-22 66t-40.5 44.5t-62 16.5q-68 0 -102 -55t-41 -151h128l-10 -42h-119v-9v-40v-13h108l-10 -42h-96q7 -95 40.5 -148.5t101.5 -53.5
q37 0 62 16.5t40.5 44.5t22 66t6.5 80v13h55v-14q0 -55 -11 -101.5t-34 -80.5t-58 -53t-83 -19q-85 0 -137.5 61t-62.5 189h-55v42z" />
    <glyph glyph-name="sterling.lt" horiz-adv-x="500" 
d="M169 462q0 -33 7 -62.5t17 -58.5h134v-42h-119q13 -35 23 -72t10 -81q0 -8 -0.5 -15t-1.5 -15l27.5 -27.5t28.5 -24t32 -17.5t38 -7q39 0 55 28t16 83h48q0 -78 -30.5 -119.5t-91.5 -41.5q-24 0 -43 7t-35.5 18t-30.5 24.5t-27 27.5q-13 -32 -38.5 -54.5t-65.5 -22.5
q-36 0 -62.5 22.5t-26.5 67.5q0 41 28 66.5t69 25.5q17 0 32 -4.5t29 -12.5q-2 42 -12.5 76.5t-24.5 67.5h-83v42h66q-10 27 -17 56.5t-7 64.5q0 37 10.5 69.5t31.5 56.5t52 38t71 14q78 0 124.5 -52.5t46.5 -148.5h-52q0 78 -31 115.5t-88 37.5q-30 0 -51 -11t-33.5 -29
t-18.5 -41.5t-6 -48.5zM124 33q27 0 42.5 20.5t20.5 51.5q-13 11 -26.5 17.5t-29.5 6.5q-23 0 -37 -12.5t-14 -36.5q0 -22 12 -34.5t32 -12.5z" />
    <glyph glyph-name="yen.lt" horiz-adv-x="500" 
d="M79 319h121l-173 311h59l167 -298l165 298h55l-174 -311h122v-42h-145v-60h145v-42h-145v-175h-52v175h-145v42h145v60h-145v42z" />
    <glyph glyph-name="florin.lt" horiz-adv-x="500" 
d="M291 377h104v-44h-113l-60 -293q-6 -29 -14.5 -53.5t-23 -42.5t-35.5 -28.5t-52 -10.5q-8 0 -17 1t-19 3v45q15 -3 26 -3q36 0 55.5 23.5t27.5 68.5l60 290h-82v44h91l27 131q6 27 16 51t25.5 42t37 28.5t49.5 10.5q20 0 44 -6v-43q-10 2 -18.5 3.5t-16.5 1.5
q-36 0 -56 -24t-29 -67z" />
    <glyph glyph-name="percent.lt" horiz-adv-x="500" 
d="M85 498q0 -48 15 -72.5t41 -24.5t41 24.5t15 72.5t-15 72.5t-41 24.5t-41 -24.5t-15 -72.5zM382 630h47l-312 -630h-47zM40 498q0 64 27 101t74 37q48 0 75 -37t27 -101t-27 -101t-75 -37q-47 0 -74 37t-27 101zM302 132q0 -48 15 -72.5t41 -24.5t41 24.5t15 72.5
t-15 72.5t-41 24.5t-41 -24.5t-15 -72.5zM256 132q0 64 27 101t75 37q47 0 74 -37t27 -101t-27 -101t-74 -37q-48 0 -75 37t-27 101z" />
    <glyph glyph-name="perthousand.lt" horiz-adv-x="760" 
d="M103 498q0 -48 15 -72.5t41 -24.5t41 24.5t15 72.5t-15 72.5t-41 24.5t-41 -24.5t-15 -72.5zM400 630h47l-312 -630h-47zM58 498q0 64 27 101t74 37q48 0 75 -37t27 -101t-27 -101t-75 -37q-47 0 -74 37t-27 101zM320 132q0 -48 15 -72.5t41 -24.5t41 24.5t15 72.5
t-15 72.5t-41 24.5t-41 -24.5t-15 -72.5zM274 132q0 64 27 101t75 37q47 0 74 -37t27 -101t-27 -101t-74 -37q-48 0 -75 37t-27 101zM545 132q0 -48 15 -72.5t41 -24.5t41 24.5t15 72.5t-15 72.5t-41 24.5t-41 -24.5t-15 -72.5zM499 132q0 64 27 101t75 37q47 0 74 -37
t27 -101t-27 -101t-74 -37q-48 0 -75 37t-27 101z" />
    <glyph glyph-name="plus.lt" horiz-adv-x="500" 
d="M272 478v-150h151v-47h-151v-150h-47v150h-149v47h149v150h47z" />
    <glyph glyph-name="minus.lt" horiz-adv-x="500" 
d="M76 328h347v-47h-347v47z" />
    <glyph glyph-name="multiply.lt" horiz-adv-x="500" 
d="M108 411l33 34l108 -111l108 111l34 -34l-109 -109l109 -109l-34 -33l-108 110l-108 -110l-33 33l110 109z" />
    <glyph glyph-name="divide.lt" horiz-adv-x="500" 
d="M76 328h347v-47h-347v47zM214 480h72v-70h-72v70zM214 198h72v-69h-72v69z" />
    <glyph glyph-name="equal.lt" horiz-adv-x="500" 
d="M76 272h348v-46h-348v46zM76 381h348v-46h-348v46z" />
    <glyph glyph-name="less.lt" horiz-adv-x="500" 
d="M117 334l265 140v-54l-222 -116l222 -118v-55l-265 142v61z" />
    <glyph glyph-name="greater.lt" horiz-adv-x="500" 
d="M382 273l-264 -142v55l220 118l-220 116v54l264 -140v-61z" />
    <glyph glyph-name="plusminus.lt" horiz-adv-x="500" 
d="M272 503v-127h151v-46h-151v-126h-47v126h-149v46h149v127h47zM76 166h347v-47h-347v47z" />
    <glyph glyph-name="lessequal.lt" horiz-adv-x="500" 
d="M117 166h266v-47h-266v47zM117 376l266 120v-50l-215 -96l215 -97v-52l-266 121v54z" />
    <glyph glyph-name="greaterequal.lt" horiz-adv-x="500" 
d="M383 119h-266v47h266v-47zM383 322l-266 -121v52l215 97l-215 96v50l266 -120v-54z" />
    <glyph glyph-name="notequal.lt" horiz-adv-x="500" 
d="M76 380h206l64 85h49l-64 -85h93v-45h-127l-48 -63h175v-45h-209l-62 -83h-48l62 83h-91v45h125l47 63h-172v45z" />
    <glyph glyph-name="approxequal.lt" horiz-adv-x="500" 
d="M76 362q26 17 49.5 24.5t43.5 7.5q23 0 42 -4.5t37.5 -10.5t37.5 -10.5t42 -4.5q21 0 45 7t51 24v-46q-27 -17 -51 -24.5t-45 -7.5q-23 0 -42 4.5t-37.5 10.5t-37.5 10.5t-42 4.5q-20 0 -43.5 -7t-49.5 -24v46zM76 260q26 17 49.5 24.5t43.5 7.5q23 0 42 -5t37.5 -10.5
t37.5 -10.5t42 -5q44 0 96 32v-46q-27 -17 -51 -24.5t-45 -7.5q-23 0 -42 5t-37.5 10.5t-37.5 10.5t-42 5q-20 0 -43.5 -7.5t-49.5 -24.5v46z" />
    <glyph glyph-name="period.tab" 
d="M88 74h74v-74h-74v74z" />
    <glyph glyph-name="comma.tab" 
d="M88 74h74v-80q0 -40 -14 -62.5t-60 -22.5v36q24 1 29 11.5t5 43.5h-34v74z" />
    <glyph glyph-name="colon.tab" 
d="M88 74h74v-74h-74v74zM88 405h74v-74h-74v74z" />
    <glyph glyph-name="semicolon.tab" 
d="M88 74h74v-80q0 -40 -14 -62.5t-60 -22.5v36q24 1 29 11.5t5 43.5h-34v74zM88 405h74v-74h-74v74z" />
    <glyph glyph-name="space.tab" 
 />
    <glyph glyph-name="cent.lt" horiz-adv-x="500" 
d="M74 229q0 97 43 151t113 62v78h42v-78q37 -3 64 -18.5t44.5 -39t26 -54.5t8.5 -66v-8h-52v8q0 55 -23 89.5t-68 41.5v-358q45 7 68 41t23 90v9h52v-9q0 -35 -8.5 -65.5t-26 -54.5t-44.5 -39t-64 -18v-80h-42v80q-70 8 -113 62t-43 151v25zM130 209q0 -83 27.5 -123
t72.5 -48v357q-45 -8 -72.5 -48t-27.5 -123v-15z" />
    <glyph glyph-name="bracketleft.cap" horiz-adv-x="195" 
d="M110 -24h80v-45h-130v744h130v-45h-80v-654z" />
    </font>
</defs>
</svg>
