<?xml version="1.0" standalone="no"?>
<!DOCTYPE svg PUBLIC "-//W3C//DTD SVG 1.1//EN" "http://www.w3.org/Graphics/SVG/1.1/DTD/svg11.dtd" >
<svg xmlns="http://www.w3.org/2000/svg" xmlns:xlink="http://www.w3.org/1999/xlink" version="1.1">
<metadata>
Created by FontForge 20200314 at Mon Apr 30 12:26:09 2007
 By Unknown
Copyright Copr.1992 Image Club Graphics, Inc.
</metadata>
<defs>
<font id="GaramondCondLightItalic" horiz-adv-x="296" >
  <font-face 
    font-family="Garamond"
    font-weight="500"
    font-style="italic"
    font-stretch="normal"
    units-per-em="1000"
    panose-1="0 0 0 0 0 0 0 0 0 0"
    ascent="800"
    descent="-200"
    x-height="547"
    cap-height="746"
    bbox="-130.907 -296.046 1081 986"
    underline-thickness="15"
    underline-position="-133"
    slope="-12"
    stemh="33"
    stemv="82"
    unicode-range="U+0020-25CA"
  />
<missing-glyph horiz-adv-x="500" 
 />
    <glyph glyph-name=".notdef" horiz-adv-x="500" 
 />
    <glyph glyph-name="space" unicode=" " horiz-adv-x="303" 
 />
    <glyph glyph-name="exclam" unicode="!" horiz-adv-x="156" 
d="M308 658l-158 -444c-4 -11 -9 -28 -20 -28c-9 0 -11 15 -8 23l100 454c10 45 22 101 68 101c48 0 31 -67 18 -106zM142 59c-1 -34 -29 -73 -59 -64c-23 8 -27 35 -24 59c2 31 24 67 55 61c27 -6 29 -32 28 -56z" />
    <glyph glyph-name="quotedbl" unicode="&#x22;" horiz-adv-x="216" 
d="M392 721l-77 -192c-3 -7 -10 -14 -18 -14c-7 0 -11 7 -8 14l43 193c5 22 24 49 46 49s23 -28 14 -50zM297 721l-77 -192c-3 -7 -10 -14 -18 -14c-7 0 -11 7 -9 14l44 193c5 22 23 49 45 49s23 -28 15 -50z" />
    <glyph glyph-name="numbersign" unicode="#" horiz-adv-x="435" 
d="M595 756l-22 -49h-84l-40 -99h84l-19 -47h-85l-48 -123h-29l48 123h-104l-48 -122h-27l47 122h-95l20 47h93l40 99h-95l21 49h94l51 127h27l-49 -127h104l49 125h27l-48 -125h88zM458 706h-105l-37 -98h105z" />
    <glyph glyph-name="dollar" unicode="$" horiz-adv-x="388" 
d="M519 685c2 -10 2 -18 -1 -28l-26 -99c-3 -9 -9 -16 -18 -15c-10 0 -12 19 -14 31l-6 56c0 9 -2 16 -4 24c-3 9 -7 14 -12 22l-71 -244l28 -33c25 -30 32 -57 34 -97c8 -98 -81 -182 -157 -201l-33 -125h-28l33 122h-47l-35 -123h-26l36 128c-13 3 -36 9 -56 20
c-39 23 -45 30 -37 59l37 130c3 7 9 16 17 14c7 -2 10 -8 10 -16v-93c0 -22 0 -38 10 -58c7 -14 16 -21 29 -24l82 282l-15 15c-37 40 -50 79 -47 133c5 88 68 155 155 167l18 68h22l-16 -67c9 1 14 1 23 0c9 0 15 0 24 -2l20 69h25l-21 -74c34 -11 64 -28 67 -41zM419 699
c-9 3 -16 5 -25 5c-9 1 -14 1 -22 0l-61 -215l36 -38zM343 698c-40 -11 -65 -35 -77 -74c-11 -36 -8 -66 13 -97l11 -16zM375 261c-2 32 -13 53 -35 74l-54 -197c57 12 91 78 89 123zM320 359l-36 36l-77 -266c8 -2 13 -3 22 -3c10 0 16 2 26 5z" />
    <glyph glyph-name="percent" unicode="%" horiz-adv-x="708" 
d="M478 562c-12 -121 -140 -215 -218 -184c-72 28 -78 114 -64 192c17 99 109 191 192 177c85 -15 98 -107 90 -185zM790 731l-646 -731h-39l648 731h37zM720 175c-12 -123 -139 -216 -217 -186c-73 28 -77 116 -65 193c18 99 110 191 192 177c87 -16 99 -107 90 -184z
M426 564c21 67 14 166 -45 171c-61 4 -112 -90 -130 -158c-25 -89 -22 -193 43 -186c74 6 109 96 132 173zM669 176c20 66 14 167 -45 171c-62 3 -112 -90 -131 -159c-25 -88 -22 -192 44 -186c73 7 110 97 132 174z" />
    <glyph glyph-name="ampersand" unicode="&#x26;" horiz-adv-x="653" 
d="M729 400c-1 -43 -32 -86 -66 -102c-20 -10 -35 -12 -57 -11c5 -16 9 -31 9 -50c0 -144 -173 -258 -284 -251c-128 9 -230 95 -231 237c-2 126 101 218 209 247c-19 22 -34 61 -33 102c4 110 103 195 215 194c72 0 130 -40 116 -96l-23 -99c-3 -7 -9 -14 -17 -14
c-12 -1 -14 16 -15 27l-3 41c-3 46 -43 79 -91 79c-67 -1 -146 -63 -146 -142c-1 -35 6 -67 30 -83c6 -4 33 4 54 2c24 -2 58 -9 58 -27c1 -28 -45 -28 -63 -27c-38 5 -53 19 -63 24c-67 -20 -146 -117 -143 -230c3 -124 77 -190 179 -194c116 -6 218 107 220 196
c0 44 -25 85 -86 77c-50 -6 -83 -36 -107 -74c-5 -6 -13 -16 -21 -12c-9 3 -4 17 -1 26c17 48 46 71 91 91c70 31 145 11 201 28c46 13 43 58 56 57c6 0 12 -9 12 -16z" />
    <glyph glyph-name="quoteright" unicode="&#x2019;" horiz-adv-x="163" 
d="M334 686c-13 -48 -32 -74 -65 -115c-12 -14 -21 -23 -35 -36l-20 -18c-8 -8 -23 -18 -27 -12c-5 7 5 16 13 24l23 24c10 11 19 19 41 50c16 21 30 51 22 58c-13 11 -59 5 -45 54c7 27 33 51 60 47c37 -4 42 -39 33 -76z" />
    <glyph glyph-name="parenleft" unicode="(" horiz-adv-x="389" 
d="M564 813c2 -9 -9 -16 -18 -19l-37 -14c-142 -54 -236 -204 -313 -480c-22 -80 -49 -232 -41 -312c10 -94 59 -164 128 -180c13 -3 22 -5 17 -17c-4 -11 -14 -8 -22 -6c-166 35 -220 346 -153 568c77 251 231 402 379 452l35 11c9 3 23 5 25 -3z" />
    <glyph glyph-name="parenright" unicode=")" horiz-adv-x="396" 
d="M432 249c-76 -252 -230 -402 -377 -452l-35 -11c-9 -3 -24 -5 -26 3c-2 9 9 15 18 19l37 13c142 54 237 205 313 481c22 79 50 233 41 312c-9 93 -59 163 -128 180c-13 2 -22 4 -17 17c4 10 15 7 22 5c167 -34 220 -346 152 -567z" />
    <glyph glyph-name="asterisk" unicode="*" horiz-adv-x="299" 
d="M463 708c4 -14 -8 -36 -29 -44c-14 -4 -24 -7 -51 -11l-26 -3c-4 0 -7 -4 -8 -7c-1 -4 1 -7 4 -7l24 -4c24 -4 33 -6 44 -11c17 -7 17 -29 3 -44c-15 -16 -37 -16 -49 -3c-9 9 -16 24 -18 26l-10 21c-1 4 -4 10 -10 8c-5 -1 -6 -13 -5 -15l4 -24c1 -16 4 -26 -2 -41
c-5 -16 -21 -32 -37 -32s-26 13 -21 29c3 14 10 25 20 40l19 24c4 6 10 14 6 18c-3 3 -14 -3 -20 -9l-22 -19c-9 -9 -18 -16 -27 -23c-19 -15 -44 -13 -48 3c-3 14 6 34 26 42c12 4 27 6 44 9l28 3c6 1 12 4 13 9c2 4 -3 7 -8 7l-26 5c-15 2 -29 5 -39 9c-15 8 -13 27 0 42
c13 16 38 18 49 2c5 -7 9 -13 14 -23l10 -19c3 -6 10 -12 15 -9c7 5 4 12 4 19l-4 24c-2 14 -2 26 3 39c5 16 23 29 39 29c16 -1 22 -16 19 -31c-4 -15 -13 -27 -24 -41l-18 -24c-2 -3 -9 -14 -3 -15c4 -2 10 3 14 7l22 21c2 2 21 18 33 26c20 14 42 13 48 -3z" />
    <glyph glyph-name="plus" unicode="+" horiz-adv-x="599" 
d="M647 297l-17 -61h-238l-68 -242h-60l69 243h-237l16 59l237 1l67 239h59l-68 -239h240z" />
    <glyph glyph-name="comma" unicode="," horiz-adv-x="166" 
d="M137 33c-5 -51 -21 -84 -49 -129c-24 -38 -52 -65 -80 -88c-7 -4 -16 -9 -23 -4c-9 5 1 19 10 26c35 32 54 53 79 93c11 19 24 50 16 64c-5 9 -41 -3 -47 39c-6 34 22 76 56 73c39 -4 40 -52 38 -74z" />
    <glyph glyph-name="hyphen" unicode="-" horiz-adv-x="315" 
d="M369 306l-17 -61h-252l18 61h251z" />
    <glyph glyph-name="period" unicode="." horiz-adv-x="157" 
d="M135 49c-4 -35 -31 -70 -60 -63c-22 6 -35 38 -27 69c8 29 26 52 54 52c28 -1 36 -33 33 -58z" />
    <glyph glyph-name="slash" unicode="/" horiz-adv-x="504" 
d="M693 860l-681 -1017l-36 3l682 1014h35z" />
    <glyph glyph-name="zero" unicode="0" horiz-adv-x="515" 
d="M577 330c-48 -167 -162 -352 -303 -341c-137 13 -166 233 -129 400c36 164 187 394 323 377c155 -19 156 -271 109 -436zM492 354c42 148 71 394 -34 391c-96 -3 -197 -216 -226 -381c-24 -135 -72 -338 48 -351c104 -11 169 194 212 341z" />
    <glyph glyph-name="one" unicode="1" horiz-adv-x="343" 
d="M436 738l-194 -644c-3 -13 -8 -41 3 -52c10 -12 22 -12 47 -15c35 -4 23 -29 -5 -29c-31 0 -74 2 -105 2c-32 0 -42 -5 -91 -2c-33 1 -20 29 8 31c17 1 23 1 41 15c10 8 17 22 21 39l162 545c2 9 8 22 0 26c-7 4 -14 -2 -21 -4l-57 -25c-9 -3 -18 -6 -25 0
c-14 11 3 22 13 27c34 15 56 28 91 45c42 22 95 63 109 58c7 -2 5 -11 3 -17z" />
    <glyph glyph-name="two" unicode="2" horiz-adv-x="443" 
d="M554 559c-20 -169 -236 -284 -342 -397c-24 -26 -44 -38 -68 -65l-21 -22h135c82 0 123 28 158 91c13 25 25 62 44 63c8 1 12 -11 10 -19l-59 -183c-2 -8 -4 -15 -11 -19c-19 -16 -123 -5 -189 -6c-61 -2 -146 -4 -158 -4c-27 1 -17 24 -8 33l210 215
c104 107 180 178 218 316c19 69 -11 156 -79 157c-81 1 -138 -85 -169 -161c-5 -14 -12 -18 -21 -15s-7 16 -3 27c30 97 113 201 233 183c87 -13 134 -77 120 -194z" />
    <glyph glyph-name="three" unicode="3" horiz-adv-x="452" 
d="M511 629c-3 -89 -63 -144 -142 -190l-85 -50c14 0 35 3 56 -1c103 -21 135 -105 125 -214c-14 -144 -175 -321 -344 -321c-34 0 -87 26 -98 44c-12 20 -16 51 4 67c22 17 54 13 69 -7c10 -16 12 -44 13 -52c4 -22 40 -24 62 -19c110 26 210 163 212 313
c1 141 -65 178 -139 157c-46 -13 -40 -18 -56 -32c-9 -9 -18 -12 -28 -9c-16 6 7 32 21 42c54 39 141 72 189 130c37 46 54 89 59 143c4 36 -9 92 -61 90c-63 -1 -110 -70 -128 -102c-8 -15 -14 -34 -29 -35c-20 -2 -4 31 6 48c31 58 88 127 179 127c77 -1 118 -63 115 -129
z" />
    <glyph glyph-name="four" unicode="4" horiz-adv-x="489" 
d="M596 799l-452 -509h225l72 260l88 30l-84 -290h98l-16 -48h-94l-40 -149c-4 -14 -8 -38 2 -49c12 -14 18 -14 43 -15c37 -2 26 -29 -9 -30c-32 -1 -60 3 -92 3s-57 -6 -105 -4c-34 3 -15 32 23 33c17 0 27 5 43 18c7 6 14 30 20 50l36 143h-253l11 56l445 501h39z" />
    <glyph glyph-name="five" unicode="5" horiz-adv-x="420" 
d="M530 742l-16 -54c-3 -6 -5 -12 -11 -16c-7 -5 -14 -5 -24 -5l-199 -10c-6 0 -14 0 -21 -5c-6 -4 -8 -9 -11 -15l-43 -129c-3 -6 -6 -14 -2 -19c6 -10 43 0 77 -10c122 -34 187 -133 174 -246c-11 -89 -66 -179 -156 -248c-50 -37 -160 -86 -297 -86c-10 0 -23 4 -22 14
c1 11 14 16 25 17c170 15 218 51 274 101c62 55 85 128 93 192c12 114 -62 207 -226 195l100 290c2 6 5 11 10 14c6 4 10 4 17 4z" />
    <glyph glyph-name="six" unicode="6" horiz-adv-x="514" 
d="M680 831c3 -16 -27 -22 -44 -27c-104 -30 -189 -62 -267 -148c-69 -77 -127 -171 -159 -288c-31 -115 -44 -359 94 -351c95 6 141 114 160 203c22 102 0 244 -83 240c-15 0 -31 -4 -44 -15l-9 -7c-8 -6 -16 -16 -26 -11c-8 5 -6 17 8 29l12 11c16 16 48 29 79 28
c120 -5 161 -165 146 -257c-17 -99 -100 -249 -245 -250c-153 -1 -219 181 -178 368c21 98 93 256 223 349c122 88 192 97 299 129c13 3 30 8 34 -3z" />
    <glyph glyph-name="seven" unicode="7" horiz-adv-x="481" 
d="M647 717l-12 -21c-51 -90 -76 -145 -124 -236c-103 -206 -163 -313 -267 -533h-44l360 710c4 8 11 15 7 23s-14 9 -22 9l-292 -2c-9 0 -20 2 -22 10c-5 19 8 64 14 82c17 -11 15 -20 57 -18c43 2 109 2 177 3c61 1 101 3 161 4c29 0 13 -21 7 -31z" />
    <glyph glyph-name="eight" unicode="8" horiz-adv-x="502" 
d="M600 586c-6 -80 -67 -122 -140 -151l-65 -25l40 -29c59 -44 87 -97 86 -171c-1 -117 -123 -228 -240 -226c-115 2 -207 88 -199 196s77 150 138 182l70 32l-43 37c-31 25 -46 71 -48 120c-6 121 128 215 231 208c110 -7 176 -80 170 -173zM527 591c9 68 -19 142 -111 141
c-68 -1 -133 -60 -144 -131c-8 -55 11 -109 60 -142l41 -28l47 21c63 27 100 79 107 139zM443 176c15 88 -68 163 -109 186l-19 11l-44 -19c-52 -23 -112 -88 -118 -181c-6 -86 35 -149 108 -156c108 -9 168 73 182 159z" />
    <glyph glyph-name="nine" unicode="9" horiz-adv-x="518" 
d="M602 400c-21 -98 -95 -267 -221 -365c-117 -94 -192 -115 -301 -136c-13 -3 -38 -7 -42 5c-4 16 35 22 52 27c104 29 191 64 269 151c69 77 124 189 156 306c31 114 44 354 -93 346c-95 -6 -136 -109 -155 -198c-22 -103 -6 -239 77 -237c15 0 28 4 43 13l11 6
c8 5 14 16 24 10c8 -5 8 -16 -6 -28l-13 -12c-15 -16 -46 -25 -77 -24c-119 4 -160 155 -144 254c16 98 97 243 241 243c154 1 220 -174 179 -361z" />
    <glyph glyph-name="colon" unicode=":" horiz-adv-x="160" 
d="M222 360c-6 -29 -29 -61 -58 -51c-26 7 -36 36 -26 66c9 26 27 52 54 51c28 0 37 -38 30 -66zM135 40c-6 -31 -29 -62 -57 -54c-27 8 -37 38 -27 68c9 27 27 52 55 52c28 -1 35 -39 29 -66z" />
    <glyph glyph-name="semicolon" unicode=";" horiz-adv-x="171" 
d="M214 360c-6 -29 -29 -61 -57 -51c-26 7 -37 36 -26 66c8 26 26 52 54 51c28 0 36 -38 29 -66zM140 26c-5 -53 -21 -85 -50 -129c-24 -39 -51 -66 -80 -88c-6 -5 -16 -10 -23 -6c-8 6 2 21 10 28c36 31 55 52 79 92c11 19 25 50 16 65c-5 7 -40 -5 -47 39
c-5 33 22 76 56 72c39 -4 40 -52 39 -73z" />
    <glyph glyph-name="less" unicode="&#x3c;" horiz-adv-x="592" 
d="M722 561l-19 -66l-517 -221l395 -209l-17 -63l-464 245l17 60z" />
    <glyph glyph-name="equal" unicode="=" horiz-adv-x="527" 
d="M599 363l-15 -52h-462l16 52h461zM562 234l-15 -52h-461l15 52h461z" />
    <glyph glyph-name="greater" unicode="&#x3e;" horiz-adv-x="595" 
d="M651 307l-17 -60l-601 -245l17 63l514 209l-392 221l19 66z" />
    <glyph glyph-name="question" unicode="?" 
d="M421 556c-18 -61 -43 -102 -97 -150l-64 -59c-24 -21 -44 -38 -62 -57c-17 -17 -26 -41 -30 -55l-9 -31c-5 -15 -15 -26 -25 -26s-10 17 -7 30l25 105c4 18 9 30 21 46c15 21 30 30 49 47l83 72c41 35 61 70 74 113c18 53 0 118 -36 116c-18 -1 -34 -12 -44 -28l-40 -59
c-11 -17 -24 -38 -42 -38c-15 0 -19 17 -14 31l25 84c4 14 14 24 27 31c18 8 40 13 63 13c95 3 130 -91 103 -185zM149 58c-9 -30 -37 -59 -65 -58c-29 1 -38 29 -30 58c8 28 36 56 64 56s39 -28 31 -56z" />
    <glyph glyph-name="at" unicode="@" horiz-adv-x="825" 
d="M897 506c0 -182 -180 -358 -321 -358c-59 0 -57 42 -57 82l-40 -36c-35 -31 -69 -44 -113 -44c-59 0 -93 54 -93 112c0 145 179 272 293 272c37 0 64 -14 64 -74l38 64h84l-156 -294c-9 -18 -22 -54 6 -54c86 0 238 169 238 318c0 132 -122 182 -234 182
c-218 0 -404 -207 -404 -390c0 -134 87 -244 246 -244c211 0 304 144 304 144h66s-130 -194 -384 -194c-180 0 -288 117 -288 270c0 250 213 466 471 466c138 0 280 -75 280 -222zM607 458c0 39 -22 50 -41 50c-74 0 -214 -182 -214 -275c0 -39 26 -52 48 -52
c76 0 207 182 207 277z" />
    <glyph glyph-name="A" unicode="A" horiz-adv-x="625" 
d="M597 14c-2 -16 -22 -14 -38 -14c-25 0 -45 2 -73 2c-32 0 -57 -3 -83 -2c-14 1 -32 2 -26 17c4 12 14 14 26 16c29 5 37 7 49 23c7 9 9 24 9 39v182h-178l-92 -170c-6 -10 -22 -42 -9 -55c9 -12 27 -16 51 -16c41 -3 28 -36 0 -36c-31 0 -58 3 -89 3c-32 0 -38 -5 -86 -3
c-34 2 -25 30 9 35c12 2 21 5 31 13c7 5 21 20 30 35l384 653c5 7 10 18 18 15c6 -2 10 -8 10 -13v-646c0 -18 0 -35 6 -45c9 -12 22 -12 36 -15c7 -2 18 -5 15 -18zM461 319v269l-155 -269h155z" />
    <glyph glyph-name="B" unicode="B" horiz-adv-x="578" 
d="M669 607c-2 -138 -134 -191 -218 -204c120 -12 163 -94 155 -180c-17 -183 -139 -231 -331 -223c-43 2 -70 2 -114 2c-32 0 -49 -2 -83 -2c-24 0 -39 1 -33 16c8 22 45 14 63 30c11 9 16 19 20 32l171 589c3 15 2 28 -12 39c-11 9 -42 5 -48 20c-3 8 3 20 19 20l133 -2
c38 0 9 -2 98 2c111 5 182 -39 180 -139zM587 612c2 58 -20 103 -117 99c-32 -1 -52 -1 -77 -2l-84 -290c19 -3 28 -3 47 -3c136 1 228 78 231 196zM521 218c20 100 -24 170 -144 168c-29 -1 -59 2 -78 -4l-76 -273c-16 -53 -13 -81 59 -81c134 -1 210 47 239 190z" />
    <glyph glyph-name="C" unicode="C" horiz-adv-x="536" 
d="M694 754c7 -9 0 -31 -5 -49l-36 -127c-4 -16 -8 -36 -19 -39c-21 -6 -23 28 -21 47l12 99c5 46 -1 55 -80 38c-139 -29 -274 -177 -316 -342c-34 -140 -32 -364 108 -363c63 1 123 50 154 118l38 84c7 16 21 36 34 28c8 -6 7 -16 4 -26l-43 -161c-3 -12 -7 -24 -16 -31
c-24 -15 -120 -43 -169 -44c-197 -1 -261 199 -196 415c64 213 293 370 473 368c56 0 67 -2 78 -15z" />
    <glyph glyph-name="D" unicode="D" horiz-adv-x="624" 
d="M698 366c-52 -219 -172 -392 -456 -366c-38 4 -62 4 -101 3c-28 0 -46 -1 -73 -3c-25 -2 -38 2 -30 17c12 26 58 9 81 35c11 13 15 23 20 39l150 526c8 30 19 69 3 83c-17 15 -47 5 -52 28c-3 13 15 18 27 18h265c201 0 201 -232 166 -380zM610 387
c34 133 60 320 -123 320c-44 0 -62 1 -87 0l-165 -570c-20 -72 -19 -103 54 -106c196 -7 270 156 321 356z" />
    <glyph glyph-name="E" unicode="E" horiz-adv-x="516" 
d="M648 722l-43 -147c-4 -13 -12 -27 -24 -26c-15 0 -13 21 -12 35l3 73c2 55 -30 50 -112 50h-66l-84 -278c-1 -2 -3 -12 1 -16c2 -3 6 -5 11 -5h71c20 0 35 2 52 12c22 12 34 26 45 48l17 32c3 8 12 15 20 12c7 -3 10 -11 8 -19l-9 -27c-9 -31 -16 -48 -24 -78
c-11 -37 -17 -60 -27 -98l-6 -24c-2 -9 -9 -18 -18 -19c-13 -2 -13 18 -13 31v40c1 18 -2 31 -13 42c-12 12 -37 15 -43 15h-73c-3 0 -6 0 -10 -3c-3 -1 -5 -4 -6 -7l-57 -202c-12 -43 -31 -98 -16 -115c11 -12 27 -15 45 -15h53c31 0 82 10 112 36c17 15 35 40 49 70l26 51
c6 12 16 26 28 23c8 -2 12 -10 10 -17l-49 -167c-2 -7 -4 -12 -8 -18c-7 -6 -13 -11 -20 -11h-394c-17 0 -41 -5 -36 14c6 25 51 15 73 34c11 11 15 19 18 32l161 558c6 22 11 49 3 61c-11 16 -52 2 -52 31c-1 16 41 18 61 16c49 -2 84 -7 138 -7c68 0 116 8 177 7
c40 0 40 4 33 -24z" />
    <glyph glyph-name="F" unicode="F" horiz-adv-x="482" 
d="M658 723l-50 -168c-3 -11 -6 -23 -17 -25c-18 -5 -18 18 -18 32l3 67c2 59 -22 75 -133 77c-26 0 -36 -2 -52 -5l-83 -272c-1 -1 -3 -11 1 -16c2 -3 6 -4 11 -4h70c23 0 40 4 60 13c27 13 36 31 45 48l13 24c3 8 11 12 19 10c7 -2 11 -11 9 -18l-6 -20
c-9 -32 -16 -49 -25 -80c-10 -40 -19 -63 -27 -103l-5 -22c-2 -9 -8 -17 -16 -18c-12 -1 -18 13 -18 24l3 51c1 17 -2 30 -13 41c-13 13 -40 13 -46 13h-77c-4 0 -7 0 -10 -2c-4 -3 -6 -7 -6 -11l-74 -255c-6 -20 -9 -39 -2 -55c15 -35 90 -3 83 -38c-4 -19 -29 -11 -45 -11
h-94h-85c-17 0 -42 -5 -37 14c6 25 40 11 63 28c14 10 20 26 26 45l165 563c5 17 9 32 -2 47c-11 16 -52 7 -51 29c2 23 46 22 67 20c48 -2 84 -3 137 -3c69 0 117 3 178 3c19 0 47 6 39 -23z" />
    <glyph glyph-name="G" unicode="G" horiz-adv-x="634" 
d="M725 710l-46 -156c-3 -12 -17 -23 -26 -21c-21 2 -16 29 -13 48l19 106c9 50 -50 42 -97 33c-148 -31 -279 -174 -328 -342c-47 -164 2 -351 137 -361c58 -6 93 24 97 38l49 193c6 19 10 42 1 52c-19 20 -73 -2 -73 30c0 21 34 16 55 16c25 0 52 -3 86 -3c28 0 47 4 73 4
c17 -1 37 0 36 -16c-1 -20 -45 -19 -61 -29c-13 -7 -18 -22 -22 -38l-56 -212c-3 -11 -5 -19 -13 -26c-35 -32 -120 -43 -168 -42c-199 3 -292 200 -231 403c57 192 232 350 451 375c55 7 119 0 129 -17c5 -9 4 -22 1 -35z" />
    <glyph glyph-name="H" unicode="H" horiz-adv-x="654" 
d="M809 730c0 -25 -44 -10 -65 -29c-11 -10 -20 -30 -25 -51l-151 -557c-5 -17 -9 -38 -2 -47c12 -20 68 -2 63 -34c-2 -18 -22 -12 -39 -12c-31 0 -60 3 -97 3c-26 0 -37 -3 -69 -3c-16 0 -40 -4 -33 16c11 27 46 5 71 27c14 12 22 47 28 67l72 261h-260l-73 -264
c-6 -19 -16 -49 -5 -62c19 -22 77 4 72 -27c-3 -20 -29 -18 -45 -18c-31 0 -49 4 -79 4c-32 0 -53 -4 -83 -4c-17 0 -43 -4 -40 15c7 31 50 10 71 29c11 11 18 31 23 52l153 554c4 19 10 43 4 54c-10 19 -70 0 -61 29c6 19 41 13 57 13c31 0 48 -3 79 -3c24 0 32 3 63 3
c16 0 38 2 34 -14c-6 -25 -50 -12 -72 -31c-14 -10 -22 -48 -28 -67l-60 -226h258l62 226c6 18 16 54 10 66c-12 23 -59 3 -55 30c4 22 26 17 42 16c24 -1 40 -1 64 -1c31 0 49 1 80 1c17 0 36 3 36 -16z" />
    <glyph glyph-name="I" unicode="I" 
d="M468 729c-5 -25 -45 -9 -71 -31c-13 -12 -21 -47 -26 -64l-148 -525c-6 -18 -16 -49 -9 -60c12 -23 69 -5 63 -32c-3 -19 -38 -17 -54 -17c-31 0 -38 2 -62 2c-30 0 -49 -2 -79 -2c-17 0 -46 -4 -42 15c6 29 44 13 68 30c14 10 22 29 27 50l157 552c5 22 12 48 3 58
c-15 17 -61 0 -53 28c5 19 37 13 54 13c30 0 47 -3 78 -3c24 0 32 3 63 3c16 0 35 3 31 -17z" />
    <glyph glyph-name="J" unicode="J" horiz-adv-x="317" 
d="M495 729c-8 -26 -51 -15 -73 -30c-14 -10 -19 -35 -24 -53l-175 -620c-23 -83 -87 -175 -108 -195c-60 -53 -81 -65 -123 -67c-60 -2 -82 53 -80 78c2 29 26 63 60 50c42 -17 9 -80 44 -90c23 -7 52 28 69 54c30 43 45 123 67 204l163 587c5 19 8 41 -2 52
c-14 16 -69 2 -69 30c-1 24 39 17 56 17c31 0 49 -4 79 -4c27 0 38 4 69 4c16 0 54 7 47 -17z" />
    <glyph glyph-name="K" unicode="K" horiz-adv-x="639" 
d="M766 733c-2 -23 -40 -20 -71 -38c-29 -15 -51 -40 -77 -65l-194 -183l122 -369c4 -13 10 -23 16 -31c19 -25 56 1 51 -31c-2 -21 -30 -16 -57 -16c-28 -1 -13 0 -45 0c-25 0 -32 13 -38 30l-113 355l-61 -61l-66 -233c-5 -19 -4 -35 6 -48c17 -22 66 -3 61 -29
c-4 -20 -33 -14 -50 -14c-31 0 -46 2 -74 2c-22 0 -26 -2 -57 -2c-16 0 -58 -8 -54 11c5 29 39 10 61 30c11 10 15 33 21 55l155 545c5 19 10 42 1 54c-13 19 -65 10 -60 31c5 19 21 20 39 20c30 0 54 -3 88 -3c30 0 46 3 78 3c16 0 37 2 34 -13c-7 -32 -54 -16 -73 -34
c-10 -9 -18 -24 -22 -42l-74 -267c30 21 99 91 160 150c40 39 64 60 103 102l16 18c11 11 17 30 10 40c-12 16 -59 7 -56 30c2 18 35 16 53 16c23 0 39 -3 64 -3c31 0 48 2 79 3c16 1 25 -1 24 -13z" />
    <glyph glyph-name="L" unicode="L" horiz-adv-x="505" 
d="M532 187l-42 -157c-6 -22 -10 -31 -52 -30c-61 0 -109 2 -178 2c-63 0 -133 -2 -163 -2c-17 0 -48 -5 -42 14c9 26 41 13 64 30c15 11 22 29 28 49l158 554c5 19 13 44 5 54c-14 20 -68 0 -66 28c2 20 33 17 49 17c31 0 58 -3 95 -3c25 1 33 3 64 3c16 0 42 5 40 -16
c-3 -23 -54 -7 -79 -30c-13 -12 -19 -40 -23 -57l-170 -605c19 -1 41 -1 63 -1c130 -1 158 41 199 120l22 43c6 11 14 26 26 20c10 -3 5 -21 2 -33z" />
    <glyph glyph-name="M" unicode="M" horiz-adv-x="780" 
d="M907 733c-1 -19 -32 -19 -54 -29c-15 -7 -21 -22 -25 -40l-129 -575c-4 -17 -6 -37 -1 -46c9 -19 57 0 58 -27c2 -21 -36 -17 -56 -16c-25 0 -45 2 -73 2c-32 0 -54 -2 -81 -2c-13 0 -29 -1 -26 15c4 27 39 12 67 28c19 11 25 29 30 52l142 588l-378 -657
c-5 -9 -11 -19 -20 -19c-8 0 -9 14 -9 23l-1 633l-175 -547c-7 -23 -10 -54 -1 -68c17 -29 80 2 70 -35c-3 -14 -34 -13 -48 -13c-27 0 -43 2 -69 2c-28 0 -48 -3 -71 -2c-10 0 -25 2 -20 15c9 21 31 12 51 25c18 9 32 37 42 65l188 560c5 14 6 31 -1 40
c-13 15 -56 -3 -55 23c1 14 16 18 29 18h121c7 0 12 -1 17 -5c5 -5 4 -13 4 -21v-540l312 546c4 7 8 13 13 16c4 2 11 4 17 4h119c6 0 13 -6 13 -13z" />
    <glyph glyph-name="N" unicode="N" horiz-adv-x="627" 
d="M803 728c-4 -25 -32 -13 -52 -25c-14 -8 -25 -26 -31 -46l-189 -648c-4 -11 -8 -27 -18 -26c-11 0 -14 13 -16 25l-167 646l-161 -546c-6 -21 -8 -47 0 -59c18 -24 73 0 71 -33c-1 -15 -16 -17 -52 -16c-27 0 -44 2 -72 2c-27 0 -48 -3 -70 -2c-10 0 -25 3 -23 17
c4 26 35 14 58 23c28 9 41 51 47 73l162 538c6 19 12 41 4 52c-14 16 -52 4 -52 26c0 18 18 17 32 17h110l154 -581l141 495c3 15 5 29 -2 39c-14 20 -67 -5 -65 27c0 22 32 20 47 20c21 -1 32 -2 58 -2c31 0 89 11 86 -16z" />
    <glyph glyph-name="O" unicode="O" horiz-adv-x="615" 
d="M691 364c-41 -204 -212 -405 -366 -381c-168 27 -220 241 -175 425c41 173 181 361 349 353c181 -8 223 -239 192 -397zM604 375c49 178 16 354 -107 357c-110 2 -185 -94 -262 -348c-41 -137 -55 -356 105 -367c139 -11 222 207 264 358z" />
    <glyph glyph-name="P" unicode="P" horiz-adv-x="528" 
d="M661 605c-1 -158 -119 -277 -311 -277h-63l-62 -228c-5 -20 -7 -43 0 -55c14 -25 84 -2 77 -29c-3 -20 -29 -16 -45 -16c-31 0 -63 2 -103 2c-30 0 -48 -2 -79 -2c-16 0 -40 -5 -35 14c6 25 53 11 75 30c11 11 15 23 19 39l154 559c5 18 12 45 6 59c-11 24 -57 6 -55 28
c3 23 28 17 49 17c49 0 52 -1 84 -1c51 0 93 -2 133 1c92 7 157 -47 156 -141zM575 574c12 73 -10 141 -70 141h-111l-99 -358c191 -10 261 100 280 217z" />
    <glyph glyph-name="Q" unicode="Q" horiz-adv-x="628" 
d="M689 306c-42 -138 -115 -246 -258 -310c-40 -17 -68 -17 -109 -32c-36 -14 -56 -26 -89 -46c25 -3 42 -4 66 -11c63 -20 112 -74 166 -65c48 8 78 39 97 80c5 11 8 29 19 26s10 -18 7 -29c-23 -84 -80 -151 -169 -152c-72 0 -109 48 -171 97c-18 15 -35 22 -58 24
c-24 -13 -50 -36 -74 -49c-16 -8 -31 -15 -44 -6c-24 19 13 55 38 67c21 10 43 16 72 22c23 19 40 30 67 43c21 11 37 17 55 24c-115 38 -168 164 -166 297c5 260 202 496 353 481c220 -23 254 -277 198 -461zM597 321c40 159 75 396 -104 412c-115 11 -200 -158 -238 -301
c-44 -157 -70 -397 73 -415c146 -19 230 152 269 304z" />
    <glyph glyph-name="R" unicode="R" horiz-adv-x="622" 
d="M658 548c-30 -91 -100 -148 -212 -192c5 -9 6 -13 9 -20c7 -16 12 -34 14 -44l52 -209c4 -18 10 -38 21 -43c19 -11 59 -1 58 -24c0 -18 -20 -16 -35 -16h-82c-12 0 -25 2 -31 9c-3 5 -26 125 -47 203c-13 48 -24 98 -37 122c-12 -1 -20 -2 -40 -3c-9 0 -24 -2 -33 -2
l-67 -226c-5 -19 -14 -41 -8 -53c14 -25 73 -4 68 -32c-5 -20 -27 -18 -43 -18c-31 0 -53 2 -87 2c-30 0 -49 -2 -80 -2c-16 0 -40 -5 -35 14c6 25 55 15 76 34c12 11 15 20 19 35l159 555c6 22 14 50 6 63c-12 20 -59 6 -59 32c-1 18 23 13 43 13h59c63 0 123 -3 162 0
c123 8 191 -77 150 -198zM581 603c4 66 -13 119 -109 114c-40 -1 -53 0 -68 -4l-99 -349c18 -1 5 -1 49 2c113 9 219 111 227 237z" />
    <glyph glyph-name="S" unicode="S" horiz-adv-x="422" 
d="M553 699l-32 -134c-2 -8 -5 -19 -13 -20c-16 -3 -17 21 -17 36l1 70c3 46 -25 86 -74 88c-74 5 -118 -57 -132 -98c-19 -57 3 -114 36 -156l68 -85c51 -66 74 -124 61 -205c-14 -91 -95 -207 -228 -207c-57 0 -98 17 -147 52l15 164c2 16 8 33 20 35c19 3 19 -29 20 -48
l4 -70c3 -51 29 -98 83 -103c103 -8 149 82 157 147c10 77 -12 109 -51 162l-66 88c-30 41 -51 87 -49 146c5 120 111 211 230 205c46 -2 97 -17 112 -37c5 -7 5 -19 2 -30z" />
    <glyph glyph-name="T" unicode="T" horiz-adv-x="565" 
d="M745 747l-46 -172c-4 -14 -9 -30 -23 -32c-19 -1 -14 16 -13 26l9 77c2 8 5 45 -8 53s-23 8 -39 8h-90l-170 -591c-5 -16 -15 -58 -9 -70c12 -22 70 -3 63 -30c-3 -20 -41 -16 -57 -16c-31 0 -38 2 -63 2c-30 0 -48 -2 -79 -2c-17 0 -48 -5 -44 14c6 29 49 12 72 29
c15 10 19 38 26 63l175 601h-86c-20 0 -49 -3 -69 -22c-14 -13 -30 -40 -42 -67l-27 -59c-5 -12 -10 -22 -25 -20c-12 1 -9 23 -5 37l57 185c5 14 9 28 23 29c18 3 14 -32 21 -38c4 -4 7 -6 13 -6h376c7 0 11 3 19 8c15 8 22 45 38 35c14 -8 6 -27 3 -42z" />
    <glyph glyph-name="U" unicode="U" horiz-adv-x="625" 
d="M807 729c-2 -16 -41 -13 -56 -23c-18 -11 -26 -27 -32 -49l-145 -491c-28 -101 -115 -195 -247 -189c-116 6 -208 76 -156 243l127 424c7 22 10 47 -3 59c-16 15 -56 4 -50 27c5 18 22 16 39 16c31 0 59 -5 95 -5c31 1 47 5 78 5c16 0 35 0 28 -18c-9 -24 -56 -8 -83 -33
c-13 -13 -21 -46 -27 -64l-131 -443c-22 -75 -6 -181 109 -177c117 3 167 83 195 183l131 450c6 21 13 37 3 55c-11 23 -70 2 -71 27c-1 26 27 20 40 20c24 0 46 -1 75 -1c26 0 44 2 67 1c10 0 17 -1 14 -17z" />
    <glyph glyph-name="V" unicode="V" horiz-adv-x="628" 
d="M815 732c-3 -20 -37 -19 -48 -25c-15 -8 -30 -31 -36 -42l-372 -664c-3 -9 -10 -20 -19 -18c-7 3 -9 11 -9 19l-20 661c0 15 -2 25 -9 38c-14 20 -62 5 -58 25c3 23 25 21 47 20c24 -1 46 -2 76 -2s48 2 79 2c14 0 28 -4 24 -18c-4 -19 -29 -12 -55 -20
c-21 -6 -24 -29 -24 -51l13 -510l281 512c9 15 12 36 1 45c-19 16 -71 3 -70 25c0 20 28 18 41 17c22 -1 40 -4 65 -4c30 0 58 5 80 4c10 0 15 -7 13 -14z" />
    <glyph glyph-name="W" unicode="W" horiz-adv-x="875" 
d="M1058 733c1 -13 -13 -17 -23 -19c-25 -5 -49 -16 -64 -43l-371 -663c-4 -8 -8 -19 -16 -19s-10 10 -10 18l-15 324l-202 -325c-4 -8 -9 -16 -19 -18c-8 -2 -9 10 -9 18l-27 654c0 18 0 31 -13 45c-14 15 -44 5 -45 25c-2 21 30 16 46 16c23 0 41 -2 66 -2c24 0 30 2 61 2
c14 0 22 -2 21 -15c-3 -20 -40 -19 -46 -23c-15 -10 -12 -22 -12 -36l20 -531l155 246l-17 268c-2 20 -2 36 -17 49c-14 13 -48 5 -49 23c-2 22 26 19 41 19c23 -1 39 -3 64 -3c27 0 40 3 71 3c14 0 19 -2 18 -13c-1 -16 -7 -16 -29 -22c-22 -4 -27 -16 -26 -35l11 -175
l92 155c9 16 16 32 12 46c-6 19 -31 8 -31 30c1 17 37 14 50 14c22 0 26 -1 42 -1c20 0 30 0 52 1c10 0 26 0 23 -15c-2 -16 -27 -20 -37 -21c-25 -5 -55 -27 -74 -59l-125 -210l17 -281l286 499c7 14 16 32 9 43c-8 14 -45 8 -42 31c1 16 17 13 30 13c22 0 38 -2 61 -2
c21 0 34 3 56 2c9 0 14 -5 15 -13z" />
    <glyph glyph-name="X" unicode="X" horiz-adv-x="664" 
d="M786 729c-5 -21 -43 -15 -62 -25c-36 -19 -64 -57 -76 -71l-172 -230l97 -331c4 -13 5 -20 22 -31c20 -12 53 -3 52 -23c0 -17 -16 -19 -44 -18c-25 1 -46 3 -75 3c-36 0 -58 -4 -93 -3c-13 0 -33 -1 -30 14c6 33 64 7 80 38c9 17 1 40 -6 63l-60 217l-153 -216
c-17 -23 -37 -50 -26 -70c15 -27 61 0 60 -30c-1 -19 -18 -16 -36 -16c-34 -1 -59 3 -96 2c-24 0 -39 -3 -63 -2c-18 0 -28 2 -24 17c7 25 41 11 73 33c23 16 51 49 64 66l189 257l-83 290c-5 20 -12 38 -30 45c-19 9 -52 2 -52 21c1 19 23 18 41 17c26 -1 48 -2 78 -2
c33 0 51 0 84 2c16 2 33 -2 28 -17c-9 -23 -40 -10 -60 -23c-19 -12 -14 -33 -9 -51l59 -214l146 205c11 12 35 49 18 64c-11 8 -68 -5 -66 19c1 17 17 17 29 17c31 -1 57 -3 91 -3c33 0 61 3 86 3c14 0 22 -4 19 -17z" />
    <glyph glyph-name="Y" unicode="Y" horiz-adv-x="608" 
d="M790 731c0 -20 -32 -16 -51 -30c-29 -20 -41 -38 -62 -69l-217 -305l-64 -228c-5 -19 -7 -40 1 -52c13 -19 63 -1 62 -30c-1 -15 -17 -16 -32 -17c-30 -1 -63 2 -102 2c-33 0 -54 -3 -86 -2c-14 0 -29 5 -23 18c10 29 45 10 72 26c8 5 12 13 15 22l78 271l-61 320
c-3 19 -5 38 -19 48c-18 12 -56 4 -54 28c1 18 38 14 55 13c26 -1 43 -3 70 -3c30 0 44 1 78 3c15 1 36 -1 33 -17c-7 -25 -49 -13 -67 -23c-18 -9 -16 -40 -12 -65l51 -270l182 264c10 13 37 50 20 72c-13 16 -65 1 -62 25c2 16 28 14 41 14c30 -1 40 -2 65 -2
c25 1 39 2 64 2c14 0 26 -1 25 -15z" />
    <glyph glyph-name="Z" unicode="Z" horiz-adv-x="529" 
d="M657 739c0 -5 -3 -9 -6 -13l-495 -691l141 4c43 1 82 4 110 19c25 13 62 46 81 89l25 58c5 13 14 29 25 28c8 -2 11 -19 8 -30l-44 -174c-1 -8 -6 -15 -12 -21c-7 -7 -15 -8 -26 -8h-403c-8 0 -17 0 -20 7c-4 8 8 22 16 33l489 675l-68 -1c-49 0 -90 -1 -125 -16
c-41 -17 -76 -52 -98 -101l-18 -41c-6 -14 -11 -31 -27 -31c-16 -1 -9 34 -4 53l39 154c2 5 4 10 10 13c3 0 6 1 9 1h369c9 0 23 -1 24 -7z" />
    <glyph glyph-name="bracketleft" unicode="[" horiz-adv-x="205" 
d="M409 780l-11 -33h-71c-13 0 -26 -3 -35 -8c-9 -6 -15 -19 -19 -32l-218 -770c-3 -11 -4 -24 0 -30c6 -10 19 -11 32 -11h68l-9 -35h-113c-11 0 -22 5 -27 11c-4 6 -4 20 -1 31l239 839c3 13 10 24 20 31s23 7 38 7h107z" />
    <glyph glyph-name="backslash" unicode="\" horiz-adv-x="516" 
d="M506 -36h-47l-240 782h42z" />
    <glyph glyph-name="bracketright" unicode="]" horiz-adv-x="216" 
d="M397 740l-237 -845c-3 -14 -10 -24 -20 -31c-10 -6 -23 -7 -37 -7h-108l10 34h72c13 0 26 2 35 8c10 5 16 18 19 31l215 776c3 11 4 23 0 30c-5 9 -18 10 -31 10h-69l9 36h113c11 0 22 -5 27 -11c5 -7 5 -20 2 -31z" />
    <glyph glyph-name="asciicircum" unicode="^" horiz-adv-x="360" 
d="M496 581h-64l-48 110l-102 -110h-80l171 174h45z" />
    <glyph glyph-name="underscore" unicode="_" horiz-adv-x="726" 
d="M753 -183h-748v35h748v-35z" />
    <glyph glyph-name="quoteleft" unicode="&#x2018;" horiz-adv-x="162" 
d="M321 754c4 -6 -6 -16 -13 -24l-23 -24c-10 -11 -20 -19 -42 -49c-16 -21 -29 -52 -22 -59c14 -11 59 -5 45 -54c-8 -27 -33 -51 -59 -47c-38 5 -43 39 -33 76c13 49 30 74 65 115c11 14 19 23 34 36l20 18c9 8 22 18 28 12z" />
    <glyph glyph-name="a" unicode="a" horiz-adv-x="562" 
d="M593 546c2 -5 -1 -13 -3 -19l-123 -393c-7 -24 -18 -67 -1 -65c28 5 64 69 98 123c5 8 10 17 20 15c12 -2 3 -22 -2 -32c-46 -97 -145 -218 -204 -180c-19 13 -8 76 6 120l51 159l-76 -114c-57 -88 -149 -180 -209 -175c-141 12 -59 269 32 389c76 101 196 178 277 162
c23 -3 35 -14 52 -24l8 23c2 5 2 10 7 13c4 4 11 4 18 4h34c6 0 12 -1 15 -6zM457 508c-73 23 -157 -76 -210 -162c-61 -99 -116 -272 -72 -291c47 -22 146 90 203 178c60 92 166 246 79 275z" />
    <glyph glyph-name="b" unicode="b" horiz-adv-x="536" 
d="M550 194c-74 -133 -209 -247 -344 -188c-72 31 -64 132 -41 211l128 444c4 16 7 34 -1 43c-13 16 -46 0 -50 16c-6 35 40 18 79 29c44 13 64 38 76 32c8 -4 1 -23 -3 -37l-130 -437c12 18 52 92 96 141c52 57 102 123 179 101c100 -28 86 -220 11 -355zM498 492
c-59 25 -141 -90 -195 -176c-61 -98 -135 -255 -70 -291c88 -50 189 84 242 194c47 95 84 248 23 273z" />
    <glyph glyph-name="c" unicode="c" horiz-adv-x="420" 
d="M486 476c-1 -28 -16 -56 -42 -60c-22 -2 -37 16 -44 36c-9 27 -6 71 -37 63c-89 -22 -146 -128 -172 -239c-22 -88 -29 -224 61 -227c58 -3 113 51 145 105l20 36c5 9 11 21 20 20c9 -2 4 -26 -3 -39l-18 -37c-26 -49 -110 -147 -194 -146c-88 1 -148 104 -116 267
c28 136 144 274 286 293c43 6 98 -26 94 -72z" />
    <glyph glyph-name="d" unicode="d" horiz-adv-x="555" 
d="M651 765l-179 -602c-11 -37 -29 -102 -12 -100c30 4 64 78 97 134c5 7 8 17 17 16c13 -1 4 -22 -1 -32c-40 -100 -125 -217 -188 -186c-22 11 -12 92 5 146l38 123l-53 -79c-60 -94 -150 -204 -210 -199c-141 12 -79 276 11 396c77 101 201 189 293 164
c20 -4 33 -17 36 -25l45 149c2 10 2 20 -4 28c-13 21 -58 -3 -60 18c-3 32 54 21 89 32c43 13 56 34 71 35c8 0 7 -11 5 -18zM456 517c-74 24 -164 -81 -218 -166c-71 -112 -101 -283 -50 -300c48 -18 136 96 190 184c59 96 165 254 78 282z" />
    <glyph glyph-name="e" unicode="e" horiz-adv-x="420" 
d="M493 448c7 -117 -103 -190 -292 -212l-19 -2c-8 -71 -10 -172 64 -182c80 -12 126 64 173 126c7 10 13 29 26 23c12 -6 -3 -24 -8 -36c-40 -81 -120 -178 -219 -170c-158 12 -134 273 -52 406c94 151 317 237 327 47zM429 468c-9 98 -110 52 -147 3
c-25 -33 -63 -87 -91 -201l-1 -9l24 5c160 27 221 130 215 202z" />
    <glyph glyph-name="f" unicode="f" horiz-adv-x="378" 
d="M544 702c-1 -31 -16 -58 -45 -62c-21 -3 -40 18 -39 39c2 23 5 46 -12 44c-44 -6 -73 -77 -94 -151l-14 -47h85l-11 -37h-83l-128 -505c-5 -19 -65 -267 -199 -273c-38 -3 -77 16 -89 52c-8 24 -9 63 23 78c21 9 51 -5 54 -32s-2 -60 18 -66c42 -14 68 63 75 95l172 651
h-78l12 37h76c19 58 34 97 57 134c45 67 123 106 168 103c29 -1 53 -31 52 -60z" />
    <glyph glyph-name="g" unicode="g" horiz-adv-x="426" 
d="M536 490l-17 -42h-75c16 -26 20 -54 20 -91c2 -114 -83 -221 -190 -223c-37 -1 -59 15 -88 38c-14 -9 -29 -27 -28 -47c0 -27 20 -41 43 -49l93 -36c72 -28 131 -76 135 -150c4 -108 -111 -183 -212 -186c-95 -2 -223 61 -219 165c4 69 59 112 127 133l38 12
c-37 22 -57 57 -48 99c8 41 38 71 58 82c-35 37 -46 87 -41 145c9 103 95 193 189 191c40 -1 67 -15 98 -41h117zM384 312c18 75 24 186 -53 193c-48 3 -94 -63 -114 -121c-29 -82 -30 -205 36 -218c68 -13 113 72 131 146zM365 -150c1 43 -14 85 -110 123l-56 22l-44 -15
c-53 -19 -90 -58 -89 -117c1 -85 80 -127 157 -125c70 3 139 42 142 112z" />
    <glyph glyph-name="h" unicode="h" horiz-adv-x="560" 
d="M612 405c0 -164 -129 -417 -281 -417c-34 0 -77 14 -77 65c0 25 13 53 48 53c59 0 29 -73 67 -73c58 0 161 261 161 374c0 50 -12 74 -42 74c-36 0 -97 -66 -146 -132c-33 -44 -103 -168 -153 -282l-29 -67h-73l214 660c6 18 7 41 -3 50c-15 16 -58 -5 -56 23
c3 22 64 10 101 24c23 9 51 31 60 29c8 -3 9 -12 7 -19l-149 -475c3 2 69 97 69 97c57 80 124 162 198 162c62 0 84 -71 84 -146z" />
    <glyph glyph-name="i" unicode="i" horiz-adv-x="326" 
d="M397 675c-10 -24 -25 -45 -51 -43c-34 2 -37 54 -23 85c9 23 26 44 51 42c34 -2 35 -53 23 -84zM348 204c11 -6 2 -27 -2 -38c-37 -88 -120 -182 -166 -177c-51 5 -37 87 -20 139l107 308c6 18 16 52 -4 48c-26 -5 -78 -88 -97 -123c-6 -10 -8 -16 -17 -17
c-15 -2 -7 26 -1 38c40 80 118 175 171 168c43 -5 29 -83 12 -131l-98 -291c-7 -22 -14 -61 -1 -63c24 -3 61 59 88 104c9 14 15 41 28 35z" />
    <glyph glyph-name="j" unicode="j" horiz-adv-x="237" 
d="M397 675c-10 -24 -25 -45 -51 -43c-34 2 -37 54 -23 85c9 23 26 44 51 42c34 -2 35 -53 23 -84zM331 419l-140 -491c-31 -107 -111 -198 -193 -199c-38 0 -72 37 -69 75c6 74 69 64 81 23c7 -27 -6 -69 24 -64c34 5 64 89 82 153l151 520c5 17 14 49 -6 45
c-27 -5 -79 -83 -98 -118c-6 -10 -10 -16 -19 -16c-14 0 -3 25 3 37c40 80 119 173 172 166c43 -5 27 -83 12 -131z" />
    <glyph glyph-name="k" unicode="k" horiz-adv-x="536" 
d="M548 540c77 -52 29 -175 -4 -214c-49 -59 -148 -93 -215 -99c18 -7 36 -30 46 -56c22 -61 46 -154 94 -138c22 7 26 27 27 48c0 28 -31 23 -36 66c-3 22 10 48 37 46c24 -2 36 -30 38 -55c5 -66 -29 -139 -96 -144c-59 -5 -97 38 -119 99c-15 44 -30 117 -67 122
l-72 -215h-69l190 672c3 12 5 22 0 34c-9 21 -44 2 -57 22c-19 32 60 10 95 24c26 9 56 60 66 33c3 -9 2 -17 0 -26l-131 -441c17 22 58 94 103 147c45 54 111 116 170 75zM493 494c-38 20 -96 -49 -138 -103c-40 -51 -81 -133 -84 -143c53 -2 147 13 204 96
c33 48 60 128 18 150z" />
    <glyph glyph-name="l" unicode="l" horiz-adv-x="302" 
d="M406 783c7 -3 1 -22 -3 -34l-185 -592c-10 -34 -21 -89 -11 -92c24 -6 75 66 96 116c6 13 13 30 25 28c12 -3 2 -29 -3 -42c-31 -78 -121 -189 -174 -174c-47 13 -25 107 -6 169l155 500c5 18 10 36 -3 49c-14 14 -60 -6 -54 19c7 25 43 11 102 31c32 11 46 31 61 22z
" />
    <glyph glyph-name="m" unicode="m" horiz-adv-x="862" 
d="M884 207c6 -3 5 -22 0 -32c-55 -104 -145 -186 -183 -181c-56 8 -34 98 -14 153l102 281c10 28 4 79 -23 74c-33 -7 -81 -58 -114 -108c-55 -81 -106 -187 -121 -222l-70 -172h-72l109 334c20 61 48 166 15 166c-53 1 -119 -109 -173 -194c-49 -75 -77 -154 -98 -209
l-35 -97h-71l125 399c10 32 27 94 3 87c-18 -5 -75 -75 -96 -114c-5 -10 -14 -25 -25 -19c-12 5 -1 29 7 44c33 56 127 164 174 156c54 -9 20 -108 11 -140l-34 -117c14 19 43 74 90 135c44 58 102 132 161 122c54 -9 51 -99 35 -160l-29 -102c24 37 61 106 93 147
c46 59 107 118 156 117c65 -3 69 -87 50 -140l-105 -291c-7 -21 -11 -56 -2 -59c26 -10 84 75 109 118c7 12 14 31 25 24z" />
    <glyph glyph-name="n" unicode="n" horiz-adv-x="632" 
d="M652 207c6 -4 3 -21 -2 -31c-44 -92 -121 -180 -175 -184c-67 -6 -43 101 -22 159l98 259c12 33 26 91 -7 91c-52 1 -138 -101 -194 -195c-46 -76 -83 -154 -103 -209l-36 -97h-71l126 399c10 32 24 93 0 87c-18 -6 -77 -73 -98 -111c-6 -10 -17 -35 -28 -30
c-12 5 5 38 13 52c32 57 123 161 170 152c53 -9 29 -108 19 -139l-37 -123c14 19 52 79 98 140c45 59 130 132 189 122c75 -14 45 -102 24 -161l-95 -265c-7 -21 -16 -52 -7 -59c25 -23 100 92 116 121c4 10 14 26 22 22z" />
    <glyph glyph-name="o" unicode="o" horiz-adv-x="479" 
d="M511 218c-45 -125 -164 -238 -257 -230c-149 13 -179 196 -123 344c55 144 197 238 280 215c135 -38 140 -219 100 -329zM432 222c38 110 66 280 -30 299c-85 15 -154 -97 -191 -196c-43 -113 -67 -290 34 -310c82 -17 151 105 187 207z" />
    <glyph glyph-name="p" unicode="p" horiz-adv-x="524" 
d="M576 275c-45 -163 -179 -297 -299 -290c-32 2 -59 17 -82 42l-48 -173c-6 -23 -2 -54 6 -62c25 -22 86 1 83 -31c-1 -13 -18 -11 -41 -11c-23 -1 -64 3 -104 3c-33 0 -65 -2 -87 -4c-15 -1 -43 -1 -39 16c6 21 46 12 67 22c17 9 23 23 28 41l201 661
c-13 -4 -22 -8 -36 -13c-21 -6 -45 -25 -55 -15c-15 15 26 35 50 44c19 8 34 12 52 19l42 129c1 4 3 8 7 11c5 5 12 4 19 4h37c4 0 7 -1 9 -4c2 -4 0 -6 -1 -10l-31 -108c9 1 62 11 87 9c185 -16 164 -174 135 -280zM490 259c20 69 87 263 -67 260c-47 -1 -65 -5 -81 -9
l-118 -382c-15 -54 -2 -115 61 -115c93 -1 175 138 205 246z" />
    <glyph glyph-name="q" unicode="q" horiz-adv-x="460" 
d="M578 568c13 -6 3 -31 -6 -54c-10 -30 -14 -47 -23 -76l-164 -596c-4 -17 -8 -37 2 -47c16 -16 73 -5 65 -31c-5 -16 -22 -15 -36 -14c-21 2 -60 3 -98 3c-35 -1 -69 -5 -92 -5c-22 0 -27 7 -24 19c7 26 49 11 80 26c14 7 22 25 27 44l108 380
c-41 -55 -171 -266 -277 -215c-65 31 -78 141 -17 276c49 106 174 276 318 276c49 0 60 -19 92 -18c8 0 13 7 17 13l9 13c3 6 12 8 19 6zM450 344c33 63 62 182 -7 186c-95 4 -176 -130 -225 -240c-37 -84 -88 -228 -13 -241c43 -8 146 107 197 204z" />
    <glyph glyph-name="r" unicode="r" horiz-adv-x="441" 
d="M542 490c1 -44 -20 -109 -68 -109c-17 0 -28 20 -26 41c1 19 19 34 8 48c-14 20 -48 -34 -67 -64c-29 -47 -77 -142 -112 -237l-62 -169h-69l111 430c5 21 14 60 -7 57c-27 -5 -70 -90 -90 -125c-6 -9 -7 -15 -15 -16c-14 -4 -8 27 -2 39c40 80 101 166 159 165
c42 -1 35 -86 22 -140l-28 -119c6 8 50 100 76 144c35 55 85 117 121 118c42 1 48 -32 49 -63z" />
    <glyph glyph-name="s" unicode="s" horiz-adv-x="356" 
d="M440 497l-27 -106c-2 -9 -12 -16 -20 -15s-12 21 -15 35l-10 56c-6 34 -32 60 -66 60c-47 0 -76 -40 -78 -76s20 -70 47 -105l51 -65c34 -44 53 -83 44 -139c-11 -90 -85 -147 -173 -149c-36 -1 -133 31 -127 69l22 130c2 11 9 23 21 21c10 -3 10 -18 11 -31l5 -37
c7 -57 27 -115 86 -119c51 -3 89 40 88 96c-1 39 -11 62 -34 90l-55 68c-30 38 -47 68 -46 117c1 93 83 171 180 159c42 -5 104 -28 96 -59z" />
    <glyph glyph-name="t" unicode="t" horiz-adv-x="305" 
d="M426 527l-12 -39h-96l-107 -365c-7 -23 -13 -65 1 -63c32 4 63 54 88 97c9 15 18 43 31 37c10 -6 -2 -34 -13 -58c-37 -74 -117 -153 -152 -154c-54 -1 -47 77 -25 152l103 354h-72l13 39h72l55 173h67l-51 -173h98z" />
    <glyph glyph-name="u" unicode="u" horiz-adv-x="600" 
d="M628 536l-127 -392c-11 -32 -27 -97 -2 -89c17 5 72 74 94 114c5 9 16 35 27 29s-4 -38 -13 -52c-33 -56 -121 -168 -169 -160c-53 9 -22 110 -12 142l36 122c-14 -19 -49 -81 -99 -139c-38 -42 -127 -130 -187 -123c-65 7 -35 104 -15 164l93 268c8 22 16 55 7 62
c-20 16 -86 -89 -102 -119c-6 -10 -15 -26 -22 -21c-7 4 -4 21 1 31c44 92 114 176 168 175c63 -2 30 -103 10 -162l-84 -243c-12 -32 -31 -91 1 -89c46 2 125 86 185 177c52 79 83 153 103 210l35 95h72z" />
    <glyph glyph-name="v" unicode="v" horiz-adv-x="474" 
d="M571 476c5 -56 -41 -201 -111 -302c-69 -100 -148 -185 -241 -188c-94 -1 -81 110 -56 176l93 241c11 30 34 89 3 83c-17 -5 -72 -73 -94 -111c-5 -10 -18 -34 -29 -28c-11 5 6 36 15 50c32 57 120 160 167 152c60 -9 25 -110 15 -138l-110 -295c-11 -30 -12 -74 21 -80
c68 -15 140 73 194 152c50 73 89 181 81 213c-8 35 -24 51 -25 89c-1 24 7 51 30 57c32 8 45 -38 47 -71z" />
    <glyph glyph-name="w" unicode="w" horiz-adv-x="729" 
d="M818 476c5 -56 -40 -204 -105 -307c-65 -102 -167 -215 -261 -175c-32 14 -33 113 2 216c-46 -89 -138 -218 -225 -224c-94 -4 -85 111 -59 177l95 243c11 30 34 94 4 86c-17 -3 -78 -74 -100 -114c-5 -9 -17 -31 -28 -25c-12 5 3 37 12 51c32 56 126 156 174 148
c66 -10 28 -117 17 -144l-106 -283c-12 -31 -12 -78 16 -84c55 -11 120 84 166 160c25 43 52 113 79 186l56 149h70l-99 -314c-21 -69 -40 -175 -18 -185c60 -26 129 71 183 150c49 73 83 182 75 214c-8 35 -24 51 -25 89c-1 24 7 51 31 57c31 8 45 -38 46 -71z" />
    <glyph glyph-name="x" unicode="x" horiz-adv-x="518" 
d="M615 489c3 -41 -26 -95 -56 -93c-23 1 -33 16 -34 33c-1 19 19 40 9 57c-13 21 -55 -43 -80 -79c-28 -38 -61 -96 -63 -101l44 -209c3 -15 10 -39 27 -42c24 -3 43 64 51 111c1 13 0 29 13 31c15 1 13 -25 10 -38c-12 -78 -40 -171 -109 -172c-35 0 -54 48 -63 89
l-31 144c-26 -38 -39 -60 -68 -97c-48 -65 -105 -140 -159 -137c-40 3 -53 38 -52 72c1 27 27 87 69 85c21 -2 27 -17 30 -34c6 -31 -28 -57 -12 -69c16 -13 77 67 116 118c29 39 46 72 67 106l-36 169c-5 25 -20 56 -41 53c-38 -4 -50 -87 -54 -120c-2 -10 -2 -26 -14 -26
c-11 0 -11 18 -10 29c1 66 39 175 114 180c32 3 61 -38 71 -79l30 -127c11 21 41 69 70 111c32 43 72 96 113 94c33 -2 45 -31 48 -59z" />
    <glyph glyph-name="y" unicode="y" horiz-adv-x="485" 
d="M581 485c2 -74 -57 -199 -111 -287c-53 -86 -93 -149 -158 -234c-54 -67 -140 -222 -244 -224c-29 0 -69 32 -70 76c-1 26 18 54 45 53c56 -4 24 -64 50 -76c52 -25 129 96 137 113c37 74 51 240 46 394c-3 78 -1 200 -34 198c-25 0 -57 -69 -75 -116
c-4 -12 -7 -28 -20 -27c-16 0 -6 26 -1 41c31 89 80 163 133 160c67 -5 73 -168 74 -282c0 -86 -7 -186 -13 -231c51 79 80 123 127 203c34 60 51 92 51 155c0 39 -21 63 -20 99c0 27 8 55 35 59c32 4 48 -39 48 -74z" />
    <glyph glyph-name="z" unicode="z" horiz-adv-x="470" 
d="M582 559c19 -22 -19 -55 -43 -73c-92 -72 -125 -135 -203 -220c-63 -68 -101 -109 -165 -177c33 10 53 17 87 15c50 -3 94 -31 145 -22c62 11 51 68 50 86c-2 14 -11 35 4 39c13 3 20 -19 22 -33c7 -40 -3 -100 -41 -139c-29 -29 -56 -44 -96 -47c-51 -4 -80 26 -123 52
c-22 13 -43 24 -66 16c-21 -7 -34 -40 -62 -57c-10 -6 -23 -12 -32 -4c-9 7 -7 20 -2 30c12 26 30 41 89 60c64 82 97 135 167 212c58 64 94 100 159 157c-29 -7 -46 -12 -75 -13c-60 -5 -110 23 -154 25c-37 1 -61 -39 -57 -78c2 -16 2 -41 -10 -42c-21 -3 -18 42 -16 65
c6 83 52 148 125 144c42 -3 83 -49 141 -65c38 -11 40 -6 65 -6c14 19 32 48 40 57c15 15 40 30 51 18z" />
    <glyph glyph-name="braceleft" unicode="{" horiz-adv-x="303" 
d="M485 747l-22 -8c-22 -6 -34 -16 -51 -32c-22 -22 -34 -54 -38 -69l-68 -218l-4 -17c-3 -8 -19 -48 -44 -71c-18 -16 -32 -23 -55 -30l-16 -6l15 -7c16 -8 25 -15 33 -31c7 -15 10 -27 4 -46l-73 -259c-9 -32 -12 -55 2 -78c8 -15 17 -23 33 -28l17 -7h-31
c-34 0 -71 10 -94 39c-23 31 7 117 19 157l48 174l4 13c5 19 3 32 -6 46c-8 13 -18 16 -32 23l-12 6l14 5c22 9 38 14 55 31c17 15 24 28 32 47l5 13l73 239c8 27 23 56 52 80c33 27 62 34 100 34h40z" />
    <glyph glyph-name="bar" unicode="|" horiz-adv-x="128" 
d="M319 761l-251 -900h-81l253 900h79z" />
    <glyph glyph-name="braceright" unicode="}" horiz-adv-x="297" 
d="M364 634l-61 -235l-2 -11c-4 -20 -2 -32 4 -48c9 -16 21 -22 38 -29l11 -6l-15 -6c-18 -6 -29 -9 -44 -22c-17 -13 -26 -26 -31 -44l-4 -14l-48 -170c-11 -39 -30 -124 -69 -155c-39 -29 -80 -38 -113 -38h-32l20 6c20 6 32 13 49 28c26 23 36 45 45 77l71 254
c5 19 15 31 31 46c15 15 28 22 48 29l19 8l-13 5c-18 7 -28 14 -37 30c-11 22 -5 61 -3 70l5 16l54 213c4 16 10 47 0 68c-7 16 -14 25 -31 33l-17 6h39c37 0 62 -6 79 -33c15 -24 14 -52 7 -78z" />
    <glyph glyph-name="asciitilde" unicode="~" horiz-adv-x="385" 
d="M570 761c8 -6 -8 -22 -17 -30c-30 -27 -81 -71 -133 -70c-81 2 -58 56 -99 53c-24 0 -35 -10 -63 -34c-8 -8 -22 -16 -26 -11c-6 6 5 18 13 27c26 27 81 70 133 71c65 0 60 -53 96 -52c17 1 45 18 68 37c9 8 21 15 28 9z" />
    <glyph glyph-name="exclamdown" unicode="&#xa1;" horiz-adv-x="151" 
d="M275 482c-10 -28 -36 -54 -65 -54c-27 0 -38 28 -29 56c8 29 36 57 64 57c30 0 40 -30 30 -59zM195 335l-95 -425c-10 -43 -26 -105 -74 -105c-47 0 -31 60 -15 102l157 433c4 10 13 22 22 22c11 0 7 -15 5 -27z" />
    <glyph glyph-name="cent" unicode="&#xa2;" horiz-adv-x="349" 
d="M457 541c0 -28 -11 -46 -33 -48c-20 -1 -33 15 -35 37c-1 21 6 43 -8 50c-6 3 -12 2 -16 2l-111 -372c20 0 32 3 51 11c24 12 63 51 72 67l11 22c4 10 9 24 15 22c9 -1 1 -23 -5 -36l-15 -30c-5 -12 -39 -56 -74 -75c-24 -12 -42 -19 -67 -20l-34 -115h-26l35 116
c-41 9 -64 27 -81 69c-5 12 -18 46 6 134c34 120 116 202 201 228l44 144h26l-41 -139c33 -1 28 -2 38 -4c35 -4 48 -33 47 -63zM337 581c-59 -29 -111 -108 -133 -186c-22 -75 -16 -160 25 -178z" />
    <glyph glyph-name="sterling" unicode="&#xa3;" horiz-adv-x="641" 
d="M638 701c6 -27 -1 -57 -26 -67c-23 -9 -50 5 -57 26c-4 21 -5 54 -25 50c-73 -12 -85 -95 -92 -164c-3 -35 0 -56 3 -90l10 -88h121l-12 -37h-107c-8 -44 -5 -71 -19 -113c-15 -45 -29 -71 -58 -109l50 -28c41 -22 68 -46 114 -40c44 7 91 56 72 122c-4 13 -15 34 -2 37
c11 3 21 -7 24 -16c41 -93 -40 -208 -140 -206c-56 1 -88 23 -132 56l-30 22l-17 -15c-51 -43 -97 -62 -159 -62c-53 0 -109 36 -101 98c7 62 73 102 135 102c46 0 83 -10 128 -35l29 -16c19 35 27 58 31 97c5 40 -4 86 -7 105h-116l14 36h102c-4 17 -9 59 -9 98
c0 30 10 113 41 167c34 59 85 119 166 122c35 1 62 -19 69 -52zM310 80l-29 26c-26 23 -53 33 -86 32c-32 0 -62 -22 -64 -55c-3 -47 25 -66 59 -68c36 -2 68 16 98 44z" />
    <glyph glyph-name="yen" unicode="&#xa5;" horiz-adv-x="605" 
d="M775 727c-1 -20 -32 -16 -50 -29c-30 -21 -41 -39 -62 -70l-172 -240h147l-15 -53h-169l-7 -10l-19 -67h174l-15 -52h-174l-30 -108c-5 -19 -7 -39 1 -51c13 -19 63 -1 62 -30c-1 -15 -17 -16 -32 -17c-30 -1 -63 2 -101 2c-33 0 -54 -3 -87 -2c-13 0 -28 5 -22 18
c10 29 44 10 72 26c8 5 12 13 15 22l40 140h-206l16 52h205l22 77h-206l15 53h181l-50 265c-3 19 -5 38 -19 48c-18 13 -56 4 -54 28c1 18 38 14 55 13c25 0 42 -3 69 -3c30 0 44 1 78 3c15 1 36 -1 32 -16c-6 -25 -48 -14 -66 -24c-18 -9 -16 -39 -12 -65l47 -249h17
l167 243c10 13 38 50 21 72c-13 17 -65 1 -62 25c3 17 28 14 41 14c29 0 40 -2 65 -2c24 1 39 2 63 2c14 0 26 -1 25 -15z" />
    <glyph glyph-name="florin" unicode="&#x192;" horiz-adv-x="408" 
d="M593 812c-15 -24 -39 -38 -66 -38c-15 0 -16 14 -28 22c-40 25 -77 -135 -124 -222l-11 -21h105l-18 -43h-111l-153 -319c-49 -102 -185 -358 -297 -322c-18 5 -28 28 -15 49c14 22 35 38 60 39c25 0 12 -25 28 -30c40 -14 97 129 139 217l176 367h-115l16 43h129l13 29
c60 122 154 278 238 279c27 0 51 -25 34 -50z" />
    <glyph glyph-name="section" unicode="&#xa7;" horiz-adv-x="514" 
d="M638 726l-3 -6c-2 -6 -17 -47 -28 -76c-8 -24 -20 -59 -22 -63l-3 -12h-31l17 88l-3 3c-9 15 -27 27 -47 35c-80 31 -189 6 -237 -97c-39 -87 87 -125 113 -133l16 -5l14 -6c21 -7 57 -17 90 -33c67 -32 73 -90 54 -144c-19 -52 -66 -92 -91 -110l-27 -19l4 -3
c32 -26 48 -61 30 -115c-36 -107 -197 -222 -318 -228c-67 -3 -127 25 -153 43l-6 5l58 160h31l-16 -56c-14 -50 45 -89 82 -93c111 -12 213 20 243 135c17 61 -43 85 -175 135l-35 14c-109 41 -96 96 -89 133c11 59 73 110 109 136l15 12l-8 7c-21 18 -30 56 -20 94
c27 108 144 227 283 231c39 1 74 -5 86 -8c7 -2 51 -17 57 -21zM483 231c15 33 24 92 -53 119l-173 60l-22 -17c-31 -25 -43 -51 -51 -86c-16 -67 125 -102 223 -139l22 -8l13 13c19 20 31 35 41 58z" />
    <glyph glyph-name="quotesingle" unicode="'" horiz-adv-x="122" 
d="M296 721l-77 -192c-3 -7 -11 -14 -18 -14s-10 7 -9 14l44 193c5 22 23 49 45 49s24 -28 15 -50z" />
    <glyph glyph-name="quotedblleft" unicode="&#x201c;" horiz-adv-x="306" 
d="M491 759c4 -6 -6 -16 -13 -23l-23 -25c-10 -10 -20 -19 -42 -48c-16 -22 -30 -53 -22 -60c13 -11 59 -4 45 -54c-7 -27 -33 -51 -60 -47c-37 5 -42 39 -32 76c13 49 31 75 64 115c12 14 21 24 35 36l21 19c7 7 22 17 27 11zM353 759c4 -6 -6 -16 -13 -23l-23 -25
c-11 -10 -20 -19 -42 -48c-16 -22 -30 -53 -22 -60c14 -11 59 -4 45 -54c-8 -27 -34 -51 -60 -47c-37 5 -42 39 -32 76c13 49 30 75 64 115c12 14 20 24 35 36l20 19c9 7 22 17 28 11z" />
    <glyph glyph-name="guillemotleft" unicode="&#xab;" horiz-adv-x="559" 
d="M679 520l-31 -108l-190 -113l124 -110l-33 -114l-170 170l31 110zM400 520l-31 -108l-189 -113l123 -110l-32 -114l-171 170l31 110z" />
    <glyph glyph-name="endash" unicode="&#x2013;" horiz-adv-x="464" 
d="M524 311l-16 -62h-399l16 62h399z" />
    <glyph glyph-name="dagger" unicode="&#x2020;" horiz-adv-x="527" 
d="M644 513l-1 -5c-2 -6 -11 -24 -15 -39c-8 -31 -6 -33 -8 -39l-1 -4h-6c-4 0 -56 6 -92 8c-34 1 -85 2 -88 2h-7l-4 -12c-20 -73 -33 -116 -53 -188c-22 -87 -51 -213 -54 -224l-3 -13h-7h-41h-41h-9l5 13c3 11 45 137 71 224c21 72 32 115 53 188l3 12h-6
c-3 0 -55 -1 -90 -2c-37 -2 -92 -8 -97 -8h-6l2 4c1 6 4 8 14 39c4 15 6 33 8 39l1 5h6c7 0 44 -8 91 -8h88h7l4 15c3 9 15 58 24 95c12 51 26 124 28 134l2 12l7 -1c9 -2 31 -2 50 -2c18 0 39 1 47 2l7 1l-4 -12c-2 -10 -31 -83 -48 -134c-12 -37 -27 -86 -30 -95l-4 -15h7
h88c47 0 89 8 96 8h6z" />
    <glyph glyph-name="periodcentered" unicode="&#xb7;" horiz-adv-x="157" 
d="M236 368c-4 -34 -32 -70 -60 -63c-23 6 -36 38 -28 69c9 29 26 52 54 52s37 -32 34 -58z" />
    <glyph glyph-name="paragraph" unicode="&#xb6;" horiz-adv-x="653" 
d="M837 754l-9 -33h-11c-10 0 -49 -4 -69 -10c-17 -6 -34 -20 -45 -59l-2 -10l-199 -704l-4 -15c-4 -13 -3 -23 7 -29c17 -11 44 -13 60 -13l19 -1l-8 -30h-18c-7 0 -117 3 -192 3c-80 0 -194 -3 -206 -3h-17l8 31l26 2c14 1 46 -2 68 16c15 13 24 25 29 43l122 436l-12 1
c-15 0 -76 10 -133 47c-62 38 -85 137 -27 225c55 84 160 107 233 106l16 -1c12 0 114 -7 187 -7c63 0 152 4 164 4zM491 713l-18 1c-24 2 -120 -19 -159 -134c-25 -75 10 -142 85 -158l9 -2zM641 712h-70l-230 -819l68 1z" />
    <glyph glyph-name="bullet" unicode="&#x2022;" horiz-adv-x="246" 
d="M327 386c-3 -119 -180 -115 -177 2c2 119 180 117 177 -2z" />
    <glyph glyph-name="quotesinglbase" unicode="&#x201a;" horiz-adv-x="163" 
d="M157 16c-13 -49 -31 -75 -64 -115c-12 -14 -21 -23 -35 -36l-21 -18c-7 -8 -22 -18 -26 -12c-6 7 5 16 13 24l22 24c10 11 19 19 42 49c15 22 30 52 22 59c-13 11 -59 4 -45 54c7 27 33 51 60 47c37 -4 42 -39 32 -76z" />
    <glyph glyph-name="quotedblbase" unicode="&#x201e;" 
d="M303 16c-13 -49 -30 -75 -64 -115c-12 -14 -20 -23 -35 -36l-20 -18c-8 -8 -22 -18 -27 -12c-5 7 6 16 12 24l23 24c11 11 20 19 42 49c16 22 30 52 22 59c-14 11 -59 4 -45 54c8 27 34 51 60 47c38 -4 42 -39 32 -76zM165 16c-13 -49 -31 -75 -64 -115
c-12 -14 -20 -23 -35 -36l-20 -18c-9 -8 -22 -18 -28 -12c-4 7 6 16 13 24l23 24c11 11 20 19 42 49c16 22 30 52 22 59c-14 11 -59 4 -45 54c8 27 33 51 60 47c37 -4 42 -39 32 -76z" />
    <glyph glyph-name="quotedblright" unicode="&#x201d;" 
d="M467 686c-13 -48 -30 -74 -64 -115c-12 -14 -20 -23 -34 -36l-21 -18c-8 -8 -22 -18 -27 -12c-5 7 6 16 13 24l22 24c11 11 20 19 42 50c16 21 30 51 22 58c-13 11 -59 5 -45 54c8 27 34 51 60 47c38 -4 42 -39 32 -76zM329 686c-13 -48 -30 -74 -64 -115
c-12 -14 -20 -23 -35 -36l-20 -18c-9 -8 -22 -18 -28 -12c-4 7 6 16 13 24l23 24c11 11 20 19 42 50c16 21 30 51 22 58c-14 11 -59 5 -45 54c8 27 34 51 60 47c37 -4 42 -39 32 -76z" />
    <glyph glyph-name="guillemotright" unicode="&#xbb;" horiz-adv-x="565" 
d="M638 355l-32 -110l-266 -170l32 114l185 110l-125 113l30 108zM359 355l-31 -110l-267 -170l32 114l186 110l-127 113l30 108z" />
    <glyph glyph-name="ellipsis" unicode="&#x2026;" horiz-adv-x="493" 
d="M436 105c75 0 43 -112 -32 -112c-74 0 -43 112 32 112zM277 110c75 0 43 -112 -32 -112c-74 0 -42 112 32 112zM117 110c74 0 43 -112 -31 -112c-75 0 -43 112 31 112z" />
    <glyph glyph-name="questiondown" unicode="&#xbf;" horiz-adv-x="302" 
d="M385 478c-7 -28 -33 -56 -62 -56c-28 0 -40 28 -33 56c9 29 36 58 65 58c28 -1 38 -30 30 -58zM316 327l-21 -104c-4 -19 -8 -31 -20 -47c-14 -21 -29 -29 -47 -46l-81 -72c-41 -35 -59 -71 -72 -114c-16 -53 4 -117 40 -116c18 1 34 12 43 29l39 59c10 16 23 37 40 37
c15 0 19 -16 15 -31l-23 -84c-3 -14 -12 -23 -26 -31c-18 -8 -39 -12 -62 -13c-95 -2 -133 91 -108 185c16 61 40 103 92 151l63 58c22 22 43 38 60 57c16 18 25 41 29 56l7 30c5 16 14 27 24 27c11 0 11 -18 8 -31z" />
    <glyph glyph-name="grave" unicode="`" horiz-adv-x="298" 
d="M459 650c-7 -9 -21 -6 -33 -2l-145 45c-25 8 -58 32 -31 64c16 19 41 10 61 -1l134 -79c10 -5 22 -14 14 -27z" />
    <glyph glyph-name="acute" unicode="&#xb4;" horiz-adv-x="319" 
d="M505 757c5 -29 -27 -49 -54 -56l-204 -57c-10 -3 -24 -6 -25 3c-1 7 10 16 18 19l195 95c28 13 66 20 70 -4z" />
    <glyph glyph-name="dieresis" unicode="&#xa8;" horiz-adv-x="297" 
d="M467 707c-7 -26 -33 -53 -60 -52c-26 0 -35 25 -27 51s33 51 59 50c25 0 35 -23 28 -49zM318 707c-8 -26 -34 -53 -60 -52c-26 0 -36 25 -28 51s34 51 59 50c25 0 35 -23 29 -49z" />
    <glyph glyph-name="emdash" unicode="&#x2014;" horiz-adv-x="809" 
d="M871 311l-17 -62h-745l16 62h746z" />
    <glyph glyph-name="AE" unicode="&#xc6;" horiz-adv-x="833" 
d="M989 710l-40 -133c-4 -12 -6 -25 -18 -28c-18 -6 -15 19 -17 35l-3 34c-5 58 -68 84 -117 81c-25 -1 -49 5 -61 -37l-70 -235c0 -1 -3 -11 1 -16c2 -3 6 -4 12 -4h37c20 0 34 2 54 13c21 12 32 28 44 48l14 24c4 6 11 13 18 13c9 0 11 -10 8 -19l-5 -20
c-9 -31 -16 -48 -25 -78c-11 -38 -15 -60 -27 -97l-4 -16c-3 -8 -10 -16 -18 -17c-12 -3 -14 16 -14 29v31c0 18 -2 31 -13 42c-12 12 -37 16 -43 16h-39c-3 0 -6 0 -10 -2c-3 -2 -6 -5 -6 -8l-61 -203c-13 -44 -26 -98 -10 -114c11 -13 23 -17 43 -17h28
c30 -1 69 15 101 40c17 15 35 39 51 66l28 50c4 10 13 22 22 22c7 -1 13 -6 10 -14l-49 -167c-2 -7 -3 -12 -8 -18c-6 -6 -12 -11 -19 -11h-381c-17 0 -49 0 -37 17c8 11 23 14 35 16c31 6 38 6 53 23c8 10 14 24 17 37l46 159h-179l-119 -143c-9 -11 -34 -49 -28 -60
c7 -11 11 -12 34 -13c42 -2 18 -36 -9 -36c-32 0 -42 3 -74 3s-37 -6 -85 -4c-33 3 -15 31 20 37c12 1 22 4 35 12c8 5 27 20 39 36l561 647c6 7 14 11 22 13c24 4 34 -12 59 -12c46 -1 99 -1 160 -1c18 0 44 5 37 -21zM606 560l-234 -269h155z" />
    <glyph glyph-name="ordfeminine" unicode="&#xaa;" horiz-adv-x="311" 
d="M384 424l-7 -24h-218l7 24h218zM428 742c1 -3 0 -6 -1 -9l-61 -197c-4 -11 -10 -34 -1 -31c13 2 32 34 48 61c3 4 6 8 10 8c6 -3 2 -12 -1 -18c-22 -48 -72 -108 -101 -89c-10 6 -4 38 3 60l26 79l-38 -57c-29 -43 -75 -90 -105 -88c-71 6 -30 135 16 195
c38 51 98 90 138 81c11 -1 17 -6 27 -12l3 11c1 4 1 6 3 8c3 1 6 1 9 1h17c3 0 6 0 8 -3zM360 723c-36 13 -78 -38 -105 -80c-30 -50 -57 -137 -36 -147c23 -10 74 47 102 89c29 46 82 125 39 138z" />
    <glyph glyph-name="Oslash" unicode="&#xd8;" horiz-adv-x="615" 
d="M727 785l-75 -118c50 -83 58 -207 39 -303c-41 -204 -212 -405 -366 -381c-39 6 -73 23 -100 47c1 0 -72 -104 -72 -104l-36 2l86 125c-69 85 -84 227 -53 355c41 173 181 361 349 353c59 -3 103 -28 135 -68l58 92h35zM605 650c-21 49 -56 80 -108 82
c-110 2 -185 -94 -262 -348c-27 -89 -42 -213 -6 -291zM616 614l-369 -551c21 -26 51 -43 93 -46c139 -11 222 207 264 358c24 87 28 173 12 239z" />
    <glyph glyph-name="OE" unicode="&#x152;" horiz-adv-x="839" 
d="M992 710l-39 -133c-4 -12 -5 -25 -18 -28c-18 -6 -16 19 -17 35l-3 34c-5 58 -68 84 -117 81c-25 -1 -49 5 -61 -37l-70 -235c0 -1 -2 -11 1 -16c2 -3 6 -4 11 -4h38c19 0 34 2 54 13c21 12 31 28 44 48l14 24c4 6 11 13 18 13c9 0 11 -10 9 -19l-6 -20
c-10 -31 -16 -48 -26 -78c-10 -38 -14 -60 -25 -97l-6 -16c-2 -8 -9 -16 -17 -17c-12 -3 -14 16 -14 29v31c0 18 -2 31 -14 42c-11 12 -36 16 -42 16h-39c-4 0 -7 0 -10 -2s-6 -5 -7 -8l-60 -203c-13 -44 -25 -98 -10 -114c10 -13 23 -17 42 -17h29c30 -1 69 15 101 40
c17 15 35 39 50 66l29 50c5 10 12 22 22 22c7 -1 13 -6 10 -14l-49 -167c-2 -7 -3 -12 -9 -18c-5 -6 -11 -11 -19 -11h-371c-44 -8 -72 -12 -114 -8c-176 20 -211 206 -157 389c51 173 212 357 363 361c54 2 79 -3 110 -10c68 -3 109 -4 178 -4c62 0 99 3 161 3
c17 0 44 5 36 -21zM627 644c-14 24 -42 68 -134 66c-111 -3 -221 -192 -264 -337c-46 -154 -62 -365 80 -352c66 6 103 25 154 67z" />
    <glyph glyph-name="ordmasculine" unicode="&#xba;" horiz-adv-x="277" 
d="M372 424l-7 -24h-202l6 24h203zM398 583c-22 -64 -81 -120 -128 -116c-75 7 -89 98 -61 173c27 72 98 118 140 106c67 -19 70 -109 49 -163zM359 584c19 56 33 141 -15 150c-42 7 -77 -49 -96 -99c-21 -55 -33 -145 17 -155c41 -8 76 53 94 104z" />
    <glyph glyph-name="ae" unicode="&#xe6;" horiz-adv-x="737" 
d="M821 448c6 -117 -104 -190 -292 -212l-20 -2c-7 -71 -10 -172 64 -182c80 -12 126 64 172 126c8 10 14 29 26 23c13 -6 -1 -24 -7 -36c-39 -81 -120 -178 -219 -170c-47 3 -60 17 -81 44c-8 -36 -54 -64 -86 -44c-19 13 -9 76 6 120l51 159l-76 -114
c-57 -88 -149 -180 -209 -175c-141 12 -59 269 32 389c76 101 196 178 277 162c23 -3 35 -14 52 -24l8 23c2 5 2 10 7 13c4 4 11 4 18 4h34c6 0 12 -1 15 -6c2 -5 -1 -13 -3 -19l-9 -30c24 22 88 61 139 60c41 0 95 -12 101 -109zM756 468c-9 98 -109 52 -147 3
c-25 -33 -63 -87 -90 -201l-2 -9l25 5c159 27 221 130 214 202zM457 508c-73 23 -157 -76 -210 -162c-61 -99 -116 -272 -72 -291c47 -22 146 90 203 178c60 92 166 246 79 275z" />
    <glyph glyph-name="oslash" unicode="&#xf8;" horiz-adv-x="479" 
d="M556 573c0 0 -59 -88 -59 -89c49 -73 43 -187 14 -266c-45 -125 -164 -238 -257 -230c-29 2 -53 11 -74 25l-49 -74l-37 2s36 54 63 92c-62 67 -67 192 -26 299c55 144 197 238 280 215c27 -7 49 -21 66 -39c20 29 44 65 44 65h35zM455 475c-10 23 -26 40 -53 46
c-85 15 -154 -97 -191 -196c-29 -77 -50 -184 -28 -251c1 0 272 402 272 401zM465 437l-265 -394c10 -15 25 -24 45 -28c82 -17 151 105 187 207c22 65 41 152 33 215z" />
    <glyph glyph-name="oe" unicode="&#x153;" horiz-adv-x="771" 
d="M839 448c7 -117 -110 -184 -227 -201l-85 -13c-7 -71 -9 -172 65 -182c80 -12 126 64 172 126c8 10 14 29 26 23s-2 -24 -8 -36c-39 -81 -119 -173 -218 -170c-55 1 -110 43 -126 70c-57 -44 -64 -73 -191 -76c-131 -2 -179 144 -136 282c42 132 162 269 291 267
c127 -2 142 -65 142 -98c100 138 284 198 295 8zM774 468c-8 98 -109 52 -146 3c-26 -33 -63 -93 -80 -159l-13 -52l80 18c94 21 166 118 159 190zM448 266c31 109 31 245 -54 248c-89 4 -165 -127 -195 -228c-34 -117 -51 -264 54 -269c90 -6 164 142 195 249z" />
    <glyph glyph-name="germandbls" unicode="&#xdf;" horiz-adv-x="579" 
d="M685 640c2 -73 -51 -126 -121 -149l-69 -22c-23 -7 -39 -22 -43 -44c-6 -30 15 -54 37 -81l51 -64c31 -40 47 -72 47 -123c-2 -91 -70 -171 -161 -173c-53 -1 -114 38 -126 53c-9 12 -7 25 -4 39l18 116c1 9 8 18 17 17c14 -2 17 -24 21 -41l13 -58c9 -44 23 -93 68 -96
c60 -6 97 61 92 111c-2 33 -13 60 -35 89l-68 85c-26 34 -43 74 -38 107c6 39 27 61 87 83l65 22c42 13 78 70 76 127c-1 50 -35 93 -83 94c-92 1 -146 -90 -179 -172c-17 -40 -23 -52 -32 -85l-133 -499c-5 -16 -36 -133 -98 -193c-32 -30 -63 -51 -102 -53
c-43 -1 -83 35 -85 74c-1 27 16 55 43 55c21 -1 36 -19 40 -39c3 -23 -6 -58 18 -57c54 3 72 75 88 135l163 599h-76l14 41h77l8 24c16 42 68 116 137 155c48 28 83 44 138 43c80 0 135 -52 135 -120z" />
    <glyph glyph-name="Adieresis" unicode="&#xc4;" horiz-adv-x="629" 
d="M593 14c-3 -16 -22 -14 -38 -14c-25 0 -46 2 -74 2c-31 0 -56 -3 -82 -2c-15 1 -33 2 -27 17c5 12 15 14 27 16c29 5 36 7 49 23c6 9 9 24 9 39v182h-179l-92 -170c-5 -10 -21 -42 -9 -55c9 -12 27 -16 51 -16c42 -3 28 -36 1 -36c-31 0 -59 3 -90 3c-32 0 -38 -5 -86 -3
c-34 2 -24 30 9 35c12 2 22 5 31 13c7 5 21 20 30 35l385 653c4 7 9 18 18 15c6 -2 9 -8 9 -13v-646c0 -18 0 -35 7 -45c8 -12 21 -12 36 -15c6 -2 17 -5 15 -18zM457 319v269l-155 -269h155zM650 869c-8 -26 -34 -53 -60 -52c-26 0 -35 25 -28 51c9 26 34 51 60 50
c24 0 35 -24 28 -49zM500 869c-8 -26 -33 -53 -60 -52c-26 0 -36 25 -27 51c7 26 33 51 58 50c25 0 35 -24 29 -49z" />
    <glyph glyph-name="Aring" unicode="&#xc5;" horiz-adv-x="628" 
d="M585 973c104 -2 56 -159 -48 -157c-104 3 -56 160 48 157zM593 10c-2 -16 -22 -15 -38 -15c-25 0 -45 3 -73 3c-31 0 -56 -3 -82 -3c-15 1 -33 2 -27 18c5 11 15 14 27 15c29 5 36 7 48 24c7 8 9 23 9 38v183h-178l-92 -170c-5 -10 -21 -42 -9 -56c9 -11 27 -15 51 -16
c42 -2 28 -36 0 -36c-31 0 -58 3 -89 3c-32 0 -38 -5 -86 -3c-34 3 -24 30 9 35c12 3 21 5 31 13c7 6 21 20 30 35l384 653c5 8 10 18 19 15c6 -1 9 -7 9 -13v-646c0 -17 0 -35 7 -44c8 -13 21 -13 35 -16c7 -1 18 -5 15 -17zM457 315v269l-155 -269h155zM574 939
c-59 1 -85 -89 -26 -89c59 -2 86 88 26 89z" />
    <glyph glyph-name="Ccedilla" unicode="&#xc7;" horiz-adv-x="543" 
d="M701 754c6 -9 0 -31 -5 -49l-36 -127c-4 -16 -8 -36 -19 -39c-21 -6 -23 28 -21 47l11 99c6 46 0 55 -79 38c-139 -29 -275 -177 -316 -342c-34 -140 -32 -364 108 -363c63 1 123 50 154 118l38 84c7 16 21 36 34 28c8 -6 7 -16 4 -26l-44 -161c-3 -12 -6 -24 -16 -31
c-23 -15 -108 -47 -150 -45l-36 -43c10 2 17 1 28 -1c42 -3 54 -41 55 -78c1 -54 -70 -81 -114 -83c-21 0 -37 3 -49 13c-9 8 -12 25 -3 32c8 9 26 5 32 -5c5 -9 22 -16 35 -15c22 0 60 20 69 55c10 37 -31 51 -62 52h-20c-9 0 -22 -2 -23 4c-2 6 4 11 9 16l46 54
c-164 -7 -247 199 -181 415c64 213 293 370 473 368c56 0 67 -2 78 -15z" />
    <glyph glyph-name="Eacute" unicode="&#xc9;" horiz-adv-x="517" 
d="M646 717l-43 -146c-4 -14 -13 -28 -25 -27c-14 0 -12 21 -11 35l3 73c2 55 -30 50 -112 51h-66l-84 -279c-1 -2 -3 -11 1 -16c2 -3 6 -5 11 -5h71c20 0 35 3 52 13c22 11 33 25 45 48l17 31c3 8 12 16 20 13c7 -3 10 -12 8 -19l-9 -28c-9 -30 -16 -48 -25 -78
c-10 -36 -16 -60 -26 -97l-6 -25c-3 -9 -10 -17 -18 -19c-13 -1 -14 19 -14 32l1 39c1 18 -2 31 -14 43c-11 11 -36 14 -42 14h-73c-3 0 -6 0 -10 -2c-3 -2 -5 -5 -6 -8l-58 -202c-11 -42 -30 -98 -15 -115c11 -12 27 -14 45 -14h53c31 0 81 9 112 36c17 15 35 40 49 69
l26 51c6 13 15 26 28 23c8 -1 12 -10 10 -17l-49 -167c-3 -7 -4 -12 -9 -17c-6 -6 -12 -12 -19 -12h-394c-17 0 -41 -4 -37 15c7 24 52 14 73 33c12 11 16 19 19 32l161 559c6 22 11 48 3 61c-11 15 -52 1 -53 31c0 16 41 17 62 16c49 -3 84 -7 137 -7c69 0 117 7 177 7
c41 0 41 3 34 -25zM673 937c5 -29 -27 -49 -54 -56l-204 -57c-10 -3 -24 -6 -25 3c-1 7 10 16 18 20l195 94c28 13 66 20 70 -4z" />
    <glyph glyph-name="Ntilde" unicode="&#xd1;" horiz-adv-x="668" 
d="M803 728c-4 -25 -32 -13 -52 -25c-14 -8 -25 -26 -31 -46l-189 -648c-4 -11 -8 -27 -18 -26c-11 0 -14 13 -16 25l-167 646l-161 -546c-6 -21 -8 -47 0 -59c18 -24 73 0 71 -33c-1 -15 -16 -17 -52 -16c-27 0 -44 2 -72 2c-27 0 -48 -3 -70 -2c-10 0 -25 3 -23 17
c4 26 35 14 58 23c28 9 41 51 47 73l162 538c6 19 12 41 4 52c-14 16 -52 4 -52 26c0 18 18 17 32 17h110l154 -581l141 495c3 15 5 29 -2 39c-14 20 -67 -5 -65 27c0 22 32 20 47 20c21 -1 32 -2 58 -2c31 0 89 11 86 -16zM798 917c8 -6 -8 -22 -17 -30
c-30 -27 -81 -71 -133 -70c-81 2 -58 56 -99 53c-24 0 -35 -10 -63 -34c-8 -8 -22 -16 -26 -11c-6 6 5 18 13 27c26 27 81 70 133 71c65 0 60 -53 96 -52c17 1 45 18 68 37c9 8 21 15 28 9z" />
    <glyph glyph-name="Odieresis" unicode="&#xd6;" horiz-adv-x="619" 
d="M688 364c-41 -204 -211 -405 -365 -381c-169 27 -220 241 -176 425c42 173 181 361 350 353c181 -8 223 -239 191 -397zM602 375c49 178 16 354 -107 357c-111 2 -185 -94 -262 -348c-42 -137 -55 -356 104 -367c140 -11 223 207 265 358zM654 867
c-7 -27 -33 -53 -60 -52c-26 0 -35 25 -27 51c8 25 33 50 59 50c24 0 35 -24 28 -49zM505 867c-8 -27 -34 -53 -60 -52c-26 0 -36 25 -28 51c8 25 34 50 59 50s35 -24 29 -49z" />
    <glyph glyph-name="Udieresis" unicode="&#xdc;" horiz-adv-x="624" 
d="M807 729c-2 -16 -41 -13 -56 -23c-18 -11 -26 -27 -32 -49l-145 -491c-28 -101 -115 -195 -247 -189c-116 6 -208 76 -156 243l127 424c7 22 10 47 -3 59c-16 15 -56 4 -50 27c5 18 22 16 39 16c31 0 59 -5 95 -5c31 1 47 5 78 5c16 0 35 0 28 -18c-9 -24 -56 -8 -83 -33
c-13 -13 -21 -46 -27 -64l-131 -443c-22 -75 -6 -181 109 -177c117 3 167 83 195 183l131 450c6 21 13 37 3 55c-11 23 -70 2 -71 27c-1 26 27 20 40 20c24 0 46 -1 75 -1c26 0 44 2 67 1c10 0 17 -1 14 -17zM711 867c-7 -26 -33 -53 -60 -52c-26 0 -35 25 -27 51
s33 51 59 50c25 0 35 -23 28 -49zM562 867c-8 -26 -34 -53 -60 -52c-26 0 -36 25 -28 51s34 51 59 50c25 0 35 -23 29 -49z" />
    <glyph glyph-name="aacute" unicode="&#xe1;" horiz-adv-x="562" 
d="M588 546c2 -5 -1 -13 -2 -19l-123 -393c-8 -24 -18 -67 -2 -65c28 5 65 69 98 123c6 8 11 17 20 15c12 -2 3 -22 -1 -32c-46 -97 -146 -218 -205 -180c-19 13 -7 76 6 120l52 159l-76 -114c-58 -88 -149 -180 -210 -175c-140 12 -58 269 33 389c76 101 196 178 276 162
c23 -3 35 -14 53 -24l7 23c2 5 3 10 7 13c5 4 12 4 19 4h33c6 0 12 -1 15 -6zM453 508c-74 23 -157 -76 -211 -162c-60 -99 -115 -272 -72 -291c47 -22 147 90 203 178c60 92 167 246 80 275zM666 723c5 -28 -27 -48 -54 -56l-204 -57c-10 -2 -24 -6 -25 3c-1 8 10 16 18 20
l196 94c27 13 65 21 69 -4z" />
    <glyph glyph-name="agrave" unicode="&#xe0;" horiz-adv-x="551" 
d="M579 546c2 -5 -1 -13 -2 -19l-123 -393c-8 -24 -19 -67 -2 -65c28 5 65 69 98 123c5 8 11 17 20 15c12 -2 3 -22 -2 -32c-45 -97 -145 -218 -204 -180c-19 13 -8 76 6 120l52 159l-76 -114c-58 -88 -149 -180 -210 -175c-141 12 -58 269 33 389c76 101 196 178 276 162
c23 -3 35 -14 53 -24l7 23c2 5 3 10 7 13c5 4 12 4 18 4h34c6 0 12 -1 15 -6zM444 508c-74 23 -158 -76 -211 -162c-61 -99 -115 -272 -72 -291c47 -22 147 90 203 178c60 92 166 246 80 275zM621 616c-7 -10 -21 -7 -34 -3l-144 45c-25 8 -58 32 -31 64c16 19 41 11 61 -1
l134 -79c10 -5 21 -14 14 -26z" />
    <glyph glyph-name="acircumflex" unicode="&#xe2;" horiz-adv-x="560" 
d="M593 546c2 -5 -1 -13 -3 -19l-123 -393c-7 -24 -18 -67 -1 -65c28 5 64 69 98 123c5 8 10 17 20 15c12 -2 3 -22 -2 -32c-46 -97 -145 -218 -204 -180c-19 13 -8 76 6 120l51 159l-76 -114c-57 -88 -149 -180 -209 -175c-141 12 -59 269 32 389c76 101 196 178 277 162
c23 -3 35 -14 52 -24l8 23c2 5 2 10 7 13c4 4 11 4 18 4h34c6 0 12 -1 15 -6zM457 508c-73 23 -157 -76 -210 -162c-61 -99 -116 -272 -72 -291c47 -22 146 90 203 178c60 92 166 246 79 275zM647 611h-64l-48 110l-102 -110h-80l171 174h45z" />
    <glyph glyph-name="adieresis" unicode="&#xe4;" horiz-adv-x="561" 
d="M593 546c2 -5 -1 -13 -3 -19l-123 -393c-7 -24 -18 -67 -1 -65c28 5 64 69 98 123c5 8 10 17 20 15c12 -2 3 -22 -2 -32c-46 -97 -145 -218 -204 -180c-19 13 -8 76 6 120l51 159l-76 -114c-57 -88 -149 -180 -209 -175c-141 12 -59 269 32 389c76 101 196 178 277 162
c23 -3 35 -14 52 -24l8 23c2 5 2 10 7 13c4 4 11 4 18 4h34c6 0 12 -1 15 -6zM457 508c-73 23 -157 -76 -210 -162c-61 -99 -116 -272 -72 -291c47 -22 146 90 203 178c60 92 166 246 79 275zM641 657c-7 -26 -33 -53 -60 -52c-26 0 -35 25 -27 51s33 51 59 50
c25 0 35 -23 28 -49zM492 657c-8 -26 -34 -53 -60 -52c-26 0 -36 25 -28 51s34 51 59 50c25 0 35 -23 29 -49z" />
    <glyph glyph-name="atilde" unicode="&#xe3;" horiz-adv-x="554" 
d="M579 546c2 -5 -1 -13 -2 -19l-123 -393c-8 -24 -19 -67 -2 -65c28 5 65 69 98 123c5 8 11 17 20 15c12 -2 3 -22 -2 -32c-45 -97 -145 -218 -204 -180c-19 13 -8 76 6 120l52 159l-76 -114c-58 -88 -149 -180 -210 -175c-141 12 -58 269 33 389c76 101 196 178 276 162
c23 -3 35 -14 53 -24l7 23c2 5 3 10 7 13c5 4 12 4 18 4h34c6 0 12 -1 15 -6zM444 508c-74 23 -158 -76 -211 -162c-61 -99 -115 -272 -72 -291c47 -22 147 90 203 178c60 92 166 246 80 275zM699 709c8 -7 -8 -23 -17 -30c-30 -28 -81 -72 -133 -70c-81 2 -57 55 -99 53
c-24 -1 -35 -11 -62 -34c-9 -8 -22 -16 -27 -12c-6 6 5 18 13 28c26 27 81 70 133 70c65 1 61 -53 96 -51c17 0 45 17 68 37c9 7 21 15 28 9z" />
    <glyph glyph-name="aring" unicode="&#xe5;" horiz-adv-x="562" 
d="M568 768c104 -3 56 -160 -47 -157c-105 2 -56 160 47 157zM590 546c2 -5 -1 -13 -3 -19l-123 -393c-7 -24 -18 -67 -1 -65c28 5 64 69 98 123c5 8 10 17 20 15c12 -2 3 -22 -2 -32c-46 -97 -145 -218 -204 -180c-19 13 -8 76 6 120l51 159l-76 -114
c-57 -88 -149 -180 -209 -175c-141 12 -59 269 32 389c76 101 196 178 277 162c23 -3 35 -14 52 -24l8 23c1 5 2 10 7 13c4 4 11 4 18 4h33c7 0 13 -1 16 -6zM454 508c-73 23 -157 -76 -210 -162c-61 -99 -116 -272 -72 -291c47 -22 146 90 203 178c60 92 166 246 79 275z
M558 733c-60 2 -86 -88 -27 -89s86 89 27 89z" />
    <glyph glyph-name="ccedilla" unicode="&#xe7;" horiz-adv-x="419" 
d="M489 476c-3 -28 -17 -56 -44 -60c-21 -2 -36 16 -43 36c-8 27 -5 71 -36 63c-90 -22 -146 -128 -174 -239c-21 -88 -28 -224 61 -227c59 -3 113 51 145 105l21 36c5 9 10 21 20 20c9 -2 4 -26 -3 -39l-19 -34c-17 -32 -41 -75 -83 -108c-31 -24 -70 -41 -93 -40l-37 -43
c10 2 17 0 29 -1c42 -4 54 -42 54 -78c1 -55 -70 -82 -114 -84c-20 0 -36 3 -49 13c-9 8 -12 25 -3 33s27 4 32 -6c5 -9 23 -15 35 -15c22 1 60 20 69 56c10 37 -31 51 -61 51h-21c-9 0 -22 -2 -22 4c-2 7 4 12 8 17l46 53c-75 7 -132 103 -99 266c28 136 144 274 286 293
c43 6 98 -26 95 -72z" />
    <glyph glyph-name="eacute" unicode="&#xe9;" horiz-adv-x="420" 
d="M493 448c7 -117 -103 -190 -292 -212l-19 -2c-8 -71 -10 -172 64 -182c80 -12 126 64 173 126c7 10 13 29 26 23c12 -6 -3 -24 -8 -36c-40 -81 -120 -178 -219 -170c-158 12 -134 273 -52 406c94 151 317 237 327 47zM429 468c-9 98 -110 52 -147 3
c-25 -33 -63 -87 -91 -201l-1 -9l24 5c160 27 221 130 215 202zM576 724c5 -29 -27 -49 -54 -56l-204 -57c-10 -3 -24 -6 -25 3c-1 7 10 16 18 19l195 95c28 13 66 20 70 -4z" />
    <glyph glyph-name="egrave" unicode="&#xe8;" horiz-adv-x="426" 
d="M493 448c7 -117 -103 -190 -292 -212l-19 -2c-8 -71 -10 -172 64 -182c80 -12 126 64 173 126c7 10 13 29 26 23c12 -6 -3 -24 -8 -36c-40 -81 -120 -178 -219 -170c-158 12 -134 273 -52 406c94 151 317 237 327 47zM429 468c-9 98 -110 52 -147 3
c-25 -33 -63 -87 -91 -201l-1 -9l24 5c160 27 221 130 215 202zM518 617c-7 -9 -21 -6 -33 -2l-145 45c-25 8 -58 32 -31 64c16 19 41 10 61 -1l134 -79c10 -5 22 -14 14 -27z" />
    <glyph glyph-name="ecircumflex" unicode="&#xea;" horiz-adv-x="423" 
d="M493 448c7 -117 -103 -190 -292 -212l-19 -2c-8 -71 -10 -172 64 -182c80 -12 126 64 173 126c7 10 13 29 26 23c12 -6 -3 -24 -8 -36c-40 -81 -120 -178 -219 -170c-158 12 -134 273 -52 406c94 151 317 237 327 47zM429 468c-9 98 -110 52 -147 3
c-25 -33 -63 -87 -91 -201l-1 -9l24 5c160 27 221 130 215 202zM556 605h-64l-48 110l-102 -110h-80l171 174h45z" />
    <glyph glyph-name="edieresis" unicode="&#xeb;" horiz-adv-x="426" 
d="M493 448c7 -117 -103 -190 -292 -212l-19 -2c-8 -71 -10 -172 64 -182c80 -12 126 64 173 126c7 10 13 29 26 23c12 -6 -3 -24 -8 -36c-40 -81 -120 -178 -219 -170c-158 12 -134 273 -52 406c94 151 317 237 327 47zM429 468c-9 98 -110 52 -147 3
c-25 -33 -63 -87 -91 -201l-1 -9l24 5c160 27 221 130 215 202zM537 661c-7 -26 -33 -53 -60 -52c-26 0 -35 25 -27 51s33 51 59 50c25 0 35 -23 28 -49zM388 661c-8 -26 -34 -53 -60 -52c-26 0 -36 25 -28 51s34 51 59 50c25 0 35 -23 29 -49z" />
    <glyph glyph-name="iacute" unicode="&#xed;" horiz-adv-x="328" 
d="M525 725c5 -29 -27 -49 -54 -56l-204 -57c-10 -3 -25 -6 -25 3c-1 7 10 16 18 19l195 95c28 13 66 20 70 -4zM369 204c11 -6 3 -27 -2 -38c-37 -88 -121 -182 -166 -177c-51 5 -37 87 -19 139l106 308c6 18 17 52 -4 48c-26 -5 -77 -88 -97 -123c-6 -10 -8 -16 -17 -17
c-14 -2 -7 26 -1 38c41 80 118 175 171 168c43 -5 29 -83 13 -131l-98 -291c-9 -22 -15 -61 -2 -63c24 -3 61 59 88 104c9 14 15 41 28 35z" />
    <glyph glyph-name="igrave" unicode="&#xec;" horiz-adv-x="329" 
d="M510 613c-7 -10 -21 -6 -34 -2l-144 45c-25 8 -58 32 -31 64c16 19 41 10 61 -1l134 -79c10 -6 21 -15 14 -27zM371 204c10 -6 2 -27 -2 -38c-37 -88 -121 -182 -166 -177c-51 5 -37 87 -20 139l107 308c6 18 17 52 -4 48c-26 -5 -77 -88 -98 -123c-6 -10 -7 -16 -16 -17
c-15 -2 -6 26 0 38c40 80 117 175 170 168c42 -5 29 -83 13 -131l-99 -291c-8 -22 -14 -61 -1 -63c25 -3 60 59 88 104c9 14 16 41 28 35z" />
    <glyph glyph-name="icircumflex" unicode="&#xee;" horiz-adv-x="333" 
d="M507 605h-65l-47 110l-102 -110h-80l171 173h45zM362 204c10 -6 2 -27 -3 -38c-37 -88 -120 -182 -165 -177c-51 5 -37 87 -20 139l106 308c6 18 17 52 -3 48c-26 -5 -78 -88 -98 -123c-6 -10 -7 -16 -16 -17c-15 -2 -7 26 -1 38c40 80 118 175 171 168
c42 -5 29 -83 12 -131l-98 -291c-8 -22 -14 -61 -2 -63c25 -3 61 59 89 104c9 14 15 41 28 35z" />
    <glyph glyph-name="idieresis" unicode="&#xef;" horiz-adv-x="341" 
d="M524 661c-7 -27 -33 -53 -60 -52c-26 0 -35 25 -27 51c8 25 33 50 59 50c25 0 35 -24 28 -49zM375 661c-8 -27 -34 -53 -60 -52c-26 0 -36 25 -28 51c8 25 34 50 59 50s35 -24 29 -49zM365 204c10 -6 3 -27 -3 -38c-36 -88 -120 -182 -164 -177c-52 5 -38 87 -21 139
l107 308c6 18 17 52 -4 48c-26 -5 -77 -88 -98 -123c-6 -10 -6 -16 -16 -17c-14 -2 -6 26 0 38c40 80 117 175 170 168c43 -5 29 -83 13 -131l-99 -291c-8 -22 -14 -61 -2 -63c26 -3 62 59 89 104c9 14 16 41 28 35z" />
    <glyph glyph-name="ntilde" unicode="&#xf1;" horiz-adv-x="627" 
d="M680 710c8 -6 -8 -22 -17 -30c-30 -27 -81 -71 -133 -70c-81 2 -57 56 -99 53c-24 0 -35 -10 -62 -34c-9 -7 -22 -16 -27 -11c-6 6 5 18 13 27c26 27 81 70 133 71c65 1 61 -53 96 -52c17 1 45 18 68 37c9 8 21 16 28 9zM647 207c6 -4 3 -21 -1 -31
c-44 -92 -122 -180 -176 -184c-67 -6 -43 101 -22 159l98 259c13 33 26 91 -6 91c-53 1 -139 -101 -195 -195c-46 -76 -83 -154 -103 -209l-35 -97h-72l126 399c10 32 25 93 0 87c-17 -6 -76 -73 -98 -111c-6 -10 -16 -35 -28 -30c-11 5 6 38 14 52c32 57 122 161 169 152
c54 -9 29 -108 19 -139l-36 -123c14 19 52 79 98 140c45 59 129 132 188 122c76 -14 45 -102 24 -161l-95 -265c-7 -21 -15 -52 -7 -59c25 -23 100 92 116 121c5 10 14 26 22 22z" />
    <glyph glyph-name="oacute" unicode="&#xf3;" horiz-adv-x="479" 
d="M511 218c-45 -125 -164 -238 -257 -230c-149 13 -179 196 -123 344c55 144 197 238 280 215c135 -38 140 -219 100 -329zM432 222c38 110 66 280 -30 299c-85 15 -154 -97 -191 -196c-43 -113 -67 -290 34 -310c82 -17 151 105 187 207zM571 724c5 -29 -27 -49 -54 -56
l-204 -57c-10 -3 -24 -6 -25 3c-1 7 10 16 18 19l195 95c28 13 66 20 70 -4z" />
    <glyph glyph-name="ograve" unicode="&#xf2;" horiz-adv-x="471" 
d="M544 613c-7 -10 -21 -6 -33 -2l-145 45c-25 8 -57 32 -31 64c16 19 41 10 61 -1l134 -79c10 -6 22 -15 14 -27zM497 218c-45 -125 -163 -238 -257 -230c-149 13 -178 196 -122 344c54 144 197 238 279 215c136 -38 140 -219 100 -329zM418 222c38 110 66 280 -30 299
c-85 15 -153 -97 -190 -196c-44 -113 -67 -290 33 -310c82 -17 151 105 187 207z" />
    <glyph glyph-name="ocircumflex" unicode="&#xf4;" horiz-adv-x="477" 
d="M585 605h-64l-48 110l-102 -110h-80l171 173h45zM511 218c-45 -125 -164 -238 -257 -230c-149 13 -179 196 -123 344c55 144 197 238 280 215c135 -38 140 -219 100 -329zM432 222c38 110 66 280 -30 299c-85 15 -154 -97 -191 -196c-43 -113 -67 -290 34 -310
c82 -17 151 105 187 207z" />
    <glyph glyph-name="odieresis" unicode="&#xf6;" horiz-adv-x="476" 
d="M511 218c-45 -125 -164 -238 -257 -230c-149 13 -179 196 -123 344c55 144 197 238 280 215c135 -38 140 -219 100 -329zM432 222c38 110 66 280 -30 299c-85 15 -154 -97 -191 -196c-43 -113 -67 -290 34 -310c82 -17 151 105 187 207zM562 661c-7 -26 -33 -53 -60 -52
c-26 0 -35 25 -27 51s33 51 59 50c25 0 35 -23 28 -49zM413 661c-8 -26 -34 -53 -60 -52c-26 0 -36 25 -28 51s34 51 59 50c25 0 35 -23 29 -49z" />
    <glyph glyph-name="otilde" unicode="&#xf5;" horiz-adv-x="473" 
d="M511 218c-45 -125 -164 -238 -257 -230c-149 13 -179 196 -123 344c55 144 197 238 280 215c135 -38 140 -219 100 -329zM432 222c38 110 66 280 -30 299c-85 15 -154 -97 -191 -196c-43 -113 -67 -290 34 -310c82 -17 151 105 187 207zM597 710c8 -6 -8 -22 -17 -30
c-30 -27 -81 -71 -133 -70c-81 2 -58 56 -99 53c-24 0 -35 -10 -63 -34c-8 -8 -22 -16 -26 -11c-6 6 5 18 13 27c26 27 81 70 133 71c65 0 60 -53 96 -52c17 1 45 18 68 37c9 8 21 15 28 9z" />
    <glyph glyph-name="uacute" unicode="&#xfa;" horiz-adv-x="605" 
d="M628 536l-127 -392c-11 -32 -27 -97 -2 -89c17 5 72 74 94 114c5 9 16 35 27 29s-4 -38 -13 -52c-33 -56 -121 -168 -169 -160c-53 9 -22 110 -12 142l36 122c-14 -19 -49 -81 -99 -139c-38 -42 -127 -130 -187 -123c-65 7 -35 104 -15 164l93 268c8 22 16 55 7 62
c-20 16 -86 -89 -102 -119c-6 -10 -15 -26 -22 -21c-7 4 -4 21 1 31c44 92 114 176 168 175c63 -2 30 -103 10 -162l-84 -243c-12 -32 -31 -91 1 -89c46 2 125 86 185 177c52 79 83 153 103 210l35 95h72zM662 725c5 -29 -27 -49 -54 -56l-204 -57c-10 -3 -24 -6 -25 3
c-1 7 10 16 18 19l195 95c28 13 66 20 70 -4z" />
    <glyph glyph-name="ugrave" unicode="&#xf9;" horiz-adv-x="600" 
d="M628 536l-127 -392c-11 -32 -27 -97 -2 -89c17 5 72 74 94 114c5 9 16 35 27 29s-4 -38 -13 -52c-33 -56 -121 -168 -169 -160c-53 9 -22 110 -12 142l36 122c-14 -19 -49 -81 -99 -139c-38 -42 -127 -130 -187 -123c-65 7 -35 104 -15 164l93 268c8 22 16 55 7 62
c-20 16 -86 -89 -102 -119c-6 -10 -15 -26 -22 -21c-7 4 -4 21 1 31c44 92 114 176 168 175c63 -2 30 -103 10 -162l-84 -243c-12 -32 -31 -91 1 -89c46 2 125 86 185 177c52 79 83 153 103 210l35 95h72zM621 612c-7 -9 -21 -6 -33 -2l-145 45c-25 8 -58 32 -31 64
c16 19 41 10 61 -1l134 -79c10 -5 22 -14 14 -27z" />
    <glyph glyph-name="ucircumflex" unicode="&#xfb;" horiz-adv-x="602" 
d="M628 536l-127 -392c-11 -32 -27 -97 -2 -89c17 5 72 74 94 114c5 9 16 35 27 29s-4 -38 -13 -52c-33 -56 -121 -168 -169 -160c-53 9 -22 110 -12 142l36 122c-14 -19 -49 -81 -99 -139c-38 -42 -127 -130 -187 -123c-65 7 -35 104 -15 164l93 268c8 22 16 55 7 62
c-20 16 -86 -89 -102 -119c-6 -10 -15 -26 -22 -21c-7 4 -4 21 1 31c44 92 114 176 168 175c63 -2 30 -103 10 -162l-84 -243c-12 -32 -31 -91 1 -89c46 2 125 86 185 177c52 79 83 153 103 210l35 95h72zM654 606h-64l-48 110l-102 -110h-80l171 174h45z" />
    <glyph glyph-name="udieresis" unicode="&#xfc;" horiz-adv-x="605" 
d="M628 536l-127 -392c-11 -32 -27 -97 -2 -89c17 5 72 74 94 114c5 9 16 35 27 29s-4 -38 -13 -52c-33 -56 -121 -168 -169 -160c-53 9 -22 110 -12 142l36 122c-14 -19 -49 -81 -99 -139c-38 -42 -127 -130 -187 -123c-65 7 -35 104 -15 164l93 268c8 22 16 55 7 62
c-20 16 -86 -89 -102 -119c-6 -10 -15 -26 -22 -21c-7 4 -4 21 1 31c44 92 114 176 168 175c63 -2 30 -103 10 -162l-84 -243c-12 -32 -31 -91 1 -89c46 2 125 86 185 177c52 79 83 153 103 210l35 95h72zM635 661c-7 -26 -33 -53 -60 -52c-26 0 -35 25 -27 51s33 51 59 50
c25 0 35 -23 28 -49zM486 661c-8 -26 -34 -53 -60 -52c-26 0 -36 25 -28 51s34 51 59 50c25 0 35 -23 29 -49z" />
    <glyph glyph-name="degree" unicode="&#xb0;" horiz-adv-x="318" 
d="M378 761c168 0 92 -251 -75 -251c-168 0 -93 251 75 251zM366 721c-117 0 -168 -176 -51 -176s168 176 51 176z" />
    <glyph glyph-name="registered" unicode="&#xae;" horiz-adv-x="809" 
d="M621 761c507 0 292 -761 -214 -761c-507 0 -293 761 214 761zM609 720c-452 0 -644 -680 -192 -680c454 0 645 680 192 680zM702 530c5 -49 -30 -95 -85 -126c-23 -13 -54 -20 -62 -22l-5 -1l84 -177c0 -1 7 -7 12 -11c4 -2 12 -5 14 -5h4l-4 -18l-6 1c-13 1 -20 2 -34 2
c-12 0 -20 -1 -34 -3l-8 -1l-106 217l6 10l20 -2c54 -2 127 37 138 92c8 41 -3 71 -46 78c-29 4 -69 -2 -79 -5l-11 -2l-94 -334c-3 -9 -3 -17 2 -23c5 -11 23 -9 30 -10l13 -2l-4 -16h-9c-8 0 -44 4 -72 4c-30 0 -66 -4 -77 -4h-10l4 17l18 2c8 0 21 0 33 9
c7 6 12 14 15 23l88 313c4 16 3 19 -1 27s-33 8 -38 8h-7l5 19h11c6 0 45 -3 75 -3c42 -1 105 1 111 2l10 1c43 2 95 -12 99 -60z" />
    <glyph glyph-name="copyright" unicode="&#xa9;" horiz-adv-x="812" 
d="M624 761c507 0 292 -761 -214 -761c-507 0 -293 761 214 761zM612 720c-452 0 -643 -680 -191 -680c453 0 644 680 191 680zM728 568l-38 -89h-18l10 37l2 6c5 18 -34 38 -60 43c-7 2 -47 10 -84 3c-114 -24 -171 -117 -187 -212c-16 -93 40 -161 127 -165
c62 -3 101 13 135 29l15 6l3 -5l-18 -26l-16 -7c-27 -11 -85 -29 -131 -28c-131 4 -201 74 -181 190c26 152 151 226 243 242c49 8 100 1 117 -2c29 -6 64 -16 73 -19z" />
    <glyph glyph-name="trademark" unicode="&#x2122;" horiz-adv-x="896" 
d="M1081 748l-5 -15h-8c-4 0 -31 -1 -39 -8c-8 -8 -10 -9 -15 -25l-80 -286c-3 -9 -3 -16 1 -22c6 -9 22 -8 28 -8l13 -1l-4 -16h-9c-7 0 -41 3 -67 3c-27 0 -59 -3 -69 -3h-9l4 17h15c8 1 21 0 31 8c7 6 10 13 13 22l76 267l-241 -320h-12l-59 318l-75 -265
c-2 -9 -3 -16 1 -22c6 -9 22 -8 28 -8l13 -1l-4 -16h-9c-7 0 -40 4 -67 3c-18 0 -36 -3 -46 -3h-10l5 17h16c8 1 20 0 30 8c6 6 11 13 13 22l81 286c4 16 4 17 -1 25c-3 7 -30 8 -35 8h-6l5 15h9c6 0 22 -2 36 -2c21 -1 49 2 54 2h6l58 -304l90 117c51 67 66 84 106 139
c11 14 17 23 27 39l6 9h8c5 0 27 -2 45 -2c17 0 39 2 45 2h7zM565 751l-30 -91h-16l5 35c2 6 3 14 0 19c-3 4 -7 6 -13 6l-86 1l-87 -307c-2 -9 -4 -16 0 -22c5 -9 21 -8 28 -8l13 -1l-4 -16h-9c-7 0 -41 3 -67 3s-59 -3 -70 -3h-9l5 17h16c7 1 20 0 30 8c7 6 11 13 14 22
l87 307l-87 -3c-2 0 -8 0 -12 -3c-3 -2 -9 -9 -11 -16l-17 -39h-16l22 90l9 -1c6 0 90 -3 147 -2s141 1 147 2z" />
    <glyph glyph-name="notequal" unicode="&#x2260;" horiz-adv-x="627" 
d="M599 363l-15 -52h-462l16 52h461zM562 234l-15 -52h-461l15 52h461zM578 495l-488 -447l-26 1l489 446h25z" />
    <glyph glyph-name="infinity" unicode="&#x221e;" horiz-adv-x="850" 
d="M902 280c-27 -106 -130 -174 -213 -173c-54 1 -118 25 -159 78l-38 49l-65 -49c-71 -52 -149 -77 -204 -78c-83 -1 -148 67 -114 173c28 90 120 155 211 159c58 3 106 -27 144 -74l48 -58l81 58c66 46 130 77 187 74c89 -4 145 -69 122 -159zM843 276
c12 60 -22 105 -85 103c-48 -2 -80 -20 -127 -48l-92 -58l53 -66c26 -34 55 -46 105 -45c70 1 134 52 146 114zM467 273l-60 58c-30 28 -53 46 -100 48c-61 2 -120 -43 -142 -103c-23 -63 13 -113 82 -114c49 -1 85 11 131 45z" />
    <glyph glyph-name="plusminus" unicode="&#xb1;" horiz-adv-x="492" 
d="M565 365l-15 -53h-188l-52 -186h-48l53 186h-186l15 53h185l53 187h50l-53 -187h186zM469 39l-12 -41h-424l11 41h425z" />
    <glyph glyph-name="lessequal" unicode="&#x2264;" horiz-adv-x="482" 
d="M615 557l-15 -53l-419 -180l321 -170l-15 -50l-375 199l13 48zM470 46l-13 -47h-431l14 47h430zM26 -1l14 47z" />
    <glyph glyph-name="greaterequal" unicode="&#x2265;" horiz-adv-x="486" 
d="M557 351l-14 -48l-488 -199l15 50l416 170l-318 180l15 53zM470 46l-13 -47h-431l14 47h430zM457 -1l13 47z" />
    <glyph glyph-name="mu" unicode="&#xb5;" horiz-adv-x="622" 
d="M619 108l-16 -34c-30 -61 -118 -100 -158 -94c-44 6 -79 51 -65 107l-36 -28c-55 -43 -121 -76 -159 -76c-32 1 -87 20 -107 63l-11 -38c-20 -70 10 -95 -11 -177c-10 -35 -41 -72 -75 -71c-32 1 -43 33 -34 64c17 70 51 88 73 146c4 11 7 18 11 29l154 544h92l-107 -374
c-17 -60 7 -117 66 -117c55 1 152 54 169 115l106 376h89l-119 -423c-12 -42 -3 -97 41 -89c27 5 47 23 62 48l16 29h19z" />
    <glyph glyph-name="partialdiff" unicode="&#x2202;" horiz-adv-x="530" 
d="M615 403c-40 -193 -221 -438 -387 -422c-122 12 -162 95 -136 204c27 120 151 228 270 228c55 0 83 -17 119 -48l25 -23l22 52c62 142 61 326 -82 326c-40 0 -67 -14 -109 -25l-20 -6l-25 48l48 13c39 11 63 16 101 15c175 -2 210 -186 174 -362zM486 303l-20 28
c-16 20 -30 31 -58 37c-77 18 -163 -59 -209 -142c-47 -86 -56 -189 21 -215c92 -30 180 109 229 212z" />
    <glyph glyph-name="summation" unicode="&#x2211;" horiz-adv-x="773" 
d="M881 745l-45 -165h-21c11 38 7 64 -14 90c-22 28 -53 28 -94 28h-304l193 -352l-413 -353h419c28 0 48 9 75 25c40 25 62 51 76 91h23c-28 -45 -43 -73 -65 -120c-19 -41 -29 -67 -42 -110l-70 15h-596l483 405l-234 453l65 -7h564z" />
    <glyph glyph-name="product" unicode="&#x220f;" horiz-adv-x="891" 
d="M1070 748l-6 -24l-24 -1c-21 -1 -35 -8 -54 -21c-36 -23 -49 -52 -60 -90l-172 -611c-8 -29 -13 -52 2 -71c13 -16 30 -18 53 -19l25 -1l-5 -17h-324l5 20h26c25 1 43 2 65 19c24 19 27 42 35 70l193 686h-380l-191 -680c-10 -32 -16 -60 5 -79c14 -14 32 -14 56 -14h20
l-5 -22h-326l7 23h25c23 0 40 0 62 14c30 20 36 47 45 78l174 619c9 32 6 54 -12 74c-12 14 -23 21 -44 23l-17 2l7 22h815z" />
    <glyph glyph-name="pi" unicode="&#x3c0;" horiz-adv-x="649" 
d="M772 555l-27 -92h-148l-92 -272c-16 -47 0 -98 47 -96c37 1 70 29 89 65l10 19h22l-10 -25c-34 -82 -110 -160 -190 -154c-90 7 -70 127 -34 219l95 244h-133l-146 -360c-22 -54 -73 -123 -121 -108c-21 7 -37 17 -36 40c2 59 68 72 102 122c14 22 26 33 35 56l96 245
h-37c-20 0 -33 2 -55 -6c-33 -11 -68 -49 -74 -60l-18 7l12 17c39 53 64 96 124 122c29 13 49 17 79 17h410z" />
    <glyph glyph-name="integral" unicode="&#x222b;" horiz-adv-x="344" 
d="M533 818c-9 -22 -33 -38 -56 -38c-17 0 -20 13 -34 21c-43 23 -55 -159 -84 -260l-92 -329c-30 -104 -109 -356 -223 -323c-17 5 -36 25 -26 49c9 22 29 38 51 39c25 1 18 -24 35 -29c41 -13 65 132 88 216l129 457c29 102 82 246 167 246c29 0 58 -19 45 -49z" />
    <glyph glyph-name="Omega" unicode="&#x3a9;" horiz-adv-x="807" 
d="M864 403c-44 -138 -163 -251 -305 -275l-10 -31h171c24 0 44 7 63 27c12 11 17 22 21 37h20l-46 -163h-312l59 154c116 47 188 138 218 250c34 125 29 230 -156 232c-170 1 -254 -107 -291 -232c-34 -112 -13 -204 76 -250l-28 -154h-311l45 163h21c-6 -15 -6 -26 -1 -37
c7 -20 24 -27 48 -27h170l9 31c-129 24 -184 137 -149 275c41 168 221 263 418 263c211 0 323 -95 270 -263z" />
    <glyph glyph-name="logicalnot" unicode="&#xac;" horiz-adv-x="822" 
d="M888 324l-91 -324h-63l75 266h-700l17 58h762z" />
    <glyph glyph-name="radical" unicode="&#x221a;" horiz-adv-x="549" 
d="M758 850l-400 -899l-106 474l-105 -47l-5 32l158 66l87 -379l339 758z" />
    <glyph glyph-name="approxequal" unicode="&#x2248;" horiz-adv-x="699" 
d="M780 408l-30 -27c-53 -46 -100 -63 -162 -67c-46 -2 -67 15 -109 28l-87 26c-34 10 -55 21 -96 13c-38 -6 -63 -21 -96 -47l-25 -21l-41 32l21 17c52 42 93 63 154 72c50 7 79 -1 122 -15l76 -25c36 -12 54 -26 95 -23c43 4 76 13 114 44l27 21zM729 223l-31 -25
c-53 -47 -100 -65 -162 -68c-47 -2 -67 16 -108 28l-88 26c-34 11 -55 21 -95 14c-38 -8 -64 -22 -98 -48l-25 -21l-39 32l20 17c53 42 93 63 154 72c51 8 79 -1 122 -14l76 -26c36 -12 54 -26 95 -23c43 4 76 13 114 43l27 22z" />
    <glyph glyph-name="Delta" unicode="&#x394;" horiz-adv-x="746" 
d="M729 -1h-693l589 778zM606 50l-76 542l-407 -542h483z" />
    <glyph glyph-name="nbspace" unicode="&#xa0;" horiz-adv-x="616" 
 />
    <glyph glyph-name="Agrave" unicode="&#xc0;" horiz-adv-x="629" 
d="M563 14c-2 -16 -22 -14 -38 -14c-25 0 -46 2 -74 2c-31 0 -56 -3 -82 -2c-14 1 -32 2 -26 17c4 12 14 14 26 16c29 5 37 7 49 23c7 9 9 24 9 39v182h-179l-91 -170c-6 -10 -22 -42 -10 -55c10 -12 28 -16 51 -16c42 -3 28 -36 1 -36c-31 0 -58 3 -90 3
c-31 0 -38 -5 -85 -3c-35 2 -25 30 9 35c12 2 21 5 31 13c7 5 20 20 29 35l385 653c5 7 10 18 18 15c6 -2 9 -8 9 -13v-646c0 -18 0 -35 7 -45c9 -12 21 -12 36 -15c7 -2 17 -5 15 -18zM427 319v269l-155 -269h155zM625 819c-6 -10 -21 -6 -33 -2l-144 45
c-26 8 -58 32 -32 64c16 19 41 10 61 -1l135 -79c10 -6 21 -15 13 -27z" />
    <glyph glyph-name="Atilde" unicode="&#xc3;" horiz-adv-x="624" 
d="M570 14c-2 -16 -22 -14 -38 -14c-25 0 -46 2 -74 2c-31 0 -56 -3 -82 -2c-14 1 -33 2 -26 17c4 12 14 14 26 16c29 5 37 7 49 23c7 9 9 24 9 39v182h-179l-92 -170c-5 -10 -21 -42 -9 -55c9 -12 28 -16 51 -16c42 -3 28 -36 1 -36c-31 0 -59 3 -90 3c-32 0 -38 -5 -86 -3
c-34 2 -24 30 10 35c12 2 21 5 31 13c7 5 20 20 29 35l385 653c4 7 10 18 18 15c6 -2 9 -8 9 -13v-646c0 -18 0 -35 7 -45c8 -12 21 -12 36 -15c7 -2 17 -5 15 -18zM434 319v269l-155 -269h155zM694 917c7 -7 -9 -23 -17 -30c-30 -28 -81 -72 -133 -70c-81 2 -58 55 -99 53
c-24 -1 -35 -11 -63 -34c-8 -8 -22 -16 -26 -12c-6 7 5 19 13 28c25 27 81 70 133 70c65 1 60 -53 96 -51c17 1 45 17 68 37c9 8 21 15 28 9z" />
    <glyph glyph-name="Otilde" unicode="&#xd5;" horiz-adv-x="608" 
d="M657 364c-41 -204 -212 -405 -366 -381c-169 27 -220 241 -175 425c41 173 180 361 349 353c181 -8 223 -239 192 -397zM570 375c49 178 16 354 -107 357c-110 2 -185 -94 -262 -348c-41 -137 -55 -356 104 -367c140 -11 223 207 265 358zM676 916c7 -7 -9 -23 -17 -31
c-31 -27 -81 -71 -133 -70c-81 3 -58 56 -100 54c-23 -1 -35 -11 -62 -35c-8 -7 -22 -16 -27 -11c-6 6 6 18 13 27c26 28 82 70 133 71c66 1 61 -53 97 -52c17 1 45 18 67 38c10 7 22 15 29 9z" />
    <glyph glyph-name="divide" unicode="&#xf7;" horiz-adv-x="710" 
d="M514 558c92 0 54 -139 -39 -139c-91 0 -53 139 39 139zM786 355l-20 -73h-647l21 73h646zM419 219c92 0 52 -138 -40 -138c-91 0 -52 138 40 138z" />
    <glyph glyph-name="lozenge" unicode="&#x25ca;" horiz-adv-x="528" 
d="M612 382l-306 -384h-65l-92 390l306 370h65zM552 382l-81 320l-261 -316l78 -340z" />
    <glyph glyph-name="ydieresis" unicode="&#xff;" horiz-adv-x="480" 
d="M581 485c2 -74 -57 -199 -111 -287c-53 -86 -93 -149 -158 -234c-54 -67 -140 -222 -244 -224c-29 0 -69 32 -70 76c-1 26 18 54 45 53c56 -4 24 -64 50 -76c52 -25 129 96 137 113c37 74 51 240 46 394c-3 78 -1 200 -34 198c-25 0 -57 -69 -75 -116
c-4 -12 -7 -28 -20 -27c-16 0 -6 26 -1 41c31 89 80 163 133 160c67 -5 73 -168 74 -282c0 -86 -7 -186 -13 -231c51 79 80 123 127 203c34 60 51 92 51 155c0 39 -21 63 -20 99c0 27 8 55 35 59c32 4 48 -39 48 -74zM591 658c-7 -26 -33 -53 -60 -52c-26 0 -35 25 -27 51
s33 51 59 50c25 0 35 -23 28 -49zM442 658c-8 -26 -34 -53 -60 -52c-26 0 -36 25 -28 51s34 51 59 50c25 0 35 -23 29 -49z" />
    <glyph glyph-name="Ydieresis" unicode="&#x178;" horiz-adv-x="607" 
d="M790 731c0 -20 -32 -16 -51 -30c-29 -20 -41 -38 -62 -69l-217 -305l-64 -228c-5 -19 -7 -40 1 -52c13 -19 63 -1 62 -30c-1 -15 -17 -16 -32 -17c-30 -1 -63 2 -102 2c-33 0 -54 -3 -86 -2c-14 0 -29 5 -23 18c10 29 45 10 72 26c8 5 12 13 15 22l78 271l-61 320
c-3 19 -5 38 -19 48c-18 12 -56 4 -54 28c1 18 38 14 55 13c26 -1 43 -3 70 -3c30 0 44 1 78 3c15 1 36 -1 33 -17c-7 -25 -49 -13 -67 -23c-18 -9 -16 -40 -12 -65l51 -270l182 264c10 13 37 50 20 72c-13 16 -65 1 -62 25c2 16 28 14 41 14c30 -1 40 -2 65 -2
c25 1 39 2 64 2c14 0 26 -1 25 -15zM716 865c-7 -26 -33 -53 -60 -52c-26 0 -35 25 -27 51s33 51 59 50c25 0 35 -23 28 -49zM567 865c-8 -26 -34 -53 -60 -52c-26 0 -36 25 -28 51s34 51 59 50c25 0 35 -23 29 -49z" />
    <glyph glyph-name="Acircumflex" unicode="&#xc2;" horiz-adv-x="613" 
d="M597 14c-2 -16 -22 -14 -38 -14c-25 0 -45 2 -73 2c-32 0 -57 -3 -83 -2c-14 1 -32 2 -26 17c4 12 14 14 26 16c29 5 37 7 49 23c7 9 9 24 9 39v182h-178l-92 -170c-6 -10 -22 -42 -9 -55c9 -12 27 -16 51 -16c41 -3 28 -36 0 -36c-31 0 -58 3 -89 3c-32 0 -38 -5 -86 -3
c-34 2 -25 30 9 35c12 2 21 5 31 13c7 5 21 20 30 35l384 653c5 7 10 18 18 15c6 -2 10 -8 10 -13v-646c0 -18 0 -35 6 -45c9 -12 22 -12 36 -15c7 -2 18 -5 15 -18zM461 319v269l-155 -269h155zM691 812h-64l-48 110l-102 -110h-80l171 174h45z" />
    <glyph glyph-name="Ecircumflex" unicode="&#xca;" horiz-adv-x="531" 
d="M648 722l-43 -147c-4 -13 -12 -27 -24 -26c-15 0 -13 21 -12 35l3 73c2 55 -30 50 -112 50h-66l-84 -278c-1 -2 -3 -12 1 -16c2 -3 6 -5 11 -5h71c20 0 35 2 52 12c22 12 34 26 45 48l17 32c3 8 12 15 20 12c7 -3 10 -11 8 -19l-9 -27c-9 -31 -16 -48 -24 -78
c-11 -37 -17 -60 -27 -98l-6 -24c-2 -9 -9 -18 -18 -19c-13 -2 -13 18 -13 31v40c1 18 -2 31 -13 42c-12 12 -37 15 -43 15h-73c-3 0 -6 0 -10 -3c-3 -1 -5 -4 -6 -7l-57 -202c-12 -43 -31 -98 -16 -115c11 -12 27 -15 45 -15h53c31 0 82 10 112 36c17 15 35 40 49 70l26 51
c6 12 16 26 28 23c8 -2 12 -10 10 -17l-49 -167c-2 -7 -4 -12 -8 -18c-7 -6 -13 -11 -20 -11h-394c-17 0 -41 -5 -36 14c6 25 51 15 73 34c11 11 15 19 18 32l161 558c6 22 11 49 3 61c-11 16 -52 2 -52 31c-1 16 41 18 61 16c49 -2 84 -7 138 -7c68 0 116 8 177 7
c40 0 40 4 33 -24zM666 812h-64l-48 110l-102 -110h-80l171 174h45z" />
    <glyph glyph-name="Aacute" unicode="&#xc1;" horiz-adv-x="613" 
d="M597 14c-2 -16 -22 -14 -38 -14c-25 0 -45 2 -73 2c-32 0 -57 -3 -83 -2c-14 1 -32 2 -26 17c4 12 14 14 26 16c29 5 37 7 49 23c7 9 9 24 9 39v182h-178l-92 -170c-6 -10 -22 -42 -9 -55c9 -12 27 -16 51 -16c41 -3 28 -36 0 -36c-31 0 -58 3 -89 3c-32 0 -38 -5 -86 -3
c-34 2 -25 30 9 35c12 2 21 5 31 13c7 5 21 20 30 35l384 653c5 7 10 18 18 15c6 -2 10 -8 10 -13v-646c0 -18 0 -35 6 -45c9 -12 22 -12 36 -15c7 -2 18 -5 15 -18zM461 319v269l-155 -269h155zM675 933c5 -29 -27 -49 -54 -56l-204 -57c-10 -3 -24 -6 -25 3
c-1 7 10 16 18 19l195 95c28 13 66 20 70 -4z" />
    <glyph glyph-name="Edieresis" unicode="&#xcb;" horiz-adv-x="525" 
d="M648 722l-43 -147c-4 -13 -12 -27 -24 -26c-15 0 -13 21 -12 35l3 73c2 55 -30 50 -112 50h-66l-84 -278c-1 -2 -3 -12 1 -16c2 -3 6 -5 11 -5h71c20 0 35 2 52 12c22 12 34 26 45 48l17 32c3 8 12 15 20 12c7 -3 10 -11 8 -19l-9 -27c-9 -31 -16 -48 -24 -78
c-11 -37 -17 -60 -27 -98l-6 -24c-2 -9 -9 -18 -18 -19c-13 -2 -13 18 -13 31v40c1 18 -2 31 -13 42c-12 12 -37 15 -43 15h-73c-3 0 -6 0 -10 -3c-3 -1 -5 -4 -6 -7l-57 -202c-12 -43 -31 -98 -16 -115c11 -12 27 -15 45 -15h53c31 0 82 10 112 36c17 15 35 40 49 70l26 51
c6 12 16 26 28 23c8 -2 12 -10 10 -17l-49 -167c-2 -7 -4 -12 -8 -18c-7 -6 -13 -11 -20 -11h-394c-17 0 -41 -5 -36 14c6 25 51 15 73 34c11 11 15 19 18 32l161 558c6 22 11 49 3 61c-11 16 -52 2 -52 31c-1 16 41 18 61 16c49 -2 84 -7 138 -7c68 0 116 8 177 7
c40 0 40 4 33 -24zM649 865c-7 -26 -33 -53 -60 -52c-26 0 -35 25 -27 51s33 51 59 50c25 0 35 -23 28 -49zM500 865c-8 -26 -34 -53 -60 -52c-26 0 -36 25 -28 51s34 51 59 50c25 0 35 -23 29 -49z" />
    <glyph glyph-name="Egrave" unicode="&#xc8;" horiz-adv-x="527" 
d="M648 722l-43 -147c-4 -13 -12 -27 -24 -26c-15 0 -13 21 -12 35l3 73c2 55 -30 50 -112 50h-66l-84 -278c-1 -2 -3 -12 1 -16c2 -3 6 -5 11 -5h71c20 0 35 2 52 12c22 12 34 26 45 48l17 32c3 8 12 15 20 12c7 -3 10 -11 8 -19l-9 -27c-9 -31 -16 -48 -24 -78
c-11 -37 -17 -60 -27 -98l-6 -24c-2 -9 -9 -18 -18 -19c-13 -2 -13 18 -13 31v40c1 18 -2 31 -13 42c-12 12 -37 15 -43 15h-73c-3 0 -6 0 -10 -3c-3 -1 -5 -4 -6 -7l-57 -202c-12 -43 -31 -98 -16 -115c11 -12 27 -15 45 -15h53c31 0 82 10 112 36c17 15 35 40 49 70l26 51
c6 12 16 26 28 23c8 -2 12 -10 10 -17l-49 -167c-2 -7 -4 -12 -8 -18c-7 -6 -13 -11 -20 -11h-394c-17 0 -41 -5 -36 14c6 25 51 15 73 34c11 11 15 19 18 32l161 558c6 22 11 49 3 61c-11 16 -52 2 -52 31c-1 16 41 18 61 16c49 -2 84 -7 138 -7c68 0 116 8 177 7
c40 0 40 4 33 -24zM623 814c-7 -9 -21 -6 -33 -2l-145 45c-25 8 -58 32 -31 64c16 19 41 10 61 -1l134 -79c10 -5 22 -14 14 -27z" />
    <glyph glyph-name="Iacute" unicode="&#xcd;" horiz-adv-x="297" 
d="M468 729c-5 -25 -45 -9 -71 -31c-13 -12 -21 -47 -26 -64l-148 -525c-6 -18 -16 -49 -9 -60c12 -23 69 -5 63 -32c-3 -19 -38 -17 -54 -17c-31 0 -38 2 -62 2c-30 0 -49 -2 -79 -2c-17 0 -46 -4 -42 15c6 29 44 13 68 30c14 10 22 29 27 50l157 552c5 22 12 48 3 58
c-15 17 -61 0 -53 28c5 19 37 13 54 13c30 0 47 -3 78 -3c24 0 32 3 63 3c16 0 35 3 31 -17zM535 933c5 -29 -27 -49 -54 -56l-204 -57c-10 -3 -24 -6 -25 3c-1 7 10 16 18 19l195 95c28 13 66 20 70 -4z" />
    <glyph glyph-name="Icircumflex" unicode="&#xce;" 
d="M468 729c-5 -25 -45 -9 -71 -31c-13 -12 -21 -47 -26 -64l-148 -525c-6 -18 -16 -49 -9 -60c12 -23 69 -5 63 -32c-3 -19 -38 -17 -54 -17c-31 0 -38 2 -62 2c-30 0 -49 -2 -79 -2c-17 0 -46 -4 -42 15c6 29 44 13 68 30c14 10 22 29 27 50l157 552c5 22 12 48 3 58
c-15 17 -61 0 -53 28c5 19 37 13 54 13c30 0 47 -3 78 -3c24 0 32 3 63 3c16 0 35 3 31 -17zM551 806h-64l-48 110l-102 -110h-80l171 174h45z" />
    <glyph glyph-name="Idieresis" unicode="&#xcf;" 
d="M468 729c-5 -25 -45 -9 -71 -31c-13 -12 -21 -47 -26 -64l-148 -525c-6 -18 -16 -49 -9 -60c12 -23 69 -5 63 -32c-3 -19 -38 -17 -54 -17c-31 0 -38 2 -62 2c-30 0 -49 -2 -79 -2c-17 0 -46 -4 -42 15c6 29 44 13 68 30c14 10 22 29 27 50l157 552c5 22 12 48 3 58
c-15 17 -61 0 -53 28c5 19 37 13 54 13c30 0 47 -3 78 -3c24 0 32 3 63 3c16 0 35 3 31 -17zM510 865c-7 -26 -33 -53 -60 -52c-26 0 -35 25 -27 51s33 51 59 50c25 0 35 -23 28 -49zM361 865c-8 -26 -34 -53 -60 -52c-26 0 -36 25 -28 51s34 51 59 50c25 0 35 -23 29 -49z
" />
    <glyph glyph-name="Igrave" unicode="&#xcc;" 
d="M468 729c-5 -25 -45 -9 -71 -31c-13 -12 -21 -47 -26 -64l-148 -525c-6 -18 -16 -49 -9 -60c12 -23 69 -5 63 -32c-3 -19 -38 -17 -54 -17c-31 0 -38 2 -62 2c-30 0 -49 -2 -79 -2c-17 0 -46 -4 -42 15c6 29 44 13 68 30c14 10 22 29 27 50l157 552c5 22 12 48 3 58
c-15 17 -61 0 -53 28c5 19 37 13 54 13c30 0 47 -3 78 -3c24 0 32 3 63 3c16 0 35 3 31 -17zM508 820c-7 -9 -21 -6 -33 -2l-145 45c-25 8 -58 32 -31 64c16 19 41 10 61 -1l134 -79c10 -5 22 -14 14 -27z" />
    <glyph glyph-name="Oacute" unicode="&#xd3;" horiz-adv-x="631" 
d="M691 364c-41 -204 -212 -405 -366 -381c-168 27 -220 241 -175 425c41 173 181 361 349 353c181 -8 223 -239 192 -397zM604 375c49 178 16 354 -107 357c-110 2 -185 -94 -262 -348c-41 -137 -55 -356 105 -367c139 -11 222 207 264 358zM675 933c5 -29 -27 -49 -54 -56
l-204 -57c-10 -3 -24 -6 -25 3c-1 7 10 16 18 19l195 95c28 13 66 20 70 -4z" />
    <glyph glyph-name="Ocircumflex" unicode="&#xd4;" horiz-adv-x="631" 
d="M691 364c-41 -204 -212 -405 -366 -381c-168 27 -220 241 -175 425c41 173 181 361 349 353c181 -8 223 -239 192 -397zM604 375c49 178 16 354 -107 357c-110 2 -185 -94 -262 -348c-41 -137 -55 -356 105 -367c139 -11 222 207 264 358zM666 812h-64l-48 110l-102 -110
h-80l171 174h45z" />
    <glyph glyph-name="Ograve" unicode="&#xd2;" horiz-adv-x="631" 
d="M691 364c-41 -204 -212 -405 -366 -381c-168 27 -220 241 -175 425c41 173 181 361 349 353c181 -8 223 -239 192 -397zM604 375c49 178 16 354 -107 357c-110 2 -185 -94 -262 -348c-41 -137 -55 -356 105 -367c139 -11 222 207 264 358zM641 820c-7 -9 -21 -6 -33 -2
l-145 45c-25 8 -58 32 -31 64c16 19 41 10 61 -1l134 -79c10 -5 22 -14 14 -27z" />
    <glyph glyph-name="Uacute" unicode="&#xda;" horiz-adv-x="643" 
d="M807 729c-2 -16 -41 -13 -56 -23c-18 -11 -26 -27 -32 -49l-145 -491c-28 -101 -115 -195 -247 -189c-116 6 -208 76 -156 243l127 424c7 22 10 47 -3 59c-16 15 -56 4 -50 27c5 18 22 16 39 16c31 0 59 -5 95 -5c31 1 47 5 78 5c16 0 35 0 28 -18c-9 -24 -56 -8 -83 -33
c-13 -13 -21 -46 -27 -64l-131 -443c-22 -75 -6 -181 109 -177c117 3 167 83 195 183l131 450c6 21 13 37 3 55c-11 23 -70 2 -71 27c-1 26 27 20 40 20c24 0 46 -1 75 -1c26 0 44 2 67 1c10 0 17 -1 14 -17zM706 933c5 -29 -27 -49 -54 -56l-204 -57c-10 -3 -24 -6 -25 3
c-1 7 10 16 18 19l195 95c28 13 66 20 70 -4z" />
    <glyph glyph-name="Ucircumflex" unicode="&#xdb;" horiz-adv-x="643" 
d="M807 729c-2 -16 -41 -13 -56 -23c-18 -11 -26 -27 -32 -49l-145 -491c-28 -101 -115 -195 -247 -189c-116 6 -208 76 -156 243l127 424c7 22 10 47 -3 59c-16 15 -56 4 -50 27c5 18 22 16 39 16c31 0 59 -5 95 -5c31 1 47 5 78 5c16 0 35 0 28 -18c-9 -24 -56 -8 -83 -33
c-13 -13 -21 -46 -27 -64l-131 -443c-22 -75 -6 -181 109 -177c117 3 167 83 195 183l131 450c6 21 13 37 3 55c-11 23 -70 2 -71 27c-1 26 27 20 40 20c24 0 46 -1 75 -1c26 0 44 2 67 1c10 0 17 -1 14 -17zM727 812h-64l-48 110l-102 -110h-80l171 174h45z" />
    <glyph glyph-name="Ugrave" unicode="&#xd9;" horiz-adv-x="643" 
d="M807 729c-2 -16 -41 -13 -56 -23c-18 -11 -26 -27 -32 -49l-145 -491c-28 -101 -115 -195 -247 -189c-116 6 -208 76 -156 243l127 424c7 22 10 47 -3 59c-16 15 -56 4 -50 27c5 18 22 16 39 16c31 0 59 -5 95 -5c31 1 47 5 78 5c16 0 35 0 28 -18c-9 -24 -56 -8 -83 -33
c-13 -13 -21 -46 -27 -64l-131 -443c-22 -75 -6 -181 109 -177c117 3 167 83 195 183l131 450c6 21 13 37 3 55c-11 23 -70 2 -71 27c-1 26 27 20 40 20c24 0 46 -1 75 -1c26 0 44 2 67 1c10 0 17 -1 14 -17zM690 814c-7 -9 -21 -6 -33 -2l-145 45c-25 8 -58 32 -31 64
c16 19 41 10 61 -1l134 -79c10 -5 22 -14 14 -27z" />
    </font>
</defs>
</svg>
